<svg xmlns="http://www.w3.org/2000/svg" width="20" height="20" viewBox="0 0 20 20">
    <g fill="none" fill-rule="nonzero">
        <path fill="#FFF" d="M6.992 18.995l.002-1.617h-.4v-.405h-.398l.002-2.028h-.4v-.398l-.404-.001v-1.218h-.399v-.405h-.4V11.71h-.383v-.402h-.4v-.388h-.414l.002-.423H3l.002-1.213h1.196v.405h.4v.405H5.4v2.425h.798l.006-10.113h.403V2h.8l-.002.405h.4l-.003 5.621h.8V6.05H9.8v.403h.398v1.573h.798V6.86l1.197.002v.401h.398l-.001 1.574.8.002v-1.18h.399v.403h.414v.42h.4v.404l.398.002-.003 5.665h-.398l-.002.403h-.398l-.002 2.023h-.416v.404h-.398L13.382 19z"/>
        <path fill="#212121" d="M7.582 18.223v-1.565H7.2v-.391H6.82v-1.961h-.38v-.387h-.388V12.74h-.38v-.392h-.383v-1.174h-.367v-.386h-.38v-.38h-.398V10H3.77V8.828h1.144v.39h.382v.392h.77v2.348h.771v-9.79h.386V1.79h.77v.386h.381v5.438h.771V5.699h1.144v.392h.356v1.522h.763v-1.13h1.149v.39h.38v1.523h.771v-1.14h.381v.39h.396v.406h.382v.391h.372v5.48h-.384v.392h-.382v1.957h-.4v.391h-.38v1.563l-6.112-.003zM3 10.393h.38v.396h.39v.376h.388v.408h.368v1.171h.382v.392h.381v1.173h.387v.398h.38v1.95h.382v.391h.38V19H14.463v-1.945h.376v-.392h.396v-1.955h.383v-.393H16V8.052h-.378v-.39h-.38v-.394h-.397v-.404h-.367v-.382h-1.162v-.395h-.38v-.386h-1.908v-.392h-.38v-.392H9.122l.003-3.128H8.74v-.397h-.383V1H6.832v.39h-.384v.4h-.385v7.045h-.39v-.398h-.382v-.393H3v2.35z"/>
    </g>
</svg>
