<svg xmlns="http://www.w3.org/2000/svg" width="19" height="19" viewBox="0 0 19 19">
    <g fill="#000" fill-rule="evenodd">
        <path d="M15.133 4.825a.43.43 0 0 1-.433.425H4.3a.43.43 0 0 1-.433-.425v-.85A.43.43 0 0 1 4.3 3.55h10.4c.24 0 .433.19.433.425v.85zm-1.3 12.325H5.167a.43.43 0 0 1-.434-.425V6.1h9.534v10.625a.43.43 0 0 1-.434.425zM8.2 2.275a.43.43 0 0 1 .433-.425h1.734c.239 0 .433.19.433.425V2.7H8.2v-.425zm6.5.425h-3.033v-.425c0-.703-.584-1.275-1.3-1.275H8.633c-.716 0-1.3.572-1.3 1.275V2.7H4.3c-.717 0-1.3.572-1.3 1.275v.85c0 .554.362 1.027.867 1.202v10.698c0 .703.583 1.275 1.3 1.275h8.666c.717 0 1.3-.572 1.3-1.275V6.027c.505-.175.867-.648.867-1.202v-.85c0-.703-.583-1.275-1.3-1.275z"/>
        <path d="M12.1 6.95a.43.43 0 0 0-.433.425v8.5a.43.43 0 0 0 .433.425.43.43 0 0 0 .433-.425v-8.5a.43.43 0 0 0-.433-.425M9.5 6.95a.43.43 0 0 0-.433.425v8.5a.43.43 0 0 0 .433.425.43.43 0 0 0 .433-.425v-8.5A.43.43 0 0 0 9.5 6.95M6.9 6.95a.43.43 0 0 0-.433.425v8.5a.43.43 0 0 0 .433.425.43.43 0 0 0 .433-.425v-8.5A.43.43 0 0 0 6.9 6.95"/>
    </g>
</svg>
