<svg xmlns="http://www.w3.org/2000/svg" width="20" height="18" viewBox="0 0 20 18">
    <path fill="#000" fill-rule="evenodd" d="M18.5 14.001H18c0-1.104-.897-2-2-2s-2 .896-2 2h-.5a.5.5 0 0 1-.5-.5v-7a.5.5 0 0 1 .5-.5h4c.314 0 .644.27.706.579l.084.421H15.5a.5.5 0 0 0-.5.5v2a.5.5 0 0 0 .5.5h3.378c.045.312.082.675.103 1H18.5a.5.5 0 0 0 0 1h.5v1.5a.5.5 0 0 1-.5.5zm-2.5 1c-.551 0-1-.449-1-1 0-.551.449-1 1-1 .551 0 1 .449 1 1 0 .551-.449 1-1 1zm-9.269-2a2 2 0 0 0-3.462 0H1.5a.5.5 0 0 1-.5-.5v-8a.5.5 0 0 1 .5-.5h10a.5.5 0 0 1 .5.5v8.5H6.731zm-1.731 2c-.551 0-1-.449-1-1 0-.551.449-1 1-1 .551 0 1 .449 1 1 0 .551-.449 1-1 1zm13.69-6H16v-1h2.49l.2 1zm1.104.421l-.004-.021-.001-.004-.399-1.996-.001-.004-.203-1.014C19.031 5.608 18.29 5 17.5 5h-4c-.175 0-.343.031-.5.086V4.5c0-.827-.673-1.5-1.5-1.5h-10C.673 3 0 3.673 0 4.5v8c0 .827.673 1.5 1.5 1.5H3c0 1.103.897 2 2 2s2-.897 2-2h5.086c.206.582.762 1 1.414 1h.769a2 2 0 0 0 3.462 0h.769c.827 0 1.5-.673 1.5-1.5v-2c0-.579-.092-1.511-.206-2.079v.001z"/>
</svg>
