<svg xmlns="http://www.w3.org/2000/svg" width="14" height="14" viewBox="0 0 14 14">
    <path fill="#000" fill-rule="evenodd" d="M12.878 3.06l-.628.627-1.955-1.955.627-.627C11.182.844 11.53.7 11.9.7c.369 0 .716.144.976.405.261.26.405.608.405.977s-.144.716-.405.977h.002zm-8.87 8.87L.934 13.047l1.117-3.072L9.8 2.227l1.955 1.956-7.748 7.747zM13.372.61A2.067 2.067 0 0 0 11.9 0c-.556 0-1.079.216-1.472.61L1.503 9.535a.33.33 0 0 0-.082.128l-1.4 3.85a.347.347 0 0 0 .33.469c.039 0 .08-.007.118-.021l3.85-1.4a.35.35 0 0 0 .129-.081l8.925-8.925c.394-.394.61-.917.61-1.473 0-.557-.216-1.08-.61-1.473z"/>
</svg>
