<svg xmlns="http://www.w3.org/2000/svg" width="20" height="20" viewBox="0 0 20 20">
    <path fill="#212121" fill-rule="evenodd" d="M5.526 2.059c-2.466 0-4.473 2.019-4.473 4.5 0 3.219 2.473 6.143 4.548 8.031A29.206 29.206 0 0 0 10 17.859a29.206 29.206 0 0 0 4.399-3.269c2.075-1.887 4.548-4.812 4.548-8.031 0-2.481-2.007-4.5-4.473-4.5-1.793 0-3.534 1.483-3.975 2.814a.527.527 0 0 1-.499.362.527.527 0 0 1-.499-.362C9.06 3.543 7.32 2.06 5.526 2.06zM10 19a.524.524 0 0 1-.256-.067c-.099-.055-2.448-1.377-4.833-3.544-1.412-1.28-2.538-2.592-3.351-3.896C.524 9.83 0 8.169 0 6.559 0 3.494 2.479 1 5.526 1c1.032 0 2.128.389 3.086 1.095.56.413 1.036.91 1.388 1.439a5.832 5.832 0 0 1 1.388-1.44C12.346 1.39 13.442 1 14.474 1 17.52 1 20 3.494 20 6.559c0 1.61-.525 3.27-1.56 4.934-.812 1.304-1.939 2.615-3.35 3.896-2.385 2.167-4.734 3.49-4.833 3.544A.524.524 0 0 1 10 19H10z"/>
</svg>
