<svg xmlns="http://www.w3.org/2000/svg" width="114" height="18" viewBox="0 0 114 18">
    <g fill="#000" fill-rule="evenodd">
        <path d="M42.918 17.525c-.989 0-1.916.013-2.841-.015-.116-.004-.3-.204-.327-.338-.45-2.167-.876-4.338-1.312-6.507-.119-.59-.138-.595-.82-.445v7.275h-3.125V.435c.02-.017.044-.055.068-.055 1.582.026 3.173-.04 4.743.108 1.997.188 3.225 1.488 3.518 3.491.209 1.424.158 2.83-.522 4.134a3.31 3.31 0 0 1-.833 1.036c-.314.251-.327.48-.25.813.552 2.39 1.096 4.783 1.642 7.175.024.108.034.219.06.388zm-5.274-9.914c1.074.163 1.683-.197 1.99-1.168.232-.735.234-1.49.063-2.235-.241-1.05-.962-1.49-2.053-1.273V7.61zM49.328 17.526V.431c.048-.024.09-.063.13-.062 1.294.028 2.595-.011 3.881.105 2.164.196 3.647 1.544 4.058 3.807.566 3.119.585 6.274.006 9.392-.48 2.582-2.138 3.847-4.743 3.853-1.102.002-2.203 0-3.332 0zm3.12-14.442V14.84c.64.041 1.199-.127 1.496-.678.244-.452.456-.983.473-1.486.078-2.341.101-4.685.1-7.028 0-.485-.132-.988-.297-1.45-.285-.798-.952-1.19-1.771-1.115zM64.988 12.038h-1.197V9.553h3.75v7.96c-.423 0-.889.129-1.192-.038-.274-.15-.37-.627-.597-1.06-.054.1-.089.193-.147.267-1.47 1.87-4.08 1.268-5.136-.124-.71-.935-1.09-2-1.26-3.135-.487-3.25-.51-6.495.326-9.7.286-1.098.786-2.083 1.625-2.899 1.286-1.25 4.751-1.136 5.692 1.29.427 1.1.554 2.236.573 3.396.005.317 0 .634 0 .977h-2.808c0-.637.04-1.274-.013-1.903-.038-.44-.177-.877-.32-1.298-.12-.358-.42-.65-.788-.576-.264.053-.618.317-.688.558-.252.87-.53 1.766-.563 2.66-.08 2.166-.055 4.336-.013 6.504.013.63.176 1.27.361 1.878.197.646.61.924 1.101.898.457-.024.86-.356.99-.97.148-.696.2-1.414.304-2.2M8.172 5.256H5.336c-.09-.54-.141-1.067-.269-1.573-.173-.687-.64-1.055-1.169-.998-.544.057-.954.548-1.032 1.223-.081.693.09 1.328.547 1.837.513.57 1.064 1.11 1.639 1.617 1.143 1.01 2.34 1.976 2.961 3.426.784 1.83.75 3.66-.354 5.34-1.04 1.582-2.64 1.951-4.401 1.628-1.781-.327-2.536-1.649-2.874-3.278C.257 13.87.23 13.24.152 12.57H2.93c.068.446.11.907.212 1.353.221.973.735 1.412 1.433 1.27.739-.149 1.27-1.019 1.148-1.871-.12-.844-.596-1.478-1.203-2.026-.903-.816-1.859-1.578-2.721-2.435C.016 7.088-.45 4.483.557 2.282 1.271.72 2.56-.018 4.45.057 5.938.116 7.081.953 7.596 2.52c.28.854.38 1.77.576 2.736M79.76 12.526c.063.487.092.935.183 1.37.203.972.707 1.419 1.418 1.305.74-.118 1.25-.913 1.17-1.798-.08-.897-.59-1.548-1.213-2.12-.886-.813-1.83-1.564-2.681-2.41-1.774-1.767-2.246-4.323-1.271-6.532.71-1.609 1.984-2.355 3.9-2.284 1.508.056 2.625.917 3.182 2.494a7.43 7.43 0 0 1 .422 2.704h-2.734c-.044-.44-.074-.883-.139-1.32a2.328 2.328 0 0 0-.2-.638c-.187-.397-.514-.617-.954-.613-.439.004-.769.222-.954.62-.339.725-.296 1.46.14 2.112.326.488.742.923 1.16 1.338.966.958 2.06 1.805 2.916 2.851 1.413 1.728 1.632 3.735.783 5.801-.745 1.814-2.437 2.671-4.557 2.408-1.612-.2-2.815-1.466-3.125-3.322a14.01 14.01 0 0 1-.162-1.627c-.005-.108.169-.32.265-.324.812-.026 1.626-.015 2.451-.015M16.867 17.504H9.715V.39h7.043c0 .813.014 1.597-.018 2.378-.003.092-.253.245-.39.248-1.008.024-2.016.016-3.024.018h-.508V7.39h2.862v2.79h-2.865v4.68h4.052v2.643M72.342 10.191v4.67h4.057v2.626h-7.15V.402h6.999v2.62h-3.895v4.369h2.823v2.8h-2.834M26.294.374h6.888v2.64h-3.78v4.572h2.796v2.778h-2.805v7.132h-3.1V.374M21.251 14.865h3.977v2.62h-7.052V.4h3.075v14.465M44.396.384h3.09v17.105h-3.09V.384M102.524 6.72c-.09-.938-.147-1.818-.27-2.689-.062-.433-.166-.978-.726-.993-.545-.014-.664.527-.726.935-.161 1.06-.348 2.13-.35 3.196-.006 2.022.099 4.045.186 6.066.016.377.12.767.27 1.114.096.219.35.508.538.511.229.004.577-.21.668-.419.214-.491.352-1.03.433-1.562.093-.613.092-1.24.133-1.887h2.932c-.067 1.84-.038 3.67-1.046 5.312-1.227 2-4.806 2.174-6.24-.034-.72-1.107-1.063-2.336-1.222-3.616-.31-2.497-.335-5 .071-7.493.181-1.112.483-2.19 1.054-3.177.857-1.485 2.137-2.107 3.82-1.912 1.55.18 2.519 1.076 3.015 2.527.453 1.327.5 2.7.46 4.121h-3zm2.618-.375c.042-1.267-.05-2.476-.462-3.64-.458-1.292-1.338-2.087-2.726-2.245-1.517-.173-2.71.403-3.372 1.766a12.28 12.28 0 0 0-1.003 3.037c-.456 2.4-.38 4.83-.1 7.246.138 1.183.44 2.327 1.064 3.37 1.298 2.168 4.373 1.905 5.456.496 1.142-1.485 1.152-3.232 1.227-4.989h-2.165c-.042.54-.036 1.059-.134 1.557a9.318 9.318 0 0 1-.506 1.739c-.168.407-.56.6-1.024.572-.45-.027-.675-.335-.828-.702a3.362 3.362 0 0 1-.23-.782c-.435-2.908-.393-5.828-.136-8.745.053-.608.295-1.207.502-1.792.13-.366.419-.598.847-.587.424.01.68.258.844.61.108.231.214.477.248.725.107.774.18 1.552.27 2.364h2.228zM96.628 17.5c-1.307.085-2.03-.17-3.372-1.162-.18.165-.356.346-.55.505-1.223 1-2.605 1.333-4.082.749-1.498-.593-2.192-1.865-2.397-3.403-.259-1.946.452-3.633 1.666-5.065.637-.75.686-1.316.247-2.164-.673-1.302-.964-2.724-.665-4.2.372-1.836 1.968-2.896 4.004-2.694 1.618.16 2.846 1.615 2.928 3.35.075 1.577-.557 2.826-1.57 3.951-.809.898-.799.909-.224 1.994.209.395.425.786.747 1.18l.464-2.3 2.345.507a16.72 16.72 0 0 1-.894 3.954c-.121.336-.377.827-.245 1.007.283.387.748.679 1.195.89.295.14.42.247.41.576-.023.766-.007 1.533-.007 2.325zm-3.146-5.985l-.151.02c-.424-.806-.863-1.604-1.268-2.42-.465-.935-.455-.945.236-1.72.764-.856 1.482-1.74 1.657-2.925.194-1.31-.005-2.523-1.094-3.398-1.026-.824-2.194-.826-3.35-.323-1.185.515-1.683 1.525-1.744 2.768-.065 1.334.3 2.59.914 3.745.38.715.292 1.167-.235 1.776-1.226 1.415-2.05 3.042-1.837 5.002.156 1.443.766 2.648 2.193 3.188 1.415.536 2.7.197 3.798-.846l.692-.656c.757.895 1.695 1.417 2.953 1.386 0-.59-.011-1.148.006-1.706.008-.247-.1-.333-.3-.46a7.733 7.733 0 0 1-1.254-.997c-.12-.118-.13-.44-.073-.634.164-.568.425-1.11.579-1.68.228-.842.396-1.7.596-2.58l-1.62-.338-.698 2.798zM106.344 5.373c.028-1.167.13-2.312.602-3.394.554-1.269 1.53-1.894 2.9-1.895 1.373 0 2.354.63 2.897 1.9.625 1.46.648 3.002.52 4.546a8.432 8.432 0 0 1-.393 1.924c-.497 1.508-1.57 2.248-3.1 2.229-1.447-.018-2.494-.81-2.978-2.277a6.473 6.473 0 0 1-.287-1.165c-.082-.619-.11-1.245-.161-1.868zm.34-.201c.112.959.147 1.717.298 2.45.252 1.219.783 2.265 2.128 2.58 1.71.399 3.063-.48 3.52-2.263.374-1.453.383-2.924.158-4.396-.13-.849-.382-1.668-1.004-2.301-1.426-1.452-3.93-.827-4.589 1.201-.302.93-.37 1.938-.51 2.729zM112.561 11.62c.543.666.558.68.007 1.286-.288.316-.61.624-.97.848-.74.461-1.512.457-2.26-.023-.108-.069-.212-.144-.32-.214-.834-.54-1.17-.513-2.055.193l-.474-.636c.469-.761 1.007-1.408 1.848-1.714.736-.269 1.402-.096 2.04.336 1.002.68 1.25.662 2.184-.076zm-5.597 1.603c.805-.69 1.53-.56 2.251-.032.167.122.346.233.532.325.984.488 2.605-.291 2.787-1.399-.824.725-1.582.492-2.326-.066a2.597 2.597 0 0 0-.452-.27c-.966-.452-2.517.298-2.792 1.442z"/>
        <path d="M90.008 10.289c.193.352.384.696.572 1.041.474.871.938 1.748 1.427 2.61.14.249.121.42-.057.634-.813.976-1.894.907-2.555-.175-.85-1.39-.609-3.106.613-4.11zm-.077.64c-.848.927-.826 2.749-.006 3.578.506.512 1.222.483 1.605-.083.072-.106.105-.313.05-.417-.53-1.02-1.082-2.027-1.65-3.078zM90.755 6.503c-.405-.942-.831-1.88-.786-2.944a2.2 2.2 0 0 1 .096-.565c.14-.443.442-.699.92-.7.468-.003.87.217.943.663.094.569.165 1.206 0 1.736-.207.666-.664 1.253-1.014 1.873l-.16-.063zm-.022-.748l.186.003c.543-.653.888-1.378.78-2.266-.062-.51-.341-.825-.717-.808-.37.017-.666.357-.615.877.073.737.24 1.464.366 2.194zM110.836 5.447c-.072.845-.138 1.691-.22 2.536-.016.172-.042.38-.145.499-.163.187-.403.442-.597.43-.224-.012-.57-.246-.623-.448-.172-.644-.305-1.316-.322-1.98-.03-1.17.032-2.34.068-3.51.006-.19.059-.382.118-.564.111-.342.31-.605.711-.598.378.005.615.244.67.578.124.772.202 1.553.284 2.33.025.24.004.482.004.723.017 0 .035.002.052.004zm-1.588.007c.062.72.113 1.584.226 2.44.03.23.248.436.38.653.13-.215.345-.418.378-.648a16.745 16.745 0 0 0-.006-4.934c-.04-.264-.264-.5-.402-.75-.148.262-.39.513-.424.79-.095.761-.102 1.534-.152 2.45z"/>
    </g>
</svg>
