<?xml version="1.0" standalone="no"?>
<!DOCTYPE svg PUBLIC "-//W3C//DTD SVG 1.1//EN" "http://www.w3.org/Graphics/SVG/1.1/DTD/svg11.dtd" >
<svg xmlns="http://www.w3.org/2000/svg" xmlns:xlink="http://www.w3.org/1999/xlink" version="1.1">
<metadata></metadata>
<defs>
<font id="avalon_mediumbold" horiz-adv-x="1030" >
<font-face units-per-em="2048" ascent="1536" descent="-512" />
<missing-glyph horiz-adv-x="514" />
<glyph unicode="&#xfb01;" horiz-adv-x="1120" d="M16 797v233h115v53q0 158 96 238q52 43 121.5 61.5t175.5 18.5h45v-234h-34q-44 0 -69.5 -26t-25.5 -70v-41h129v-233h-129v-797h-309v797h-115zM709 0v1030h309v-1030h-309zM709 1139v233h309v-233h-309z" />
<glyph unicode="&#xfb02;" horiz-adv-x="1120" d="M16 797v233h115v53q0 158 96 238q52 43 121.5 61.5t175.5 18.5h45v-234h-34q-44 0 -69.5 -26t-25.5 -70v-41h129v-233h-129v-797h-309v797h-115zM709 0v1372h309v-1372h-309z" />
<glyph unicode="&#xfb03;" horiz-adv-x="1697" d="M16 797v233h115v53q0 158 96 238q52 43 121.5 61.5t175.5 18.5h45v-234h-34q-44 0 -69.5 -26t-25.5 -70v-41h269v53q0 158 96 238q52 43 121.5 61.5t175.5 18.5h45v-234h-35q-44 0 -69 -25t-25 -71v-41h129v-233h-129v-797h-309v797h-269v-797h-309v797h-115zM1286 0 v1030h309v-1030h-309zM1286 1139v233h309v-233h-309z" />
<glyph unicode="&#xfb04;" horiz-adv-x="1697" d="M16 797v233h115v53q0 158 96 238q52 43 121.5 61.5t175.5 18.5h45v-234h-34q-44 0 -69.5 -26t-25.5 -70v-41h269v53q0 158 96 238q52 43 121.5 61.5t175.5 18.5h45v-234h-35q-44 0 -69 -25t-25 -71v-41h129v-233h-129v-797h-309v797h-269v-797h-309v797h-115zM1286 0 v1372h309v-1372h-309z" />
<glyph horiz-adv-x="0" />
<glyph horiz-adv-x="682" />
<glyph unicode=" "  horiz-adv-x="514" />
<glyph unicode="&#x09;" horiz-adv-x="514" />
<glyph unicode="&#xa0;" horiz-adv-x="514" />
<glyph unicode="!" horiz-adv-x="608" d="M143 0v315h320v-315h-320zM143 453v919h320v-919h-320z" />
<glyph unicode="&#x22;" horiz-adv-x="538" d="M53 1372h176l-18 -440h-139zM307 1372h176l-18 -440h-139z" />
<glyph unicode="#" horiz-adv-x="1132" d="M68 430l26 193h185l22 163h-184l28 193h183l43 301h192l-43 -301h176l43 301h191l-43 -301h178l-27 -193h-178l-22 -163h178l-29 -193h-176l-43 -303h-190l40 303h-176l-41 -303h-192l43 303h-184zM471 623h176l23 163h-176z" />
<glyph unicode="$" horiz-adv-x="1132" d="M133 397q0 11 2 19h318q6 -64 34 -97.5t74 -33.5q44 0 75.5 32t31.5 78q0 64 -62 109q-32 23 -56.5 34t-113.5 44q-148 56 -219.5 143.5t-71.5 216.5q0 141 77.5 239t219.5 136v188h250v-188q96 -21 156 -84q55 -55 79.5 -114t24.5 -134q0 -12 -2 -20h-286 q-9 118 -103 118q-43 0 -71.5 -30t-28.5 -74q0 -41 22.5 -71t73.5 -56q28 -15 156 -64q127 -47 199.5 -142.5t72.5 -215.5q0 -129 -79 -230t-214 -145v-194h-250v186q-83 19 -134.5 47.5t-92.5 79.5q-36 45 -59 107.5t-23 115.5z" />
<glyph unicode="%" horiz-adv-x="1646" d="M61 1069q0 140 97 235t239 95q146 0 242 -94.5t96 -237.5t-96.5 -237.5t-243.5 -94.5q-145 0 -239.5 94.5t-94.5 239.5zM276 1069q0 -55 35 -92t88 -37q51 0 86 36.5t35 90.5q0 53 -35 90t-86 37t-87 -36.5t-36 -88.5zM426 0l578 1372h217l-578 -1372h-217zM911 307 q0 140 97 235t239 95q146 0 242 -94.5t96 -237.5t-96.5 -237.5t-243.5 -94.5q-145 0 -239.5 94.5t-94.5 239.5zM1126 307q0 -55 35 -92t88 -37q51 0 86 36.5t35 90.5q0 53 -35 90t-86 37t-87 -36.5t-36 -88.5z" />
<glyph unicode="&#x26;" horiz-adv-x="1357" d="M61 371q0 112 57.5 197.5t196.5 181.5q-129 132 -129 294q0 149 110 252t271 103q154 0 257.5 -96.5t103.5 -241.5q0 -94 -45 -168.5t-146 -144.5l162 -164l100 225h324l-104 -256q-40 -98 -105 -182l189 -193l-209 -205l-164 166q-96 -87 -195 -127.5t-215 -40.5 q-193 0 -326 116t-133 284zM399 403q0 -60 44.5 -98.5t113.5 -38.5q98 0 168 76l-221 221q-58 -45 -81.5 -81.5t-23.5 -78.5zM485 1061q0 -37 17.5 -70.5t60.5 -77.5q54 54 70 82t16 68t-22.5 64t-57.5 24t-59.5 -26t-24.5 -64z" />
<glyph unicode="'" horiz-adv-x="284" d="M53 1372h176l-18 -440h-139z" />
<glyph unicode="(" horiz-adv-x="765" d="M61 514q0 232 101 438t282 344q112 88 267 146v-307q-145 -79 -235.5 -252.5t-90.5 -370.5q0 -192 91.5 -365t234.5 -251v-308q-151 59 -267 146q-181 138 -282 343.5t-101 436.5z" />
<glyph unicode=")" horiz-adv-x="765" d="M55 -104q144 78 235 251.5t91 370.5q0 192 -91.5 364.5t-234.5 252.5v307q151 -59 267 -146q181 -136 282 -343t101 -439q0 -231 -101 -436.5t-282 -343.5q-120 -91 -267 -146v308z" />
<glyph unicode="*" horiz-adv-x="995" d="M90 999l68 203l237 -90l-6 260h221l-12 -260l238 90l71 -203l-243 -75l153 -205l-172 -129l-151 213l-148 -213l-172 129l160 205z" />
<glyph unicode="+" horiz-adv-x="1132" d="M86 569v234h365v364h233v-364h363v-234h-363v-362h-233v362h-365z" />
<glyph unicode="," horiz-adv-x="538" d="M111 0v315h319v-389q0 -101 -51.5 -163t-136.5 -62h-131v166h63q35 0 57.5 19.5t22.5 50.5v63h-143z" />
<glyph unicode="-" horiz-adv-x="522" d="M0 397v260h522v-260h-522z" />
<glyph unicode="." horiz-adv-x="538" d="M111 0v315h319v-315h-319z" />
<glyph unicode="/" horiz-adv-x="868" d="M-39 -344l537 1716h303l-539 -1716h-301z" />
<glyph unicode="0" horiz-adv-x="1132" d="M53 487v398q0 203 123 338q74 80 181 128t212 48q121 0 239 -63t189 -165q80 -118 80 -286v-398q0 -189 -102 -319q-73 -91 -181.5 -143t-222.5 -52q-118 0 -232 57t-189 154q-45 58 -71 138.5t-26 164.5zM403 485q0 -61 12.5 -96t43.5 -63q43 -43 106 -43q68 0 117 49 q26 26 35.5 58.5t9.5 94.5v402q0 62 -9.5 94.5t-35.5 58.5q-50 50 -117 50q-63 0 -106 -43q-31 -28 -43.5 -63.5t-12.5 -96.5v-402z" />
<glyph unicode="1" horiz-adv-x="1132" d="M215 1077v295h576v-1372h-351v1077h-225z" />
<glyph unicode="2" horiz-adv-x="1132" d="M72 872q3 112 20.5 180.5t59.5 135.5q65 100 177.5 156.5t248.5 56.5q201 0 333.5 -115t132.5 -287q0 -234 -213 -469q-84 -94 -243 -235h465v-295h-969v272q160 104 220.5 149.5t133.5 115.5q121 120 188.5 230t67.5 191q0 59 -36.5 96.5t-94.5 37.5q-75 0 -113 -53 t-44 -167h-334z" />
<glyph unicode="3" horiz-adv-x="1126" d="M47 408h354q30 -125 158 -125q68 0 110 37.5t42 97.5q0 38 -19 70t-51 49q-40 18 -117 18h-123v258h60q83 0 127.5 41t44.5 117q0 54 -26.5 86.5t-69.5 32.5q-103 0 -109 -117h-346q5 192 133.5 309t337.5 117q183 0 306.5 -107.5t123.5 -267.5q0 -191 -182 -289 q127 -43 193.5 -126.5t66.5 -202.5q0 -118 -68.5 -218t-186 -157.5t-255.5 -57.5q-141 0 -259 55.5t-177 149.5q-57 92 -68 230z" />
<glyph unicode="4" horiz-adv-x="1132" d="M20 242v256l615 874h326v-856h151v-274h-151v-242h-336v242h-605zM371 516h276v430z" />
<glyph unicode="5" horiz-adv-x="1132" d="M35 369h354q63 -88 160 -88q75 0 130.5 54.5t55.5 127.5q0 77 -53.5 128.5t-134.5 51.5q-127 0 -178 -117l-283 70l117 776h760v-295h-490l-31 -186q78 41 187 41q214 0 342 -152q54 -64 84 -145.5t30 -163.5q0 -95 -40 -189t-111 -165q-146 -146 -375 -146 q-204 0 -346.5 108t-177.5 290z" />
<glyph unicode="6" horiz-adv-x="1132" d="M27 500q0 84 34.5 182t94.5 188l340 502h407l-303 -418q61 9 86 9q179 0 298.5 -134t119.5 -333q0 -225 -153 -374t-384 -149q-132 0 -242.5 53.5t-187.5 153.5q-110 147 -110 320zM373 473q0 -80 54.5 -135t135.5 -55q80 0 135.5 53t55.5 131t-55.5 132t-137.5 54 q-79 0 -133.5 -52.5t-54.5 -127.5z" />
<glyph unicode="7" horiz-adv-x="1132" d="M125 1077v295h895v-270l-483 -1102h-385l505 1077h-532z" />
<glyph unicode="8" horiz-adv-x="1132" d="M66 414q0 118 57 208.5t158 133.5q-72 59 -104 118.5t-32 137.5q0 167 119 277t301 110q179 0 298.5 -109t119.5 -272q0 -81 -31.5 -143.5t-99.5 -118.5q101 -43 158 -133.5t57 -208.5q0 -120 -67 -222t-181.5 -161.5t-249.5 -59.5q-136 0 -252 59.5t-183.5 161.5 t-67.5 222zM416 440q0 -69 44 -114t111 -45q59 0 102.5 46t43.5 109q0 66 -44.5 112t-107.5 46t-106 -44t-43 -110zM438 985q0 -53 35.5 -88t89.5 -35q53 0 90 37.5t37 91.5q0 51 -36.5 87t-86.5 36q-54 0 -91.5 -37.5t-37.5 -91.5z" />
<glyph unicode="9" horiz-adv-x="1132" d="M29 889q0 144 69.5 261t192 184t272.5 67q237 0 390 -152t153 -387q0 -96 -21 -166t-75 -153l-351 -543h-399l309 426q-48 -14 -92 -14q-138 0 -235 63q-95 58 -154 173t-59 241zM379 909q0 -77 55 -132.5t131 -55.5q80 0 135.5 54t55.5 132q0 76 -56.5 130.5 t-134.5 54.5q-75 0 -130.5 -54.5t-55.5 -128.5z" />
<glyph unicode=":" horiz-adv-x="538" d="M111 0v315h319v-315h-319zM111 715v315h319v-315h-319z" />
<glyph unicode=";" horiz-adv-x="538" d="M111 0v315h319v-389q0 -101 -51.5 -163t-136.5 -62h-131v166h63q35 0 57.5 19.5t22.5 50.5v63h-143zM111 715v315h319v-315h-319z" />
<glyph unicode="&#x3c;" d="M70 555v281l893 477v-334l-537 -285l535 -284l2 -334z" />
<glyph unicode="=" horiz-adv-x="1132" d="M86 406v219h961v-219h-961zM86 750v219h961v-219h-961z" />
<glyph unicode="&#x3e;" d="M70 76v336l536 284l-534 285l-2 332l893 -477v-283z" />
<glyph unicode="?" horiz-adv-x="1019" d="M27 905v35q0 200 137.5 329.5t349.5 129.5q187 0 315.5 -113.5t128.5 -279.5q0 -105 -53 -191q-25 -41 -54 -73.5t-101 -100.5q-82 -75 -111.5 -117t-32.5 -88h-319q-1 78 41.5 150.5t148.5 175.5q68 65 96.5 112.5t28.5 92.5q0 55 -27.5 84.5t-78.5 29.5 q-67 0 -96 -40.5t-31 -135.5h-342zM287 0v315h319v-315h-319z" />
<glyph unicode="@" horiz-adv-x="1544" d="M82 526q0 200 96 366t263 261.5t368 95.5q185 0 334.5 -78.5t234 -217.5t84.5 -312q0 -124 -48 -236t-128 -178.5t-168 -66.5q-55 0 -101.5 30t-60.5 74q-39 -55 -107.5 -88t-141.5 -33q-127 0 -212 94.5t-85 235.5q0 167 109 292.5t255 125.5q66 0 108.5 -19.5 t92.5 -72.5l14 71l185 -2l-78 -403q-13 -70 -13 -88q0 -62 43 -62q63 0 116.5 103t53.5 223q0 194 -134.5 317t-346.5 123q-154 0 -281 -73t-199.5 -201.5t-72.5 -284.5q0 -109 40 -210.5t112 -176.5q73 -75 170 -110t231 -35q211 0 389 71l43 -170q-195 -69 -430 -69 q-324 0 -518 188q-103 97 -160 232.5t-57 283.5zM618 481q0 -67 37 -108t97 -41q69 0 121.5 65.5t52.5 153.5q0 66 -35 106.5t-92 40.5q-72 0 -126.5 -65t-54.5 -152z" />
<glyph unicode="A" horiz-adv-x="1359" d="M-6 0l551 1372h276l545 -1372h-379l-67 199h-476l-73 -199h-377zM539 477h288l-143 469z" />
<glyph unicode="B" horiz-adv-x="1187" d="M117 0v1372h424q166 0 249.5 -16.5t139.5 -59.5q60 -46 95.5 -122.5t35.5 -161.5q0 -88 -41.5 -159.5t-118.5 -115.5q227 -74 227 -319q0 -181 -127 -299q-75 -71 -166.5 -95t-281.5 -24h-436zM453 309h165q85 0 130 33.5t45 97.5q0 28 -13 54t-35 41q-39 24 -127 24 h-165v-250zM453 852h125q75 0 111 26t36 83q0 60 -47 86q-18 10 -36.5 13t-63.5 3h-125v-211z" />
<glyph unicode="C" horiz-adv-x="1515" d="M59 690q0 195 95 358t260.5 257t363.5 94q167 0 310.5 -66t246.5 -190q119 -146 142 -291h-367q-41 111 -130.5 175.5t-203.5 64.5q-155 0 -260.5 -115.5t-105.5 -284.5q0 -173 106.5 -291t261.5 -118q218 0 332 231h367q-39 -160 -139 -283t-245 -190.5t-311 -67.5 q-198 0 -364.5 95.5t-262.5 260.5t-96 361z" />
<glyph unicode="D" horiz-adv-x="1363" d="M117 0v1372h463q198 0 319 -41.5t219 -142.5q187 -193 187 -496q0 -170 -57 -309t-165 -233q-91 -78 -192.5 -114t-233.5 -36h-540zM467 309h151q135 0 209 58q59 43 93 127t34 186q0 98 -29 180t-81 129q-80 74 -223 74h-154v-754z" />
<glyph unicode="E" horiz-adv-x="964" d="M117 0v1372h764v-309h-428v-211h413v-309h-413v-234h428v-309h-764z" />
<glyph unicode="F" horiz-adv-x="913" d="M117 0v1372h749v-309h-413v-232h399v-309h-399v-522h-336z" />
<glyph unicode="G" horiz-adv-x="1579" d="M59 690q0 147 59.5 284.5t164.5 233.5q95 88 233.5 139.5t278.5 51.5q155 0 298 -63t244.5 -174t141.5 -249h-394q-46 86 -124 132.5t-177 46.5q-158 0 -270 -115q-104 -107 -104 -270q0 -91 28.5 -174.5t79.5 -137.5q51 -53 129.5 -83.5t161.5 -30.5q117 0 197.5 58.5 t105.5 160.5h-407v280h815l2 -71v-21q0 -142 -52 -270q-55 -137 -154 -234.5t-236.5 -154t-291.5 -56.5q-201 0 -368.5 95t-264 260t-96.5 362z" />
<glyph unicode="H" horiz-adv-x="1382" d="M117 0v1372h350v-514h448v514h351v-1372h-351v549h-448v-549h-350z" />
<glyph unicode="I" horiz-adv-x="583" d="M117 0v1372h350v-1372h-350z" />
<glyph unicode="J" horiz-adv-x="1038" d="M0 440h373q5 -84 29.5 -120.5t78.5 -36.5q46 0 76 34q17 22 23 49.5t6 88.5v917h350v-831q0 -157 -18 -240.5t-66 -146.5q-63 -83 -168 -132t-221 -49q-125 0 -234 54.5t-166 146.5q-63 101 -63 266z" />
<glyph unicode="K" horiz-adv-x="1241" d="M117 0v1372h350v-618l391 618h369l-455 -684l483 -688h-409l-379 594v-594h-350z" />
<glyph unicode="L" horiz-adv-x="901" d="M117 0v1372h350v-1063h405v-309h-755z" />
<glyph unicode="M" horiz-adv-x="1681" d="M117 0v1372h450l275 -903l270 903h453v-1372h-322l10 1032l-297 -1032h-231l-297 1032l12 -1032h-323z" />
<glyph unicode="N" horiz-adv-x="1392" d="M117 0v1372h301l536 -862l-14 862h336v-1372h-305l-531 836l13 -836h-336z" />
<glyph unicode="O" horiz-adv-x="1566" d="M59 696q0 145 56.5 275.5t153 224.5t230.5 149.5t283 55.5q201 0 368 -94.5t263 -259t96 -361.5q0 -196 -96 -360t-262.5 -258.5t-366.5 -94.5q-204 0 -370 94t-260.5 259.5t-94.5 369.5zM410 694q0 -177 108.5 -294t272.5 -117q155 0 261.5 116t106.5 285 q0 172 -108.5 290t-266.5 118t-266 -115t-108 -283z" />
<glyph unicode="P" horiz-adv-x="1189" d="M117 0v1372h448q164 0 259 -23t163 -79q77 -63 119.5 -159t42.5 -206q0 -104 -38 -198t-107 -158q-68 -63 -161.5 -91t-238.5 -28h-151v-430h-336zM453 739h141q119 0 166 39q53 47 53 123q0 39 -17 75t-46 54q-47 33 -168 33h-129v-324z" />
<glyph unicode="Q" horiz-adv-x="1574" d="M59 678q0 198 96 364.5t262 262.5t363 96q153 0 289.5 -56.5t235 -152.5t156 -229.5t57.5 -282.5q0 -106 -27.5 -195.5t-89.5 -183.5q52 -49 151 -49q17 0 29 2v-279q-43 -4 -90 -4q-103 0 -188 29t-132 80q-175 -109 -372 -109q-337 0 -551 234q-189 204 -189 473z M412 743q63 28 104.5 38t91.5 10q132 0 263.5 -76t248.5 -219q28 66 37.5 107.5t9.5 94.5q0 170 -109 282t-276 112q-145 0 -243.5 -93t-126.5 -256zM449 512q43 -103 133.5 -167t193.5 -64q42 0 75 11.5t73 41.5q-153 201 -353 201q-52 0 -122 -23z" />
<glyph unicode="R" horiz-adv-x="1208" d="M117 0v1372h434q173 0 263 -20.5t159 -77.5q79 -64 124.5 -164.5t45.5 -210.5q0 -103 -39 -193t-111 -153q-45 -37 -86 -55.5t-106 -30.5l373 -467h-402l-319 444v-444h-336zM453 684h125q109 0 169 51.5t60 143.5q0 88 -68 143q-31 23 -65 32t-94 9h-127v-379z" />
<glyph unicode="S" horiz-adv-x="1062" d="M29 453h352q0 -86 38 -136.5t103 -50.5q57 0 96 38t39 93q0 57 -41 90q-31 26 -64 41.5t-200 83.5q-146 60 -223.5 158t-77.5 223q0 112 63.5 205.5t174 148t243.5 54.5q112 0 210.5 -42t160.5 -116q46 -56 66 -114.5t26 -155.5h-348q-9 69 -38.5 101t-86.5 32 q-51 0 -86 -31.5t-35 -77.5q0 -50 35 -77q25 -25 57.5 -42.5t192.5 -89.5q172 -78 247 -170t75 -225q0 -197 -128 -309.5t-352 -112.5q-182 0 -304 72.5t-169 210.5q-17 44 -21.5 82.5t-4.5 116.5z" />
<glyph unicode="T" horiz-adv-x="921" d="M14 1063v309h893v-309h-270v-1063h-350v1063h-273z" />
<glyph unicode="U" horiz-adv-x="1259" d="M102 543v829h351v-829q0 -135 43 -197.5t137 -62.5q85 0 131 55q25 29 34 72.5t9 132.5v829h350v-829q0 -152 -31.5 -247.5t-105.5 -172.5q-150 -150 -387 -150q-242 0 -393 148q-77 75 -107.5 168t-30.5 254z" />
<glyph unicode="V" horiz-adv-x="1241" d="M-20 1372h362l276 -962l281 962h363l-463 -1372h-361z" />
<glyph unicode="W" horiz-adv-x="1785" d="M14 1372h357l184 -893l205 893h268l201 -895l188 895h357l-365 -1372h-309l-207 889l-207 -889h-317z" />
<glyph unicode="X" horiz-adv-x="1325" d="M-20 0l479 731l-424 641h397l236 -391l229 391h395l-420 -649l474 -723h-396l-297 485l-282 -485h-391z" />
<glyph unicode="Y" horiz-adv-x="1126" d="M-20 1372h380l205 -551l205 551h377l-408 -872v-500h-350v500z" />
<glyph unicode="Z" horiz-adv-x="942" d="M35 0v231l473 832h-473v309h866v-285l-438 -778h438v-309h-866z" />
<glyph unicode="[" horiz-adv-x="765" d="M123 174v682q0 149 33.5 246.5t111.5 175.5q67 69 137.5 101t202.5 57l33 6v-303q-109 -4 -156 -62t-47 -186v-752q0 -129 47 -186.5t156 -63.5v-301q-128 20 -187 41t-126 70q-109 82 -157 192.5t-48 282.5z" />
<glyph unicode="\" horiz-adv-x="868" d="M70 1372h301l538 -1716h-303z" />
<glyph unicode="]" horiz-adv-x="765" d="M125 -111q109 6 156 63.5t47 186.5v752q0 128 -47 186t-156 62v303q129 -20 187 -41t124 -70q110 -82 158.5 -192.5t48.5 -282.5v-682q0 -149 -33.5 -246.5t-111.5 -175.5q-67 -69 -137.5 -101t-202.5 -57q-4 -2 -33 -6v301z" />
<glyph unicode="^" d="M25 713l303 667h374l304 -667h-297l-195 440l-192 -440h-297z" />
<glyph unicode="_" d="M0 -111h1030v-198h-1030v198z" />
<glyph unicode="`" d="M184 1389l123 188l402 -307l-105 -152z" />
<glyph unicode="a" horiz-adv-x="1292" d="M55 516q0 243 149 397t382 154q227 0 311 -145v108h291v-1030h-291v111q-73 -146 -319 -146q-232 0 -377.5 153.5t-145.5 397.5zM365 518q0 -114 73.5 -189t184.5 -75q112 0 185 74t73 188q0 112 -73.5 186t-186.5 74q-107 0 -181.5 -74.5t-74.5 -183.5z" />
<glyph unicode="b" horiz-adv-x="1271" d="M102 0v1372h310v-424q111 117 297 117q98 0 192.5 -38.5t163.5 -106.5q152 -152 152 -398t-146 -401.5t-375 -155.5q-94 0 -156 30t-147 116v-111h-291zM397 518q0 -114 72.5 -189t181.5 -75q107 0 181.5 76t74.5 186q0 109 -73 184.5t-179 75.5q-108 0 -183 -75 t-75 -183z" />
<glyph unicode="c" horiz-adv-x="1181" d="M55 516q0 152 71.5 278t196.5 198.5t275 72.5q202 0 354 -120t193 -312h-314q-28 67 -87 105t-136 38q-106 0 -174.5 -75t-68.5 -189q0 -112 68.5 -185t174.5 -73q73 0 127 32.5t101 104.5h311q-46 -189 -196 -307.5t-345 -118.5q-114 0 -216 43t-175.5 117t-116.5 176 t-43 215z" />
<glyph unicode="d" horiz-adv-x="1282" d="M53 516q0 236 145.5 392.5t366.5 156.5q183 0 303 -123v430h310v-1372h-291v111q-66 -78 -139.5 -112t-178.5 -34q-224 0 -370 156t-146 395zM362 518q0 -115 73.5 -189.5t187.5 -74.5t189 76t75 190q0 108 -75 182t-185 74q-116 0 -190.5 -73t-74.5 -185z" />
<glyph unicode="e" horiz-adv-x="1189" d="M55 512q0 151 71.5 278.5t194.5 201t269 73.5q232 0 387.5 -161t155.5 -402q0 -34 -9 -84h-770q11 -86 73 -139.5t153 -53.5q59 0 100 17.5t88 64.5l14 15h316q-72 -168 -205.5 -262.5t-298.5 -94.5q-146 0 -270 73t-196.5 199t-72.5 275zM360 625h465q-15 80 -79.5 129 t-153.5 49t-150.5 -46.5t-81.5 -131.5z" />
<glyph unicode="f" horiz-adv-x="606" d="M16 797v233h115v53q0 158 96 238q52 43 121.5 61.5t175.5 18.5h45v-234h-34q-44 0 -69.5 -26t-25.5 -70v-41h129v-233h-129v-797h-309v797h-115z" />
<glyph unicode="g" horiz-adv-x="1275" d="M55 508q0 157 68 284.5t188.5 200t268.5 72.5q192 0 303 -131v96h291v-905q0 -158 -12.5 -222t-53.5 -126q-74 -109 -213.5 -172.5t-306.5 -63.5q-209 0 -349.5 100t-162.5 263h354q44 -103 182 -103q60 0 113.5 25.5t87.5 69.5q49 63 49 184v33q-32 -63 -120.5 -105.5 t-188.5 -42.5q-136 0 -250.5 72.5t-181 197.5t-66.5 273zM365 520q0 -115 70.5 -190.5t176.5 -75.5q110 0 181 72t71 184q0 117 -70.5 191.5t-179.5 74.5q-104 0 -176.5 -74.5t-72.5 -181.5z" />
<glyph unicode="h" horiz-adv-x="1153" d="M102 0v1372h310v-436q75 129 268 129q173 0 281 -111q56 -60 76 -139.5t20 -239.5v-575h-309v561q0 215 -164 215q-37 0 -73 -15t-58 -38q-23 -25 -32 -58.5t-9 -93.5v-571h-310z" />
<glyph unicode="i" horiz-adv-x="514" d="M102 0v1030h310v-1030h-310zM102 1139v233h310v-233h-310z" />
<glyph unicode="j" horiz-adv-x="514" d="M-47 -143h41q61 0 84.5 33.5t23.5 121.5v1018h310v-1005q0 -227 -83 -314.5t-300 -87.5h-76v234zM102 1139v233h310v-233h-310z" />
<glyph unicode="k" horiz-adv-x="1052" d="M102 0v1372h310v-715l288 373h365l-387 -452l377 -578h-350l-293 496v-496h-310z" />
<glyph unicode="l" horiz-adv-x="514" d="M102 0v1372h310v-1372h-310z" />
<glyph unicode="m" horiz-adv-x="1779" d="M102 0v1030h291v-108q52 75 120 109t163 34q200 0 299 -184q113 184 325 184q161 0 269 -102q69 -66 90.5 -144.5t21.5 -257.5v-561h-309v547q0 72 -7.5 109t-27.5 65q-17 25 -50 40t-68 15q-75 0 -123 -51q-45 -50 -45 -164v-561h-310v561q0 215 -157 215 q-84 0 -128 -55t-44 -160v-561h-310z" />
<glyph unicode="n" horiz-adv-x="1153" d="M102 0v1030h291v-108q57 78 121.5 110.5t161.5 32.5q171 0 278 -104q58 -55 80.5 -124.5t22.5 -193.5v-643h-309v561q0 108 -31 152q-19 29 -54.5 46t-76.5 17q-45 0 -84 -19t-62 -52q-17 -25 -22.5 -50.5t-5.5 -79.5v-575h-310z" />
<glyph unicode="o" horiz-adv-x="1224" d="M55 518q0 109 43 213t119 180q71 72 174.5 113t218.5 41q272 0 432 -195q125 -156 125 -354q0 -112 -42 -215.5t-119 -181.5q-151 -154 -398 -154q-119 0 -222 41.5t-175.5 114t-114 175.5t-41.5 222zM365 518q0 -114 70.5 -189t176.5 -75q105 0 175.5 75t70.5 187 q0 107 -72.5 183.5t-173.5 76.5q-103 0 -175 -75.5t-72 -182.5z" />
<glyph unicode="p" horiz-adv-x="1284" d="M102 -344v1374h291v-112q60 77 138 112t188 35q218 0 356 -150q69 -75 108.5 -184t39.5 -225q0 -151 -65.5 -275.5t-181 -195t-255.5 -70.5q-189 0 -309 129v-438h-310zM397 518q0 -109 76 -186.5t184 -77.5q107 0 181.5 76t74.5 186t-74.5 185t-183.5 75 q-115 0 -186 -80q-32 -35 -52 -84.5t-20 -93.5z" />
<glyph unicode="q" horiz-adv-x="1282" d="M53 496q0 249 146.5 409t373.5 160q103 0 178.5 -35.5t135.5 -111.5v112h291v-1374h-310v448q-66 -74 -140.5 -106.5t-176.5 -32.5q-214 0 -356 152t-142 379zM362 518q0 -114 75 -189t188 -75q106 0 182 76.5t76 183.5q0 110 -76 186t-186 76q-107 0 -183 -75.5 t-76 -182.5z" />
<glyph unicode="r" horiz-adv-x="665" d="M102 0v1030h291v-108q26 45 50 69t61 43q67 31 139 31h8v-309q-133 -3 -188 -45.5t-55 -141.5v-569h-306z" />
<glyph unicode="s" horiz-adv-x="917" d="M31 305h307q12 -94 117 -94q44 0 75 23t31 57t-26 57q-29 23 -63.5 34.5t-211.5 57.5q-95 25 -157 105t-62 180q0 142 121 241t295 99q204 0 313 -137q32 -41 47 -82t21 -105h-301q-4 40 -25.5 58t-62.5 18q-44 0 -71.5 -18t-27.5 -47q0 -70 160 -113q117 -32 170 -54 t92 -55q98 -82 98 -217q0 -149 -122.5 -249.5t-305.5 -100.5t-305 113q-51 47 -75 98.5t-31 130.5z" />
<glyph unicode="t" horiz-adv-x="604" d="M-20 797v233h151v342h309v-342h148v-233h-148v-797h-309v797h-151z" />
<glyph unicode="u" horiz-adv-x="1157" d="M96 414v616h310v-575q0 -113 43 -156q45 -45 122 -45q83 0 128.5 53t45.5 148v575h310v-1030h-291v111q-41 -76 -106.5 -111t-168.5 -35q-185 0 -299 129q-54 63 -74 131t-20 189z" />
<glyph unicode="v" horiz-adv-x="995" d="M-20 1030h319l199 -643l198 643h320l-371 -1030h-297z" />
<glyph unicode="w" horiz-adv-x="1550" d="M0 1030h317l158 -639l170 639h260l172 -639l156 639h317l-315 -1030h-287l-174 666l-174 -666h-287z" />
<glyph unicode="x" horiz-adv-x="1122" d="M-20 0l391 551l-346 479h368l166 -270l166 270h365l-347 -479l400 -551h-377l-207 319l-211 -319h-368z" />
<glyph unicode="y" horiz-adv-x="1021" d="M-20 1030h327l209 -598l199 598h327l-516 -1374h-327l163 395z" />
<glyph unicode="z" horiz-adv-x="835" d="M35 0v211l434 586h-434v233h766v-235l-404 -562h404v-233h-766z" />
<glyph unicode="{" horiz-adv-x="636" d="M0 418v192q58 19 81 53.5t23 100.5v326q0 158 71.5 222t246.5 64q5 0 13 -1t29 -2t58 -1h68v-246h-27q-100 0 -127 -24q-20 -15 -25 -35t-5 -84v-219q0 -118 -46 -180q-21 -29 -88 -70l54 -57q47 -49 63.5 -93.5t16.5 -121.5v-195q0 -67 6 -89t28 -36q30 -20 121 -20h29 v-246h-70l-67 -4h-35q-172 0 -243 65.5t-71 225.5v303q0 80 -22 116.5t-82 55.5z" />
<glyph unicode="|" d="M344 -344v1716h340v-1716h-340z" />
<glyph unicode="}" horiz-adv-x="636" d="M47 -98h27q100 0 127 24q20 15 25 35t5 84v219q0 119 45 180q20 28 89 70q-75 79 -90.5 98.5t-24.5 44.5q-19 59 -19 129v195q0 67 -6 89t-28 36q-30 20 -121 20h-29v246h70l67 4h35q172 0 242.5 -65.5t70.5 -225.5v-303q0 -80 22.5 -116.5t82.5 -55.5v-192 q-58 -19 -81.5 -53.5t-23.5 -100.5v-325q0 -158 -71 -222.5t-246 -64.5q-5 0 -13 1t-29 2t-58 1h-68v246z" />
<glyph unicode="~" horiz-adv-x="1372" d="M190 1262q58 148 135 219t177 71q66 0 231 -67q78 -33 103 -41t49 -8q41 0 73 28.5t66 94.5l164 -138q-64 -157 -137.5 -221.5t-186.5 -64.5q-43 0 -83 12t-146 57q-103 43 -146 43q-38 0 -69 -27.5t-68 -93.5z" />
<glyph unicode="&#xa1;" horiz-adv-x="608" d="M143 -344v922h320v-922h-320zM143 715v315h320v-315h-320z" />
<glyph unicode="&#xa2;" horiz-adv-x="1132" d="M109 692q0 155 90 277t241 172v194h244v-188q132 -32 230 -138t112 -231h-321q-43 74 -132 74q-66 0 -112.5 -46t-46.5 -112q0 -65 46 -110t113 -45q73 0 125 63h328q-23 -128 -118.5 -229t-213.5 -121v-195h-254v195q-155 52 -243 169t-88 271z" />
<glyph unicode="&#xa3;" horiz-adv-x="1132" d="M16 526v248h90q-31 57 -42 93.5t-11 80.5q0 122 66.5 226.5t180.5 165.5t247 61q132 0 242.5 -58t173.5 -161q31 -50 45.5 -100t25.5 -140h-323q-15 150 -144 150q-70 0 -117 -48.5t-47 -119.5q0 -41 14.5 -75t49.5 -75h291v-248h-144q35 -40 48.5 -67t13.5 -58 q0 -36 -16 -63.5t-58 -63.5h78q151 0 151 127q0 31 -12 68h297q21 -62 21 -119q0 -81 -41 -153q-111 -197 -365 -197h-659v274h92q90 0 130 23.5t40 77.5q0 50 -35 94l-45 57h-238z" />
<glyph unicode="&#xa4;" horiz-adv-x="1220" d="M76 262l155 158q-86 128 -86 270q0 144 86 264l-151 150l113 113l151 -152q122 86 266 86q147 0 269 -86l155 156l111 -111l-156 -158q84 -124 84 -262q0 -142 -84 -270l152 -152l-113 -112l-149 151q-124 -84 -271 -84q-146 0 -264 84l-156 -155zM367 690 q0 -109 70.5 -185.5t170.5 -76.5q103 0 175.5 76.5t72.5 183.5q0 106 -72.5 182t-173.5 76q-98 0 -170.5 -76t-72.5 -180z" />
<glyph unicode="&#xa5;" horiz-adv-x="1132" d="M23 1372h350l196 -551l197 551h346l-186 -434h121v-215h-213l-70 -164h227v-215h-254v-344h-336v344h-258v215h232l-80 184h-207v215h115z" />
<glyph unicode="&#xa6;" d="M344 315h340v-659h-340v659zM344 641v731h340v-731h-340z" />
<glyph unicode="&#xa7;" horiz-adv-x="1132" d="M57 578q0 169 164 288q-55 80 -55 193q0 152 114.5 246t299.5 94q178 0 294.5 -99.5t122.5 -255.5h-282q-28 101 -154 101q-55 0 -87 -24.5t-32 -65.5q0 -32 23 -55.5t80 -49.5l315 -141q114 -51 164.5 -119t50.5 -168q0 -76 -32 -135t-115 -137q88 -121 88 -244 q0 -166 -121 -271.5t-311 -105.5q-114 0 -218.5 43.5t-168.5 118.5q-46 53 -68.5 109t-28.5 137h283q25 -148 197 -148q65 0 109 32.5t44 78.5q0 42 -32 71.5t-119 69.5l-295 135q-123 57 -176.5 127.5t-53.5 174.5zM317 637q0 -37 21.5 -62.5t71.5 -48.5l348 -159 q63 41 63 106q0 34 -27 60t-92 55l-317 143q-68 -35 -68 -94z" />
<glyph unicode="&#xa8;" d="M162 1182v280h295v-280h-295zM573 1182v280h295v-280h-295z" />
<glyph unicode="&#xa9;" horiz-adv-x="1613" d="M94 694q0 113 36.5 220t103.5 194t155 153t196.5 102t223.5 36q144 0 276 -57t227.5 -152.5t152.5 -227.5t57 -276t-57 -276t-152.5 -227.5t-227.5 -152.5t-276 -57q-195 0 -359.5 96t-260 262t-95.5 363zM188 692q0 -172 83 -318t226 -230.5t312 -84.5q124 0 238.5 50 t197.5 134.5t132.5 200t49.5 240.5q0 169 -83.5 314t-226 230t-308.5 85q-124 0 -238.5 -50t-198.5 -134t-134 -198.5t-50 -238.5zM334 694q0 117 62 215t170.5 154.5t238.5 56.5q169 0 301.5 -96.5t157.5 -237.5h-246q-28 66 -84.5 104t-128.5 38q-100 0 -168 -67t-68 -167 t68 -168.5t168 -68.5q141 0 213 137h246q-38 -149 -163.5 -239.5t-293.5 -90.5q-198 0 -335.5 125t-137.5 305z" />
<glyph unicode="&#xaa;" horiz-adv-x="874" d="M47 860q0 146 97.5 239t252.5 93q136 0 199 -78v55h197v-620h-197v55q-34 -40 -82 -58t-123 -18q-152 0 -248 92t-96 240zM256 862q0 -66 47.5 -109.5t116.5 -43.5q71 0 117.5 43t46.5 110q0 65 -47 107.5t-119 42.5q-68 0 -115 -43.5t-47 -106.5z" />
<glyph unicode="&#xab;" horiz-adv-x="757" d="M70 414v237l239 244v-277l-96 -81l96 -88v-273zM406 414v237l239 244v-277l-96 -81l96 -88v-273z" />
<glyph unicode="&#xac;" d="M70 307v295h893v-602h-328v307h-565z" />
<glyph unicode="&#xad;" horiz-adv-x="522" d="M0 397v260h522v-260h-522z" />
<glyph unicode="&#xae;" horiz-adv-x="1613" d="M94 694q0 113 36.5 220t103.5 194t155 153t196.5 102t223.5 36q144 0 276 -57t227.5 -152.5t152.5 -227.5t57 -276t-57 -276t-152.5 -227.5t-227.5 -152.5t-276 -57q-195 0 -359.5 96t-260 262t-95.5 363zM188 692q0 -172 83 -318t226 -230.5t312 -84.5q124 0 238.5 50 t197.5 134.5t132.5 200t49.5 240.5q0 169 -83.5 314t-226 230t-308.5 85q-124 0 -238.5 -50t-198.5 -134t-134 -198.5t-50 -238.5zM492 289v823h286q113 0 173 -12.5t106 -46.5q51 -38 80.5 -99.5t29.5 -128.5q0 -100 -60.5 -171.5t-158.5 -86.5l244 -278h-270l-203 256 v-256h-227zM719 702h76q69 0 107 29t38 82q0 52 -37 79.5t-106 27.5h-78v-218z" />
<glyph unicode="&#xaf;" d="M184 1221v180h660v-180h-660z" />
<glyph unicode="&#xb0;" horiz-adv-x="788" d="M86 1112q0 122 90.5 209.5t216.5 87.5q129 0 219 -88t90 -213q0 -124 -90.5 -213.5t-216.5 -89.5q-129 0 -219 89t-90 218zM242 1110q0 -63 44.5 -107.5t108.5 -44.5q62 0 107 44.5t45 105.5t-45.5 105t-108.5 44q-62 0 -106.5 -43.5t-44.5 -103.5z" />
<glyph unicode="&#xb1;" horiz-adv-x="1132" d="M86 -70v234h961v-234h-961zM86 569v234h365v364h233v-364h363v-234h-363v-342h-233v342h-365z" />
<glyph unicode="&#xb2;" horiz-adv-x="770" d="M59 1067q3 71 14.5 113t39.5 82q43 60 116 93.5t162 33.5q132 0 219.5 -70t87.5 -174q0 -100 -64.5 -192.5t-223.5 -219.5h295v-184h-637v168q107 64 145.5 90t83.5 67q78 69 122 134.5t44 111.5q0 34 -22.5 55t-57.5 21q-48 0 -71.5 -31t-26.5 -98h-226z" />
<glyph unicode="&#xb3;" horiz-adv-x="765" d="M43 799h240q17 -74 98 -74q41 0 67.5 21t26.5 55q0 78 -117 78h-84v161h43q53 0 81 22.5t28 65.5q0 31 -16 49.5t-43 18.5q-66 0 -66 -70h-233q2 119 86.5 191t222.5 72q121 0 203 -65.5t82 -162.5q0 -113 -113 -170q162 -55 162 -198q0 -107 -98 -184t-236 -77 q-94 0 -173 33.5t-116 89.5q-33 48 -45 144z" />
<glyph unicode="&#xb4;" d="M322 1270l401 307l123 -188l-420 -271z" />
<glyph unicode="&#xb5;" d="M55 -352v1341h285v-510q0 -74 6 -108.5t25 -65.5q51 -88 145 -88q83 0 127.5 69t44.5 199v504h285v-989h-285v129q-29 -77 -72 -113t-106 -36q-57 0 -96.5 28t-73.5 92v-452h-285z" />
<glyph unicode="&#xb6;" horiz-adv-x="1132" d="M41 1008q0 103 43 184.5t119 124.5q96 55 289 55h573v-178h-119v-1387h-184v1387h-164v-1387h-184v850h-25q-155 0 -251.5 97t-96.5 254z" />
<glyph unicode="&#xb7;" horiz-adv-x="538" d="M111 371v315h319v-315h-319z" />
<glyph unicode="&#xb8;" d="M313 -281h129q12 -29 25.5 -40t38.5 -11q31 0 51.5 19.5t20.5 50.5q0 28 -18 45.5t-46 17.5q-29 0 -55 -26l-92 63l77 162h125l-55 -106q30 6 51 6q61 0 105.5 -45.5t44.5 -108.5q0 -88 -57 -142.5t-148 -54.5q-83 0 -135.5 45t-61.5 125z" />
<glyph unicode="&#xb9;" horiz-adv-x="770" d="M152 1188v184h380v-823h-235v639h-145z" />
<glyph unicode="&#xba;" horiz-adv-x="829" d="M49 862q0 138 105 233t260 95q158 0 262 -94.5t104 -235.5q0 -145 -104.5 -238.5t-265.5 -93.5q-157 0 -259 94.5t-102 239.5zM258 862q0 -66 45 -109.5t111 -43.5q67 0 112 43t45 108q0 62 -45.5 106t-111.5 44q-65 0 -110.5 -43.5t-45.5 -104.5z" />
<glyph unicode="&#xbb;" horiz-adv-x="727" d="M82 176v277l96 82l-96 86v274l240 -246v-237zM418 176v277l96 82l-96 86v274l239 -246v-237z" />
<glyph unicode="&#xbc;" horiz-adv-x="1853" d="M152 1188v184h380v-823h-235v639h-145zM543 0l577 1372h189l-576 -1372h-190zM1110 143v158l399 522h220v-508h98v-172h-98v-143h-228v143h-391zM1341 305h185v262z" />
<glyph unicode="&#xbd;" horiz-adv-x="1853" d="M152 1188v184h380v-823h-235v639h-145zM543 0l577 1372h189l-576 -1372h-190zM1143 518q3 71 14.5 113.5t38.5 81.5q43 60 116.5 93.5t162.5 33.5q132 0 219.5 -70t87.5 -174q0 -100 -64.5 -192.5t-224.5 -219.5h295v-184h-637v168q111 68 147.5 93t81.5 65 q78 69 122 134t44 111q0 34 -22.5 55t-57.5 21q-48 0 -71.5 -31t-26.5 -98h-225z" />
<glyph unicode="&#xbe;" horiz-adv-x="1851" d="M43 799h240q17 -74 98 -74q41 0 67.5 21t26.5 55q0 78 -117 78h-84v161h43q53 0 81 22.5t28 65.5q0 31 -16 49.5t-43 18.5q-66 0 -66 -70h-233q2 119 86.5 191t222.5 72q121 0 203 -65.5t82 -162.5q0 -113 -113 -170q162 -55 162 -198q0 -107 -98 -184t-236 -77 q-94 0 -173 33.5t-116 89.5q-33 48 -45 144zM541 0l577 1372h189l-578 -1372h-188zM1106 143v158l401 522h219v-508h99v-172h-99v-143h-227v143h-393zM1339 305h185v262z" />
<glyph unicode="&#xbf;" horiz-adv-x="1019" d="M61 23q0 101 54 192q26 41 56 75t99 97q81 74 110 116.5t34 88.5h319q1 -77 -42 -150.5t-148 -175.5q-68 -65 -96.5 -112.5t-28.5 -92.5q0 -55 27.5 -84.5t78.5 -29.5q68 0 97 40.5t30 137.5h340q2 -14 2 -35q0 -201 -137.5 -331t-349.5 -130q-187 0 -316 114t-129 280z M414 715v315h319v-315h-319z" />
<glyph unicode="&#xc0;" horiz-adv-x="1359" d="M-6 0l551 1372h276l545 -1372h-379l-67 199h-476l-73 -199h-377zM258 1686l104 233l494 -268l-90 -189zM539 477h288l-143 469z" />
<glyph unicode="&#xc1;" horiz-adv-x="1359" d="M-6 0l551 1372h276l545 -1372h-379l-67 199h-476l-73 -199h-377zM524 1651l494 268l104 -233l-506 -224zM539 477h288l-143 469z" />
<glyph unicode="&#xc2;" horiz-adv-x="1359" d="M-6 0l551 1372h276l545 -1372h-379l-67 199h-476l-73 -199h-377zM274 1509l273 310h303l262 -310h-324l-94 131l-92 -131h-328zM539 477h288l-143 469z" />
<glyph unicode="&#xc3;" horiz-adv-x="1359" d="M-6 0l551 1372h276l545 -1372h-379l-67 199h-476l-73 -199h-377zM340 1714q56 47 104 67.5t103 20.5q45 0 83 -8.5t148 -42.5q24 -8 51 -8q34 0 69 12.5t95 46.5l97 -182q-113 -84 -222 -84q-64 0 -239 53q-24 8 -54 8q-59 0 -135 -65zM539 477h288l-143 469z" />
<glyph unicode="&#xc4;" horiz-adv-x="1359" d="M-6 0l551 1372h276l545 -1372h-379l-67 199h-476l-73 -199h-377zM303 1509v310h324v-310h-324zM539 477h288l-143 469zM748 1509v310h323v-310h-323z" />
<glyph unicode="&#xc5;" horiz-adv-x="1359" d="M-6 0l551 1372h276l545 -1372h-379l-67 199h-476l-73 -199h-377zM457 1698q0 97 70.5 165t170.5 68q96 0 165 -69.5t69 -165.5q0 -97 -70 -166.5t-168 -69.5t-167.5 70t-69.5 168zM539 477h288l-143 469zM608 1698q0 -38 25 -64t61 -26q35 0 60.5 26.5t25.5 61.5 q0 37 -25 63.5t-59 26.5q-37 0 -62.5 -25.5t-25.5 -62.5z" />
<glyph unicode="&#xc6;" horiz-adv-x="1767" d="M-55 0l954 1372h782v-309h-428v-211h414v-309h-414v-234h428v-309h-763v229h-400l-149 -229h-424zM662 502h256v372z" />
<glyph unicode="&#xc7;" horiz-adv-x="1515" d="M59 688q0 196 95 359.5t260.5 257.5t363.5 94q167 0 310.5 -66t246.5 -190q119 -146 142 -291h-367q-41 111 -130.5 175.5t-203.5 64.5q-155 0 -260.5 -115.5t-105.5 -284.5q0 -173 106.5 -291t261.5 -118q218 0 332 231h367q-33 -148 -128.5 -269.5t-233.5 -193 t-290 -76.5l-34 -71q24 6 36 6q69 0 115.5 -47t46.5 -117q0 -94 -64.5 -155.5t-162.5 -61.5q-92 0 -146 48.5t-61 139.5h143q23 -53 70 -53q31 0 51.5 20.5t20.5 49.5q0 30 -20 49.5t-50 19.5q-33 0 -59 -30l-105 63l74 144q-177 25 -319 124.5t-222 253t-80 330.5z" />
<glyph unicode="&#xc8;" horiz-adv-x="964" d="M82 1686l104 233l494 -268l-90 -189zM117 0v1372h764v-309h-428v-211h413v-309h-413v-234h428v-309h-764z" />
<glyph unicode="&#xc9;" horiz-adv-x="964" d="M117 0v1372h764v-309h-428v-211h413v-309h-413v-234h428v-309h-764zM336 1651l493 268l105 -233l-506 -224z" />
<glyph unicode="&#xca;" horiz-adv-x="964" d="M86 1509l272 310h304l262 -310h-324l-94 131l-92 -131h-328zM117 0v1372h764v-309h-428v-211h413v-309h-413v-234h428v-309h-764z" />
<glyph unicode="&#xcb;" horiz-adv-x="964" d="M117 0v1372h764v-309h-428v-211h413v-309h-413v-234h428v-309h-764zM121 1509v310h323v-310h-323zM565 1509v310h324v-310h-324z" />
<glyph unicode="&#xcc;" horiz-adv-x="583" d="M-125 1671l105 225l460 -245l-92 -189zM117 0v1372h350v-1372h-350z" />
<glyph unicode="&#xcd;" horiz-adv-x="583" d="M117 0v1372h350v-1372h-350zM158 1651l458 245l105 -225l-473 -209z" />
<glyph unicode="&#xce;" horiz-adv-x="583" d="M-100 1509l252 310h303l241 -310h-311l-86 146l-86 -146h-313zM117 0v1372h350v-1372h-350z" />
<glyph unicode="&#xcf;" horiz-adv-x="583" d="M-31 1509v310h281v-310h-281zM117 0v1372h350v-1372h-350zM348 1509v310h281v-310h-281z" />
<glyph unicode="&#xd0;" horiz-adv-x="1363" d="M0 590v248h117v534h463q198 0 319 -41.5t219 -142.5q187 -193 187 -496q0 -312 -178 -502t-470 -190h-540v590h-117zM467 309h151q132 0 209 58q59 43 93 127t34 186q0 184 -86.5 283.5t-246.5 99.5h-154v-225h254v-248h-254v-281z" />
<glyph unicode="&#xd1;" horiz-adv-x="1392" d="M117 0v1372h301l536 -862l-14 862h336v-1372h-305l-531 836l13 -836h-336zM334 1714q56 47 104 67.5t103 20.5q45 0 83 -8.5t148 -42.5q24 -8 51 -8q34 0 69 12.5t95 46.5l96 -182q-113 -84 -221 -84q-64 0 -239 53q-24 8 -54 8q-59 0 -135 -65z" />
<glyph unicode="&#xd2;" horiz-adv-x="1566" d="M59 696q0 145 56.5 275.5t153 224.5t230.5 149.5t283 55.5q201 0 368 -94.5t263 -259t96 -361.5q0 -196 -96 -360t-262.5 -258.5t-366.5 -94.5q-204 0 -370 94t-260.5 259.5t-94.5 369.5zM340 1686l104 233l494 -268l-90 -189zM410 694q0 -177 108.5 -294t272.5 -117 q155 0 261.5 116t106.5 285q0 172 -108.5 290t-266.5 118t-266 -115t-108 -283z" />
<glyph unicode="&#xd3;" horiz-adv-x="1566" d="M59 696q0 145 56.5 275.5t153 224.5t230.5 149.5t283 55.5q201 0 368 -94.5t263 -259t96 -361.5q0 -196 -96 -360t-262.5 -258.5t-366.5 -94.5q-204 0 -370 94t-260.5 259.5t-94.5 369.5zM410 694q0 -177 108.5 -294t272.5 -117q155 0 261.5 116t106.5 285 q0 172 -108.5 290t-266.5 118t-266 -115t-108 -283zM655 1651l494 268l104 -233l-505 -224z" />
<glyph unicode="&#xd4;" horiz-adv-x="1566" d="M59 696q0 145 56.5 275.5t153 224.5t230.5 149.5t283 55.5q201 0 368 -94.5t263 -259t96 -361.5q0 -196 -96 -360t-262.5 -258.5t-366.5 -94.5q-204 0 -370 94t-260.5 259.5t-94.5 369.5zM373 1509l272 310h303l262 -310h-323l-94 131l-93 -131h-327zM410 694 q0 -177 108.5 -294t272.5 -117q155 0 261.5 116t106.5 285q0 172 -108.5 290t-266.5 118t-266 -115t-108 -283z" />
<glyph unicode="&#xd5;" horiz-adv-x="1566" d="M59 696q0 145 56.5 275.5t153 224.5t230.5 149.5t283 55.5q201 0 368 -94.5t263 -259t96 -361.5q0 -196 -96 -360t-262.5 -258.5t-366.5 -94.5q-204 0 -370 94t-260.5 259.5t-94.5 369.5zM410 694q0 -177 108.5 -294t272.5 -117q155 0 261.5 116t106.5 285 q0 172 -108.5 290t-266.5 118t-266 -115t-108 -283zM451 1714q57 47 104 67.5t102 20.5q45 0 84 -8.5t148 -42.5q24 -8 51 -8q34 0 69 12.5t95 46.5l96 -182q-113 -84 -221 -84q-65 0 -240 53q-24 8 -53 8q-59 0 -135 -65z" />
<glyph unicode="&#xd6;" horiz-adv-x="1566" d="M59 696q0 145 56.5 275.5t153 224.5t230.5 149.5t283 55.5q201 0 368 -94.5t263 -259t96 -361.5q0 -196 -96 -360t-262.5 -258.5t-366.5 -94.5q-204 0 -370 94t-260.5 259.5t-94.5 369.5zM408 1509v310h323v-310h-323zM410 694q0 -177 108.5 -294t272.5 -117 q155 0 261.5 116t106.5 285q0 172 -108.5 290t-266.5 118t-266 -115t-108 -283zM852 1509v310h324v-310h-324z" />
<glyph unicode="&#xd7;" horiz-adv-x="1132" d="M121 403l282 283l-282 283l162 161l282 -282l283 282l162 -161l-283 -283l283 -283l-162 -161l-283 284l-282 -284z" />
<glyph unicode="&#xd8;" horiz-adv-x="1566" d="M59 688q0 200 96 363t265 255.5t377 92.5q86 0 155 -14t158 -48l119 158l198 -154l-118 -155q104 -118 152 -238.5t48 -261.5q0 -140 -51 -267.5t-147 -228.5q-213 -219 -563 -219q-99 0 -164 15.5t-127 52.5l-117 -156l-193 146l119 161q-100 85 -153.5 214t-53.5 284z M406 680q0 -116 67 -221l445 606q-57 25 -125 25q-176 0 -279 -121q-49 -58 -78.5 -136.5t-29.5 -152.5zM657 305q55 -24 121 -24q180 0 287 133q94 117 94 270q0 114 -57 219z" />
<glyph unicode="&#xd9;" horiz-adv-x="1259" d="M102 543v829h351v-829q0 -135 43 -197.5t137 -62.5q85 0 131 55q25 29 34 72.5t9 132.5v829h350v-829q0 -152 -31.5 -247.5t-105.5 -172.5q-150 -150 -387 -150q-242 0 -393 148q-77 75 -107.5 168t-30.5 254zM172 1686l104 233l494 -268l-90 -189z" />
<glyph unicode="&#xda;" horiz-adv-x="1259" d="M102 543v829h351v-829q0 -135 43 -197.5t137 -62.5q85 0 131 55q25 29 34 72.5t9 132.5v829h350v-829q0 -152 -31.5 -247.5t-105.5 -172.5q-150 -150 -387 -150q-242 0 -393 148q-77 75 -107.5 168t-30.5 254zM508 1651l493 268l105 -233l-506 -224z" />
<glyph unicode="&#xdb;" horiz-adv-x="1259" d="M102 543v829h351v-829q0 -135 43 -197.5t137 -62.5q85 0 131 55q25 29 34 72.5t9 132.5v829h350v-829q0 -152 -31.5 -247.5t-105.5 -172.5q-150 -150 -387 -150q-242 0 -393 148q-77 75 -107.5 168t-30.5 254zM217 1509l272 310h304l262 -310h-324l-94 131l-92 -131h-328 z" />
<glyph unicode="&#xdc;" horiz-adv-x="1259" d="M102 543v829h351v-829q0 -135 43 -197.5t137 -62.5q85 0 131 55q25 29 34 72.5t9 132.5v829h350v-829q0 -152 -31.5 -247.5t-105.5 -172.5q-150 -150 -387 -150q-242 0 -393 148q-77 75 -107.5 168t-30.5 254zM258 1509v310h324v-310h-324zM702 1509v310h324v-310h-324z " />
<glyph unicode="&#xdd;" horiz-adv-x="1126" d="M-20 1372h380l205 -551l205 551h377l-408 -872v-500h-350v500zM449 1651l493 268l105 -233l-506 -224z" />
<glyph unicode="&#xde;" horiz-adv-x="1189" d="M117 0v1372h336v-178h112q163 0 258.5 -23t163.5 -79q77 -63 119.5 -159t42.5 -206q0 -104 -38 -198t-107 -158q-68 -63 -161 -91t-239 -28h-151v-252h-336zM453 561h141q61 0 92 9t59 34q54 48 54 119q0 38 -16.5 73t-43.5 56q-44 33 -157 33h-129v-324z" />
<glyph unicode="&#xdf;" horiz-adv-x="1271" d="M96 0v793q0 174 25 265t94 169q73 83 182.5 131.5t223.5 48.5q182 0 309 -113t127 -274q0 -80 -31 -137t-100 -103q126 -31 207 -131t81 -227q0 -93 -38 -177.5t-102 -146t-153 -97.5t-186 -36q-103 0 -175 34t-154 120v-119h-310zM406 387h169q20 -69 59 -101t103 -32 q71 0 119.5 49t48.5 119q0 79 -56 125.5t-151 46.5h-168v231h62q71 0 113.5 39t42.5 103q0 66 -45.5 108.5t-114.5 42.5q-92 0 -144 -71q-38 -52 -38 -168v-492z" />
<glyph unicode="&#xe0;" horiz-adv-x="1292" d="M55 516q0 243 149 397t382 154q227 0 311 -145v108h291v-1030h-291v111q-73 -146 -319 -146q-232 0 -377.5 153.5t-145.5 397.5zM297 1389l123 188l401 -307l-104 -152zM365 518q0 -114 73.5 -189t184.5 -75q112 0 185 74t73 188q0 112 -73.5 186t-186.5 74 q-107 0 -181.5 -74.5t-74.5 -183.5z" />
<glyph unicode="&#xe1;" horiz-adv-x="1292" d="M55 516q0 243 149 397t382 154q227 0 311 -145v108h291v-1030h-291v111q-73 -146 -319 -146q-232 0 -377.5 153.5t-145.5 397.5zM365 518q0 -114 73.5 -189t184.5 -75q112 0 185 74t73 188q0 112 -73.5 186t-186.5 74q-107 0 -181.5 -74.5t-74.5 -183.5zM537 1270 l401 307l123 -188l-420 -271z" />
<glyph unicode="&#xe2;" horiz-adv-x="1292" d="M55 516q0 243 149 397t382 154q227 0 311 -145v108h291v-1030h-291v111q-73 -146 -319 -146q-232 0 -377.5 153.5t-145.5 397.5zM303 1180l275 309h213l266 -309h-291l-86 118l-84 -118h-293zM365 518q0 -114 73.5 -189t184.5 -75q112 0 185 74t73 188q0 112 -73.5 186 t-186.5 74q-107 0 -181.5 -74.5t-74.5 -183.5z" />
<glyph unicode="&#xe3;" horiz-adv-x="1292" d="M55 516q0 243 149 397t382 154q227 0 311 -145v108h291v-1030h-291v111q-73 -146 -319 -146q-232 0 -377.5 153.5t-145.5 397.5zM346 1337q98 95 201 95q33 0 66.5 -8t140.5 -40q37 -12 67 -12q23 0 48 12.5t85 51.5l80 -160q-51 -50 -102 -72t-115 -22q-28 0 -48 5 t-77 27q-79 27 -125 27q-37 0 -64.5 -13.5t-62.5 -49.5zM365 518q0 -114 73.5 -189t184.5 -75q112 0 185 74t73 188q0 112 -73.5 186t-186.5 74q-107 0 -181.5 -74.5t-74.5 -183.5z" />
<glyph unicode="&#xe4;" horiz-adv-x="1292" d="M55 516q0 243 149 397t382 154q227 0 311 -145v108h291v-1030h-291v111q-73 -146 -319 -146q-232 0 -377.5 153.5t-145.5 397.5zM330 1182v280h295v-280h-295zM365 518q0 -114 73.5 -189t184.5 -75q112 0 185 74t73 188q0 112 -73.5 186t-186.5 74q-107 0 -181.5 -74.5 t-74.5 -183.5zM741 1182v280h295v-280h-295z" />
<glyph unicode="&#xe5;" horiz-adv-x="1292" d="M55 516q0 243 149 397t382 154q227 0 311 -145v108h291v-1030h-291v111q-73 -146 -319 -146q-232 0 -377.5 153.5t-145.5 397.5zM365 518q0 -114 73.5 -189t184.5 -75q112 0 185 74t73 188q0 112 -73.5 186t-186.5 74q-107 0 -181.5 -74.5t-74.5 -183.5zM444 1364 q0 95 69 162t167 67q94 0 161.5 -67.5t67.5 -161.5q0 -95 -68 -163t-163 -68q-97 0 -165.5 68t-68.5 163zM588 1364q0 -38 26 -65t62 -27q37 0 63.5 27t26.5 65q0 37 -26.5 64.5t-61.5 27.5q-37 0 -63.5 -27t-26.5 -65z" />
<glyph unicode="&#xe6;" horiz-adv-x="2017" d="M53 514q0 243 148 397t381 154q113 0 181.5 -34t113.5 -111v110h280v-108q47 74 114.5 108.5t164.5 34.5q146 0 266.5 -75t189 -206.5t68.5 -291.5q0 -35 -8 -74h-774q14 -88 77.5 -140.5t157.5 -52.5q61 0 104.5 22t96.5 79h309q-73 -173 -200 -267t-287 -94 q-97 0 -164.5 35.5t-114.5 110.5v-111h-280v111q-62 -146 -304 -146q-217 0 -352 129q-79 75 -123.5 186t-44.5 234zM362 516q0 -112 75 -187t188 -75q107 0 179.5 75t72.5 185q0 117 -73 189.5t-190 72.5q-106 0 -179 -75.5t-73 -184.5zM1184 625h471q-52 178 -232 178 q-91 0 -157.5 -50t-81.5 -128z" />
<glyph unicode="&#xe7;" horiz-adv-x="1181" d="M55 518q0 113 42.5 214.5t114.5 174.5t173 115.5t213 42.5q202 0 354 -120t193 -312h-314q-28 67 -87 105t-136 38q-106 0 -174.5 -75t-68.5 -189q0 -112 68.5 -185t174.5 -73q73 0 127 32.5t101 104.5h311q-46 -185 -186.5 -301t-329.5 -125l-37 -71q30 6 51 6 q61 0 105.5 -45.5t44.5 -108.5q0 -88 -57 -142.5t-148 -54.5q-83 0 -135.5 45t-61.5 125h129q10 -29 24.5 -40t39.5 -11q31 0 51 19.5t20 50.5q0 28 -17.5 45.5t-45.5 17.5q-33 0 -57 -28l-91 65l66 135q-83 19 -130.5 38.5t-98.5 56.5q-108 78 -168 196.5t-60 253.5z" />
<glyph unicode="&#xe8;" horiz-adv-x="1189" d="M55 512q0 151 71.5 278.5t194.5 201t269 73.5q232 0 387.5 -161t155.5 -402q0 -34 -9 -84h-770q11 -86 73 -139.5t153 -53.5q59 0 100 17.5t88 64.5l14 15h316q-72 -168 -205.5 -262.5t-298.5 -94.5q-146 0 -270 73t-196.5 199t-72.5 275zM229 1389l123 188l402 -307 l-105 -152zM360 625h465q-15 80 -79.5 129t-153.5 49t-150.5 -46.5t-81.5 -131.5z" />
<glyph unicode="&#xe9;" horiz-adv-x="1189" d="M55 512q0 151 71.5 278.5t194.5 201t269 73.5q232 0 387.5 -161t155.5 -402q0 -34 -9 -84h-770q11 -86 73 -139.5t153 -53.5q59 0 100 17.5t88 64.5l14 15h316q-72 -168 -205.5 -262.5t-298.5 -94.5q-146 0 -270 73t-196.5 199t-72.5 275zM360 625h465q-15 80 -79.5 129 t-153.5 49t-150.5 -46.5t-81.5 -131.5zM463 1270l401 307l123 -188l-420 -271z" />
<glyph unicode="&#xea;" horiz-adv-x="1189" d="M55 512q0 151 71.5 278.5t194.5 201t269 73.5q232 0 387.5 -161t155.5 -402q0 -34 -9 -84h-770q11 -86 73 -139.5t153 -53.5q59 0 100 17.5t88 64.5l14 15h316q-72 -168 -205.5 -262.5t-298.5 -94.5q-146 0 -270 73t-196.5 199t-72.5 275zM238 1180l274 309h213l266 -309 h-291l-86 118l-84 -118h-292zM360 625h465q-15 80 -79.5 129t-153.5 49t-150.5 -46.5t-81.5 -131.5z" />
<glyph unicode="&#xeb;" horiz-adv-x="1189" d="M55 512q0 151 71.5 278.5t194.5 201t269 73.5q232 0 387.5 -161t155.5 -402q0 -34 -9 -84h-770q11 -86 73 -139.5t153 -53.5q59 0 100 17.5t88 64.5l14 15h316q-72 -168 -205.5 -262.5t-298.5 -94.5q-146 0 -270 73t-196.5 199t-72.5 275zM262 1182v280h295v-280h-295z M360 625h465q-15 80 -79.5 129t-153.5 49t-150.5 -46.5t-81.5 -131.5zM674 1182v280h295v-280h-295z" />
<glyph unicode="&#xec;" horiz-adv-x="514" d="M-94 1368l123 186l374 -284l-106 -152zM102 0v1030h310v-1030h-310z" />
<glyph unicode="&#xed;" horiz-adv-x="514" d="M102 0v1030h310v-1030h-310zM139 1270l375 284l121 -180l-391 -256z" />
<glyph unicode="&#xee;" horiz-adv-x="514" d="M-92 1180l254 309h213l246 -309h-277l-80 133l-76 -133h-280zM102 0v1030h310v-1030h-310z" />
<glyph unicode="&#xef;" horiz-adv-x="514" d="M-37 1182v280h254v-280h-254zM104 0v1030h310v-1030h-310zM313 1182v280h254v-280h-254z" />
<glyph unicode="&#xf0;" horiz-adv-x="1226" d="M55 512q0 227 144.5 374.5t367.5 147.5q51 0 87.5 -8t93.5 -33q-26 59 -27 62q-33 67 -53 100l-129 -43l-62 121l129 43q-38 62 -82 119l197 53q38 -42 84 -105l147 46l74 -121l-139 -45q149 -230 215.5 -399.5t66.5 -317.5q0 -232 -158 -385.5t-397 -153.5 q-244 0 -401.5 153.5t-157.5 391.5zM365 520q0 -119 68.5 -192.5t178.5 -73.5q107 0 177.5 72t70.5 182q0 116 -71 190t-181 74q-108 0 -175.5 -70t-67.5 -182z" />
<glyph unicode="&#xf1;" horiz-adv-x="1153" d="M102 0v1030h291v-108q57 78 121.5 110.5t161.5 32.5q171 0 278 -104q58 -55 80.5 -124.5t22.5 -193.5v-643h-309v561q0 108 -31 152q-19 29 -54.5 46t-76.5 17q-45 0 -84 -19t-62 -52q-17 -25 -22.5 -50.5t-5.5 -79.5v-575h-310zM248 1337q98 95 201 95q32 0 65 -8 t141 -40q37 -12 68 -12q23 0 48 12.5t85 51.5l80 -160q-51 -50 -102 -72t-115 -22q-28 0 -48 5t-77 27q-79 27 -125 27q-37 0 -64.5 -13.5t-62.5 -49.5z" />
<glyph unicode="&#xf2;" horiz-adv-x="1224" d="M55 518q0 109 43 213t119 180q71 72 174.5 113t218.5 41q272 0 432 -195q125 -156 125 -354q0 -112 -42 -215.5t-119 -181.5q-151 -154 -398 -154q-119 0 -222 41.5t-175.5 114t-114 175.5t-41.5 222zM225 1389l123 188l402 -307l-105 -152zM365 518q0 -114 70.5 -189 t176.5 -75q105 0 175.5 75t70.5 187q0 107 -72.5 183.5t-173.5 76.5q-103 0 -175 -75.5t-72 -182.5z" />
<glyph unicode="&#xf3;" horiz-adv-x="1224" d="M55 518q0 109 43 213t119 180q71 72 174.5 113t218.5 41q272 0 432 -195q125 -156 125 -354q0 -112 -42 -215.5t-119 -181.5q-151 -154 -398 -154q-119 0 -222 41.5t-175.5 114t-114 175.5t-41.5 222zM365 518q0 -114 70.5 -189t176.5 -75q105 0 175.5 75t70.5 187 q0 107 -72.5 183.5t-173.5 76.5q-103 0 -175 -75.5t-72 -182.5zM479 1270l402 307l123 -188l-420 -271z" />
<glyph unicode="&#xf4;" horiz-adv-x="1224" d="M55 518q0 109 43 213t119 180q71 72 174.5 113t218.5 41q272 0 432 -195q125 -156 125 -354q0 -112 -42 -215.5t-119 -181.5q-151 -154 -398 -154q-119 0 -222 41.5t-175.5 114t-114 175.5t-41.5 222zM242 1180l274 309h213l266 -309h-290l-87 118l-83 -118h-293z M365 518q0 -114 70.5 -189t176.5 -75q105 0 175.5 75t70.5 187q0 107 -72.5 183.5t-173.5 76.5q-103 0 -175 -75.5t-72 -182.5z" />
<glyph unicode="&#xf5;" horiz-adv-x="1224" d="M55 518q0 109 43 213t119 180q71 72 174.5 113t218.5 41q272 0 432 -195q125 -156 125 -354q0 -112 -42 -215.5t-119 -181.5q-151 -154 -398 -154q-119 0 -222 41.5t-175.5 114t-114 175.5t-41.5 222zM301 1337q98 95 201 95q33 0 66.5 -8t140.5 -40q38 -12 67 -12 q23 0 48 12.5t85 51.5l80 -160q-51 -50 -102 -72t-115 -22q-28 0 -48 5t-77 27q-79 27 -125 27q-37 0 -64.5 -13.5t-62.5 -49.5zM365 518q0 -114 70.5 -189t176.5 -75q105 0 175.5 75t70.5 187q0 107 -72.5 183.5t-173.5 76.5q-103 0 -175 -75.5t-72 -182.5z" />
<glyph unicode="&#xf6;" horiz-adv-x="1224" d="M55 518q0 109 43 213t119 180q71 72 174.5 113t218.5 41q272 0 432 -195q125 -156 125 -354q0 -112 -42 -215.5t-119 -181.5q-151 -154 -398 -154q-119 0 -222 41.5t-175.5 114t-114 175.5t-41.5 222zM264 1182v280h295v-280h-295zM365 518q0 -114 70.5 -189t176.5 -75 q105 0 175.5 75t70.5 187q0 107 -72.5 183.5t-173.5 76.5q-103 0 -175 -75.5t-72 -182.5zM676 1182v280h295v-280h-295z" />
<glyph unicode="&#xf7;" horiz-adv-x="1132" d="M86 569v234h961v-234h-961zM438 215v246h258v-246h-258zM438 911v246h258v-246h-258z" />
<glyph unicode="&#xf8;" horiz-adv-x="1224" d="M55 514q0 152 71 278.5t195 199.5t273 73q116 0 268 -47l105 139l133 -104l-96 -133q50 -63 79 -107q84 -137 84 -299q0 -112 -42 -214t-113.5 -175.5t-171 -116.5t-209.5 -43q-67 0 -129 12t-160 43l-98 -120l-133 96l96 129q-152 158 -152 389zM365 514q0 -44 10 -75.5 t39 -78.5l284 396q-46 20 -84 20q-106 0 -177.5 -75t-71.5 -187zM518 276q50 -22 90 -22q109 0 179.5 74.5t70.5 189.5q0 43 -10 72.5t-39 75.5z" />
<glyph unicode="&#xf9;" horiz-adv-x="1157" d="M96 414v616h310v-575q0 -113 43 -156q45 -45 122 -45q83 0 128.5 53t45.5 148v575h310v-1030h-291v111q-41 -76 -106.5 -111t-168.5 -35q-185 0 -299 129q-54 63 -74 131t-20 189zM201 1389l123 188l401 -307l-104 -152z" />
<glyph unicode="&#xfa;" horiz-adv-x="1157" d="M96 414v616h310v-575q0 -113 43 -156q45 -45 122 -45q83 0 128.5 53t45.5 148v575h310v-1030h-291v111q-41 -76 -106.5 -111t-168.5 -35q-185 0 -299 129q-54 63 -74 131t-20 189zM446 1270l402 307l123 -188l-420 -271z" />
<glyph unicode="&#xfb;" horiz-adv-x="1157" d="M96 414v616h310v-575q0 -113 43 -156q45 -45 122 -45q83 0 128.5 53t45.5 148v575h310v-1030h-291v111q-41 -76 -106.5 -111t-168.5 -35q-185 0 -299 129q-54 63 -74 131t-20 189zM215 1180l274 309h213l267 -309h-291l-86 118l-84 -118h-293z" />
<glyph unicode="&#xfc;" horiz-adv-x="1157" d="M96 414v616h310v-575q0 -113 43 -156q45 -45 122 -45q83 0 128.5 53t45.5 148v575h310v-1030h-291v111q-41 -76 -106.5 -111t-168.5 -35q-185 0 -299 129q-54 63 -74 131t-20 189zM236 1182v280h294v-280h-294zM647 1182v280h295v-280h-295z" />
<glyph unicode="&#xfd;" horiz-adv-x="1021" d="M-20 1030h327l209 -598l199 598h327l-516 -1374h-327l163 395zM399 1270l402 307l123 -188l-420 -271z" />
<glyph unicode="&#xfe;" horiz-adv-x="1277" d="M102 -344v1716h310v-432q72 69 141 97t166 28q218 0 356 -150q69 -75 108.5 -184t39.5 -225q0 -151 -65.5 -275.5t-181 -195t-255.5 -70.5q-189 0 -309 129v-438h-310zM395 520q0 -114 74.5 -190t185.5 -76q109 0 183.5 76t74.5 186t-75 185t-185 75q-109 0 -183.5 -74.5 t-74.5 -181.5z" />
<glyph unicode="&#xff;" horiz-adv-x="1021" d="M-20 1030h327l209 -598l199 598h327l-516 -1374h-327l163 395zM164 1182v280h295v-280h-295zM575 1182v280h295v-280h-295z" />
<glyph unicode="&#x100;" horiz-adv-x="1359" d="M-6 0l551 1372h276l545 -1372h-379l-67 199h-476l-73 -199h-377zM350 1565v207h707v-207h-707zM539 477h288l-143 469z" />
<glyph unicode="&#x101;" horiz-adv-x="1292" d="M55 516q0 243 149 397t382 154q227 0 311 -145v108h291v-1030h-291v111q-73 -146 -319 -146q-232 0 -377.5 153.5t-145.5 397.5zM362 1221v180h660v-180h-660zM365 518q0 -114 73.5 -189t184.5 -75q112 0 185 74t73 188q0 112 -73.5 186t-186.5 74q-107 0 -181.5 -74.5 t-74.5 -183.5z" />
<glyph unicode="&#x102;" horiz-adv-x="1359" d="M-6 0l551 1372h276l545 -1372h-379l-67 199h-476l-73 -199h-377zM303 1812h238q7 -52 42 -77t101 -25q72 0 108.5 24t43.5 78h237q-6 -79 -28.5 -129t-71.5 -92q-51 -43 -129 -69.5t-156 -26.5q-90 0 -173 31.5t-132 85.5q-40 41 -58 85.5t-22 114.5zM539 477h288 l-143 469z" />
<glyph unicode="&#x103;" horiz-adv-x="1292" d="M55 516q0 243 149 397t382 154q227 0 311 -145v108h291v-1030h-291v111q-73 -146 -319 -146q-232 0 -377.5 153.5t-145.5 397.5zM336 1452h194q23 -51 57 -70.5t99 -19.5q104 0 141 90h195q-8 -134 -96.5 -206t-245.5 -72t-247 72.5t-97 205.5zM365 518q0 -114 73.5 -189 t184.5 -75q112 0 185 74t73 188q0 112 -73.5 186t-186.5 74q-107 0 -181.5 -74.5t-74.5 -183.5z" />
<glyph unicode="&#x104;" horiz-adv-x="1359" d="M-6 0l551 1372h276l545 -1372h-102q-75 -38 -100 -64t-25 -65q0 -38 28 -65t68 -27q32 0 96 26v-167q-97 -37 -166 -37q-97 0 -165 54.5t-68 131.5q0 64 41 115t131 98h-117l-67 199h-476l-73 -199h-377zM539 477h288l-143 469z" />
<glyph unicode="&#x105;" horiz-adv-x="1292" d="M55 516q0 243 149 397t382 154q227 0 311 -145v108h291v-1030h-137l-25 -12q-42 -21 -65 -53.5t-23 -67.5q0 -37 28 -63.5t66 -26.5q35 0 90 22l-2 -153q-91 -29 -157 -29q-99 0 -160.5 50t-61.5 130q0 54 35.5 100t120.5 103v111q-73 -146 -319 -146 q-232 0 -377.5 153.5t-145.5 397.5zM365 518q0 -114 73.5 -189t184.5 -75q112 0 185 74t73 188q0 112 -73.5 186t-186.5 74q-107 0 -181.5 -74.5t-74.5 -183.5z" />
<glyph unicode="&#x106;" horiz-adv-x="1515" d="M59 690q0 195 95 358t260.5 257t363.5 94q167 0 310.5 -66t246.5 -190q119 -146 142 -291h-367q-41 111 -130.5 175.5t-203.5 64.5q-155 0 -260.5 -115.5t-105.5 -284.5q0 -173 106.5 -291t261.5 -118q218 0 332 231h367q-39 -160 -139 -283t-245 -190.5t-311 -67.5 q-198 0 -364.5 95.5t-262.5 260.5t-96 361zM668 1624l358 295l127 -182l-375 -275z" />
<glyph unicode="&#x107;" horiz-adv-x="1181" d="M55 516q0 152 71.5 278t196.5 198.5t275 72.5q202 0 354 -120t193 -312h-314q-28 67 -87 105t-136 38q-106 0 -174.5 -75t-68.5 -189q0 -112 68.5 -185t174.5 -73q73 0 127 32.5t101 104.5h311q-46 -189 -196 -307.5t-345 -118.5q-114 0 -216 43t-175.5 117t-116.5 176 t-43 215zM496 1239l274 330l152 -154l-299 -297z" />
<glyph unicode="&#x108;" horiz-adv-x="1515" d="M59 690q0 195 95 358t260.5 257t363.5 94q167 0 310.5 -66t246.5 -190q119 -146 142 -291h-367q-41 111 -130.5 175.5t-203.5 64.5q-155 0 -260.5 -115.5t-105.5 -284.5q0 -173 106.5 -291t261.5 -118q218 0 332 231h367q-39 -160 -139 -283t-245 -190.5t-311 -67.5 q-198 0 -364.5 95.5t-262.5 260.5t-96 361zM367 1509l270 310h305l262 -310h-325l-93 131l-92 -131h-327z" />
<glyph unicode="&#x109;" horiz-adv-x="1181" d="M55 516q0 152 71.5 278t196.5 198.5t275 72.5q202 0 354 -120t193 -312h-314q-28 67 -87 105t-136 38q-106 0 -174.5 -75t-68.5 -189q0 -112 68.5 -185t174.5 -73q73 0 127 32.5t101 104.5h311q-46 -189 -196 -307.5t-345 -118.5q-114 0 -216 43t-175.5 117t-116.5 176 t-43 215zM217 1180l275 309h215l266 -309h-291l-86 118l-84 -118h-295z" />
<glyph unicode="&#x10a;" horiz-adv-x="1515" d="M59 690q0 195 95 358t260.5 257t363.5 94q167 0 310.5 -66t246.5 -190q119 -146 142 -291h-367q-41 111 -130.5 175.5t-203.5 64.5q-155 0 -260.5 -115.5t-105.5 -284.5q0 -173 106.5 -291t261.5 -118q218 0 332 231h367q-39 -160 -139 -283t-245 -190.5t-311 -67.5 q-198 0 -364.5 95.5t-262.5 260.5t-96 361zM631 1509v310h323v-310h-323z" />
<glyph unicode="&#x10b;" horiz-adv-x="1181" d="M55 516q0 152 71.5 278t196.5 198.5t275 72.5q202 0 354 -120t193 -312h-314q-28 67 -87 105t-136 38q-106 0 -174.5 -75t-68.5 -189q0 -112 68.5 -185t174.5 -73q73 0 127 32.5t101 104.5h311q-46 -189 -196 -307.5t-345 -118.5q-114 0 -216 43t-175.5 117t-116.5 176 t-43 215zM477 1182v280h295v-280h-295z" />
<glyph unicode="&#x10c;" horiz-adv-x="1515" d="M59 690q0 195 95 358t260.5 257t363.5 94q167 0 310.5 -66t246.5 -190q119 -146 142 -291h-367q-41 111 -130.5 175.5t-203.5 64.5q-155 0 -260.5 -115.5t-105.5 -284.5q0 -173 106.5 -291t261.5 -118q218 0 332 231h367q-39 -160 -139 -283t-245 -190.5t-311 -67.5 q-198 0 -364.5 95.5t-262.5 260.5t-96 361zM373 1819h325l93 -131l92 131h327l-270 -310h-305z" />
<glyph unicode="&#x10d;" horiz-adv-x="1181" d="M55 516q0 152 71.5 278t196.5 198.5t275 72.5q202 0 354 -120t193 -312h-314q-28 67 -87 105t-136 38q-106 0 -174.5 -75t-68.5 -189q0 -112 68.5 -185t174.5 -73q73 0 127 32.5t101 104.5h311q-46 -189 -196 -307.5t-345 -118.5q-114 0 -216 43t-175.5 117t-116.5 176 t-43 215zM246 1489h291l86 -119l84 119h292l-272 -309h-215z" />
<glyph unicode="&#x10e;" horiz-adv-x="1363" d="M117 0v1372h463q198 0 319 -41.5t219 -142.5q187 -193 187 -496q0 -170 -57 -309t-165 -233q-91 -78 -192.5 -114t-233.5 -36h-540zM207 1819h325l93 -131l92 131h327l-270 -310h-305zM467 309h151q135 0 209 58q59 43 93 127t34 186q0 98 -29 180t-81 129 q-80 74 -223 74h-154v-754z" />
<glyph unicode="&#x10f;" horiz-adv-x="1576" d="M53 516q0 236 145.5 392.5t366.5 156.5q183 0 303 -123v430h310v-1372h-291v111q-66 -78 -139.5 -112t-178.5 -34q-224 0 -370 156t-146 395zM362 518q0 -115 73.5 -189.5t187.5 -74.5t189 76t75 190q0 108 -75 182t-185 74q-116 0 -190.5 -73t-74.5 -185zM1288 950v123 h55q31 0 49.5 17t18.5 43v34h-123v205h273v-209q0 -61 -8 -92.5t-31 -60.5q-50 -60 -121 -60h-113z" />
<glyph unicode="&#x110;" horiz-adv-x="1363" d="M0 590v248h117v534h463q198 0 319 -41.5t219 -142.5q187 -193 187 -496q0 -312 -178 -502t-470 -190h-540v590h-117zM467 309h151q132 0 209 58q59 43 93 127t34 186q0 184 -86.5 283.5t-246.5 99.5h-154v-225h254v-248h-254v-281z" />
<glyph unicode="&#x111;" horiz-adv-x="1282" d="M55 516q0 238 145.5 393.5t366.5 155.5q181 0 301 -123v176h-225v172h225v82h310v-82h116v-172h-116v-1118h-291v111q-67 -79 -139.5 -112.5t-176.5 -33.5q-225 0 -370.5 155.5t-145.5 395.5zM365 518q0 -116 73 -190t187 -74q112 0 187 76t75 190q0 108 -75 182t-185 74 q-114 0 -188 -73t-74 -185z" />
<glyph unicode="&#x112;" horiz-adv-x="964" d="M117 0v1372h764v-309h-428v-211h413v-309h-413v-234h428v-309h-764zM150 1565v207h706v-207h-706z" />
<glyph unicode="&#x113;" horiz-adv-x="1189" d="M55 512q0 151 71.5 278.5t194.5 201t269 73.5q232 0 387.5 -161t155.5 -402q0 -34 -9 -84h-770q11 -86 73 -139.5t153 -53.5q59 0 100 17.5t88 64.5l14 15h316q-72 -168 -205.5 -262.5t-298.5 -94.5q-146 0 -270 73t-196.5 199t-72.5 275zM285 1221v180h659v-180h-659z M360 625h465q-15 80 -79.5 129t-153.5 49t-150.5 -46.5t-81.5 -131.5z" />
<glyph unicode="&#x116;" horiz-adv-x="964" d="M117 0v1372h764v-309h-428v-211h413v-309h-413v-234h428v-309h-764zM344 1509v310h324v-310h-324z" />
<glyph unicode="&#x117;" horiz-adv-x="1189" d="M55 512q0 151 71.5 278.5t194.5 201t269 73.5q232 0 387.5 -161t155.5 -402q0 -34 -9 -84h-770q11 -86 73 -139.5t153 -53.5q59 0 100 17.5t88 64.5l14 15h316q-72 -168 -205.5 -262.5t-298.5 -94.5q-146 0 -270 73t-196.5 199t-72.5 275zM360 625h465q-15 80 -79.5 129 t-153.5 49t-150.5 -46.5t-81.5 -131.5zM467 1182v280h295v-280h-295z" />
<glyph unicode="&#x118;" horiz-adv-x="964" d="M117 0v1372h764v-309h-428v-211h413v-309h-413v-234h428v-309h-66q-74 -38 -99.5 -64.5t-25.5 -64.5t28.5 -65t69.5 -27q33 0 97 26v-167q-107 -37 -168 -37q-95 0 -164.5 55t-69.5 131q0 64 41.5 115t132.5 98h-540z" />
<glyph unicode="&#x119;" horiz-adv-x="1189" d="M55 512q0 151 71.5 278.5t194.5 201t269 73.5q232 0 387.5 -161t155.5 -402q0 -34 -9 -84h-770q11 -86 73 -139.5t153 -53.5q59 0 100 17.5t88 64.5l14 15h316q-38 -93 -105.5 -170t-150.5 -123q-86 -70 -86 -158q0 -40 27 -67t67 -27q35 0 90 22v-153q-93 -29 -160 -29 q-102 0 -161.5 50t-59.5 136q0 43 15 78t55 86q-20 -2 -39 -2q-144 0 -267.5 73.5t-195.5 199.5t-72 274zM360 625h465q-15 80 -79.5 129t-153.5 49t-150.5 -46.5t-81.5 -131.5z" />
<glyph unicode="&#x11a;" horiz-adv-x="964" d="M106 1819h326l92 -131l92 131h328l-270 -310h-305zM117 0v1372h764v-309h-428v-211h413v-309h-413v-234h428v-309h-764z" />
<glyph unicode="&#x11b;" horiz-adv-x="1189" d="M55 512q0 151 71.5 278.5t194.5 201t269 73.5q232 0 387.5 -161t155.5 -402q0 -34 -9 -84h-770q11 -86 73 -139.5t153 -53.5q59 0 100 17.5t88 64.5l14 15h316q-72 -168 -205.5 -262.5t-298.5 -94.5q-146 0 -270 73t-196.5 199t-72.5 275zM231 1489h291l86 -119l84 119 h293l-272 -309h-215zM360 625h465q-15 80 -79.5 129t-153.5 49t-150.5 -46.5t-81.5 -131.5z" />
<glyph unicode="&#x11c;" horiz-adv-x="1579" d="M59 690q0 147 59.5 284.5t164.5 233.5q95 88 233.5 139.5t278.5 51.5q155 0 298 -63t244.5 -174t141.5 -249h-394q-46 86 -124 132.5t-177 46.5q-158 0 -270 -115q-104 -107 -104 -270q0 -91 28.5 -174.5t79.5 -137.5q51 -53 129.5 -83.5t161.5 -30.5q117 0 197.5 58.5 t105.5 160.5h-407v280h815l2 -71q4 -154 -51.5 -291t-154.5 -234.5t-236.5 -154t-291.5 -56.5q-201 0 -368.5 95t-264 260t-96.5 362zM385 1509l270 310h306l262 -310h-326l-92 131l-92 -131h-328z" />
<glyph unicode="&#x11d;" horiz-adv-x="1275" d="M55 508q0 157 68 284.5t188.5 200t268.5 72.5q192 0 303 -131v96h291v-905q0 -158 -12.5 -222t-53.5 -126q-74 -109 -213.5 -172.5t-306.5 -63.5q-209 0 -349.5 100t-162.5 263h354q44 -103 182 -103q60 0 113.5 25.5t87.5 69.5q49 63 49 184v33q-32 -63 -120.5 -105.5 t-188.5 -42.5q-136 0 -250.5 72.5t-181 197.5t-66.5 273zM295 1180l274 309h213l267 -309h-291l-86 118l-84 -118h-293zM365 520q0 -115 70.5 -190.5t176.5 -75.5q110 0 181 72t71 184q0 117 -70.5 191.5t-179.5 74.5q-104 0 -176.5 -74.5t-72.5 -181.5z" />
<glyph unicode="&#x11e;" horiz-adv-x="1579" d="M59 690q0 147 59.5 284.5t164.5 233.5q95 88 233.5 139.5t278.5 51.5q155 0 298 -63t244.5 -174t141.5 -249h-394q-46 86 -124 132.5t-177 46.5q-158 0 -270 -115q-104 -107 -104 -270q0 -91 28.5 -174.5t79.5 -137.5q51 -53 129.5 -83.5t161.5 -30.5q117 0 197.5 58.5 t105.5 160.5h-407v280h815l2 -71q4 -154 -51.5 -291t-154.5 -234.5t-236.5 -154t-291.5 -56.5q-201 0 -368.5 95t-264 260t-96.5 362zM418 1812h237q15 -102 144 -102q72 0 108 24t43 78h238q-6 -78 -29 -128t-72 -93q-51 -43 -129 -69.5t-155 -26.5q-90 0 -173 31.5 t-132 85.5q-40 41 -58 85.5t-22 114.5z" />
<glyph unicode="&#x11f;" horiz-adv-x="1275" d="M55 508q0 157 68 284.5t188.5 200t268.5 72.5q192 0 303 -131v96h291v-905q0 -158 -12.5 -222t-53.5 -126q-74 -109 -213.5 -172.5t-306.5 -63.5q-209 0 -349.5 100t-162.5 263h354q44 -103 182 -103q60 0 113.5 25.5t87.5 69.5q49 63 49 184v33q-32 -63 -120.5 -105.5 t-188.5 -42.5q-136 0 -250.5 72.5t-181 197.5t-66.5 273zM322 1452h194q23 -51 57 -70.5t99 -19.5q104 0 141 90h195q-8 -134 -96.5 -206t-245.5 -72q-158 0 -247 72t-97 206zM365 520q0 -115 70.5 -190.5t176.5 -75.5q110 0 181 72t71 184q0 117 -70.5 191.5t-179.5 74.5 q-104 0 -176.5 -74.5t-72.5 -181.5z" />
<glyph unicode="&#x120;" horiz-adv-x="1579" d="M59 690q0 147 59.5 284.5t164.5 233.5q95 88 233.5 139.5t278.5 51.5q155 0 298 -63t244.5 -174t141.5 -249h-394q-46 86 -124 132.5t-177 46.5q-158 0 -270 -115q-104 -107 -104 -270q0 -91 28.5 -174.5t79.5 -137.5q51 -53 129.5 -83.5t161.5 -30.5q117 0 197.5 58.5 t105.5 160.5h-407v280h815l2 -71q4 -154 -51.5 -291t-154.5 -234.5t-236.5 -154t-291.5 -56.5q-201 0 -368.5 95t-264 260t-96.5 362zM635 1509v310h323v-310h-323z" />
<glyph unicode="&#x121;" horiz-adv-x="1275" d="M55 508q0 157 68 284.5t188.5 200t268.5 72.5q192 0 303 -131v96h291v-905q0 -158 -12.5 -222t-53.5 -126q-74 -109 -213.5 -172.5t-306.5 -63.5q-209 0 -349.5 100t-162.5 263h354q44 -103 182 -103q60 0 113.5 25.5t87.5 69.5q49 63 49 184v33q-32 -63 -120.5 -105.5 t-188.5 -42.5q-136 0 -250.5 72.5t-181 197.5t-66.5 273zM365 520q0 -115 70.5 -190.5t176.5 -75.5q110 0 181 72t71 184q0 117 -70.5 191.5t-179.5 74.5q-104 0 -176.5 -74.5t-72.5 -181.5zM510 1182v280h295v-280h-295z" />
<glyph unicode="&#x122;" horiz-adv-x="1579" d="M59 690q0 147 59.5 284.5t164.5 233.5q95 88 233.5 139.5t278.5 51.5q155 0 298 -63t244.5 -174t141.5 -249h-394q-46 86 -124 132.5t-177 46.5q-158 0 -270 -115q-104 -107 -104 -270q0 -91 28.5 -174.5t79.5 -137.5q51 -53 129.5 -83.5t161.5 -30.5q117 0 197.5 58.5 t105.5 160.5h-407v280h815l2 -71q4 -154 -51.5 -291t-154.5 -234.5t-236.5 -154t-291.5 -56.5q-201 0 -368.5 95t-264 260t-96.5 362zM647 -106h275v-209q0 -59 -8.5 -90.5t-32.5 -61.5q-46 -59 -121 -59h-113v123h55q31 0 49.5 16.5t18.5 42.5v33h-123v205z" />
<glyph unicode="&#x123;" horiz-adv-x="1275" d="M55 508q0 157 68 284.5t188.5 200t268.5 72.5q192 0 303 -131v96h291v-905q0 -158 -12.5 -222t-53.5 -126q-74 -109 -213.5 -172.5t-306.5 -63.5q-209 0 -349.5 100t-162.5 263h354q44 -103 182 -103q60 0 113.5 25.5t87.5 69.5q49 63 49 184v33q-32 -63 -120.5 -105.5 t-188.5 -42.5q-136 0 -250.5 72.5t-181 197.5t-66.5 273zM365 520q0 -115 70.5 -190.5t176.5 -75.5q110 0 181 72t71 184q0 117 -70.5 191.5t-179.5 74.5q-104 0 -176.5 -74.5t-72.5 -181.5zM514 1174v208q0 61 8 92.5t33 61.5q46 59 121 59h112v-122h-55q-30 0 -48.5 -16.5 t-18.5 -43.5v-35h122v-204h-274z" />
<glyph unicode="&#x124;" horiz-adv-x="1382" d="M117 0v1372h350v-514h448v514h351v-1372h-351v549h-448v-549h-350zM279 1509l272 310h303l262 -310h-323l-95 131l-92 -131h-327z" />
<glyph unicode="&#x125;" horiz-adv-x="1153" d="M-152 1509l273 310h303l262 -310h-324l-94 131l-92 -131h-328zM104 0v1372h310v-436q75 129 268 129q171 0 279 -111q56 -60 76 -139.5t20 -239.5v-575h-309v561q0 215 -164 215q-35 0 -71 -15t-58 -38q-23 -25 -32 -58.5t-9 -93.5v-571h-310z" />
<glyph unicode="&#x126;" horiz-adv-x="1382" d="M0 995v248h117v129h350v-129h448v129h351v-129h116v-248h-116v-995h-351v549h-448v-549h-350v995h-117zM467 858h448v137h-448v-137z" />
<glyph unicode="&#x127;" horiz-adv-x="1153" d="M-14 1124v172h116v76h310v-76h213v-172h-213v-188q75 129 268 129q176 0 281 -111q56 -60 76 -139.5t20 -239.5v-575h-309v561q0 215 -164 215q-37 0 -73 -15t-58 -38q-23 -25 -32 -58.5t-9 -93.5v-571h-310v1124h-116z" />
<glyph unicode="&#x128;" horiz-adv-x="583" d="M-84 1714q56 47 104 67.5t103 20.5q45 0 83 -8.5t148 -42.5q24 -8 52 -8q34 0 68.5 12.5t94.5 46.5l97 -182q-113 -84 -222 -84q-64 0 -239 53q-24 8 -53 8q-60 0 -136 -65zM117 0v1372h350v-1372h-350z" />
<glyph unicode="&#x129;" horiz-adv-x="514" d="M-86 1337q98 95 201 95q33 0 66.5 -8t140.5 -40q37 -12 67 -12q23 0 48 12.5t85 51.5l80 -160q-51 -50 -102 -72t-115 -22q-28 0 -48 5t-77 27q-79 27 -125 27q-37 0 -64.5 -13.5t-62.5 -49.5zM102 0v1030h310v-1030h-310z" />
<glyph unicode="&#x12a;" horiz-adv-x="583" d="M-27 1565v207h652v-207h-652zM117 0v1372h350v-1372h-350z" />
<glyph unicode="&#x12b;" horiz-adv-x="514" d="M-37 1221v180h604v-180h-604zM104 0v1030h310v-1030h-310z" />
<glyph unicode="&#x12e;" horiz-adv-x="583" d="M61 -213q0 64 41 115t131 98h-116v1372h350v-1372h-74q-75 -38 -100 -64t-25 -65q0 -38 28.5 -65t68.5 -27q32 0 96 26v-167q-97 -37 -166 -37q-95 0 -164.5 55t-69.5 131z" />
<glyph unicode="&#x12f;" horiz-adv-x="514" d="M41 -203q0 54 36 101t120 102h-95v1030h310v-1030h-62l-24 -12q-42 -21 -65 -53.5t-23 -67.5q0 -37 28 -63.5t66 -26.5q35 0 90 22v-153q-93 -29 -160 -29q-100 0 -160.5 49t-60.5 131zM102 1139v233h310v-233h-310z" />
<glyph unicode="&#x130;" horiz-adv-x="583" d="M117 0v1372h350v-1372h-350zM137 1509v310h324v-310h-324z" />
<glyph unicode="&#x131;" horiz-adv-x="514" d="M102 0v1030h310v-1030h-310z" />
<glyph unicode="&#x134;" horiz-adv-x="1038" d="M0 440h373q5 -84 29.5 -120.5t78.5 -36.5q46 0 76 34q17 22 23 49.5t6 88.5v917h350v-831q0 -157 -18 -240.5t-66 -146.5q-63 -83 -168 -132t-221 -49q-125 0 -234 54.5t-166 146.5q-63 101 -63 266zM344 1509l272 310h306l262 -310h-326l-94 131l-90 -131h-330z" />
<glyph unicode="&#x135;" horiz-adv-x="514" d="M-113 1180l275 309h213l266 -309h-291l-86 118l-84 -118h-293zM-47 -143h41q61 0 84.5 33.5t23.5 121.5v1018h310v-1005q0 -227 -83 -314.5t-300 -87.5h-76v234z" />
<glyph unicode="&#x136;" horiz-adv-x="1241" d="M117 0v1372h350v-618l391 618h369l-455 -684l483 -688h-409l-379 594v-594h-350zM487 -106h275v-209q0 -59 -8.5 -90.5t-32.5 -61.5q-46 -59 -121 -59h-113v123h56q31 0 49 16.5t18 42.5v33h-123v205z" />
<glyph unicode="&#x137;" horiz-adv-x="1052" d="M102 0v1372h310v-715l288 373h365l-387 -452l377 -578h-350l-293 496v-496h-310zM395 -106h275v-209q0 -59 -8.5 -90.5t-32.5 -61.5q-46 -59 -121 -59h-113v123h56q31 0 49 16.5t18 42.5v33h-123v205z" />
<glyph unicode="&#x138;" horiz-adv-x="1052" d="M102 0v1030h310v-373l288 373h365l-387 -452l377 -578h-350l-293 496v-496h-310z" />
<glyph unicode="&#x139;" horiz-adv-x="901" d="M117 0v1372h350v-1063h405v-309h-755zM156 1624l356 295l129 -182l-375 -275z" />
<glyph unicode="&#x13a;" horiz-adv-x="514" d="M102 0v1372h310v-1372h-310zM143 1624l359 295l127 -182l-375 -275z" />
<glyph unicode="&#x13b;" horiz-adv-x="901" d="M117 0v1372h350v-1063h405v-309h-755zM373 -106h274v-209q0 -59 -8.5 -90.5t-32.5 -61.5q-46 -59 -121 -59h-112v123h55q31 0 49.5 16.5t18.5 42.5v33h-123v205z" />
<glyph unicode="&#x13c;" horiz-adv-x="514" d="M102 0v1372h310v-1372h-310zM121 -106h274v-209q0 -59 -8.5 -90.5t-32.5 -61.5q-46 -59 -121 -59h-112v123h55q31 0 49.5 16.5t18.5 42.5v33h-123v205z" />
<glyph unicode="&#x13d;" horiz-adv-x="901" d="M117 0v1372h350v-1063h405v-309h-755zM590 950v123h55q31 0 49.5 17t18.5 43v34h-123v205h274v-209q0 -60 -8 -91t-33 -62q-45 -60 -121 -60h-112z" />
<glyph unicode="&#x13e;" horiz-adv-x="808" d="M102 0v1372h310v-1372h-310zM520 950v123h55q31 0 49.5 17t18.5 43v34h-123v205h275v-209q0 -60 -8 -91t-33 -62q-47 -60 -121 -60h-113z" />
<glyph unicode="&#x141;" horiz-adv-x="901" d="M0 360v291l117 84v637h350v-461l256 176v-292l-256 -177v-309h405v-309h-755v444z" />
<glyph unicode="&#x142;" horiz-adv-x="514" d="M0 444v215l102 76v637h310v-493l102 77v-215l-102 -75v-666h-310v522z" />
<glyph unicode="&#x143;" horiz-adv-x="1392" d="M117 0v1372h301l536 -862l-14 862h336v-1372h-305l-531 836l13 -836h-336zM590 1624l356 295l129 -182l-375 -275z" />
<glyph unicode="&#x144;" horiz-adv-x="1153" d="M102 0v1030h291v-108q57 78 121.5 110.5t161.5 32.5q171 0 278 -104q58 -55 80.5 -124.5t22.5 -193.5v-643h-309v561q0 108 -31 152q-19 29 -54.5 46t-76.5 17q-45 0 -84 -19t-62 -52q-17 -25 -22.5 -50.5t-5.5 -79.5v-575h-310zM475 1239l275 330l149 -154l-297 -297z " />
<glyph unicode="&#x145;" horiz-adv-x="1392" d="M117 0v1372h301l536 -862l-14 862h336v-1372h-305l-531 836l13 -836h-336zM553 -106h274v-209q0 -59 -8.5 -90.5t-32.5 -61.5q-46 -59 -120 -59h-113v123h55q31 0 49.5 16.5t18.5 42.5v33h-123v205z" />
<glyph unicode="&#x146;" horiz-adv-x="1153" d="M102 0v1030h291v-108q57 78 121.5 110.5t161.5 32.5q171 0 278 -104q58 -55 80.5 -124.5t22.5 -193.5v-643h-309v561q0 108 -31 152q-19 29 -54.5 46t-76.5 17q-45 0 -84 -19t-62 -52q-17 -25 -22.5 -50.5t-5.5 -79.5v-575h-310zM436 -106h275v-209q0 -59 -8.5 -90.5 t-32.5 -61.5q-46 -59 -121 -59h-113v123h56q31 0 49 16.5t18 42.5v33h-123v205z" />
<glyph unicode="&#x147;" horiz-adv-x="1392" d="M117 0v1372h301l536 -862l-14 862h336v-1372h-305l-531 836l13 -836h-336zM297 1819h326l92 -131l92 131h328l-271 -310h-305z" />
<glyph unicode="&#x148;" horiz-adv-x="1153" d="M102 0v1030h291v-108q57 78 121.5 110.5t161.5 32.5q171 0 278 -104q58 -55 80.5 -124.5t22.5 -193.5v-643h-309v561q0 108 -31 152q-19 29 -54.5 46t-76.5 17q-45 0 -84 -19t-62 -52q-17 -25 -22.5 -50.5t-5.5 -79.5v-575h-310zM215 1489h291l86 -119l84 119h293 l-273 -309h-215z" />
<glyph unicode="&#x14a;" horiz-adv-x="1273" d="M117 0v1372h332v-131q55 85 126.5 121.5t178.5 36.5q90 0 169 -30t134 -85q64 -61 89 -137t25 -211v-913q0 -226 -83 -313t-300 -87h-116v260h41q61 0 84.5 34t23.5 122v805q0 119 -33 168q-22 31 -59.5 50t-77.5 19q-42 0 -84.5 -22t-68.5 -58q-19 -26 -25 -53.5 t-6 -87.5v-860h-350z" />
<glyph unicode="&#x14b;" horiz-adv-x="1153" d="M102 0v1030h291v-108q57 78 121.5 110.5t161.5 32.5q171 0 278 -104q58 -55 80.5 -124.5t22.5 -193.5v-620q0 -226 -83 -313t-300 -87h-76v234h41q62 0 85.5 33.5t23.5 121.5v549q0 108 -31 152q-19 29 -54.5 46t-76.5 17q-45 0 -84 -19t-62 -52q-17 -25 -22.5 -50.5 t-5.5 -79.5v-575h-310z" />
<glyph unicode="&#x14c;" horiz-adv-x="1566" d="M59 696q0 145 56.5 275.5t153 224.5t230.5 149.5t283 55.5q201 0 368 -94.5t263 -259t96 -361.5q0 -196 -96 -360t-262.5 -258.5t-366.5 -94.5q-204 0 -370 94t-260.5 259.5t-94.5 369.5zM410 694q0 -177 108.5 -294t272.5 -117q155 0 261.5 116t106.5 285 q0 172 -108.5 290t-266.5 118t-266 -115t-108 -283zM438 1565v207h707v-207h-707z" />
<glyph unicode="&#x14d;" horiz-adv-x="1224" d="M55 518q0 109 43 213t119 180q71 72 174.5 113t218.5 41q272 0 432 -195q125 -156 125 -354q0 -112 -42 -215.5t-119 -181.5q-151 -154 -398 -154q-119 0 -222 41.5t-175.5 114t-114 175.5t-41.5 222zM289 1221v180h659v-180h-659zM365 518q0 -114 70.5 -189t176.5 -75 q105 0 175.5 75t70.5 187q0 107 -72.5 183.5t-173.5 76.5q-103 0 -175 -75.5t-72 -182.5z" />
<glyph unicode="&#x150;" horiz-adv-x="1566" d="M59 696q0 145 56.5 275.5t153 224.5t230.5 149.5t283 55.5q201 0 368 -94.5t263 -259t96 -361.5q0 -196 -96 -360t-262.5 -258.5t-366.5 -94.5q-204 0 -370 94t-260.5 259.5t-94.5 369.5zM410 694q0 -177 108.5 -294t272.5 -117q155 0 261.5 116t106.5 285 q0 172 -108.5 290t-266.5 118t-266 -115t-108 -283zM487 1624l359 295l127 -182l-375 -275zM899 1624l358 295l127 -182l-374 -275z" />
<glyph unicode="&#x151;" horiz-adv-x="1224" d="M55 518q0 109 43 213t119 180q71 72 174.5 113t218.5 41q272 0 432 -195q125 -156 125 -354q0 -112 -42 -215.5t-119 -181.5q-151 -154 -398 -154q-119 0 -222 41.5t-175.5 114t-114 175.5t-41.5 222zM342 1239l274 330l152 -154l-299 -297zM365 518q0 -114 70.5 -189 t176.5 -75q105 0 175.5 75t70.5 187q0 107 -72.5 183.5t-173.5 76.5q-103 0 -175 -75.5t-72 -182.5zM688 1239l275 330l151 -154l-299 -297z" />
<glyph unicode="&#x152;" horiz-adv-x="2000" d="M59 684q0 149 55.5 281.5t151.5 227.5t230 150.5t284 55.5q114 0 198 -26.5t173 -90.5v90h764v-309h-426v-211h412v-309h-412v-234h426v-309h-764v90q-161 -117 -379 -117q-146 0 -278.5 56t-227.5 151t-151 226.5t-56 277.5zM410 690q0 -150 90 -272q106 -135 278 -135 q160 0 265.5 115.5t105.5 293.5q0 173 -104.5 285.5t-264.5 112.5q-159 0 -264.5 -114.5t-105.5 -285.5z" />
<glyph unicode="&#x153;" horiz-adv-x="1988" d="M55 512q0 244 154.5 398.5t398.5 154.5q264 0 393 -176q56 78 163.5 127t224.5 49q149 0 273.5 -74.5t196.5 -203.5t72 -283q0 -37 -8 -86h-772q9 -86 72.5 -138.5t158.5 -52.5q61 0 105 21t94 74h315q-67 -164 -204 -260.5t-303 -96.5q-128 0 -221.5 44.5t-166.5 140.5 q-76 -97 -171.5 -141t-227.5 -44q-236 0 -391.5 155.5t-155.5 391.5zM365 518q0 -110 72.5 -187t176.5 -77q101 0 173.5 76.5t72.5 185.5q0 106 -73.5 183t-174.5 77q-102 0 -174.5 -76t-72.5 -182zM1159 625h465q-19 82 -81 130t-150 48q-89 0 -154 -49.5t-80 -128.5z" />
<glyph unicode="&#x154;" horiz-adv-x="1208" d="M117 0v1372h434q173 0 263 -20.5t159 -77.5q79 -64 124.5 -164.5t45.5 -210.5q0 -103 -39 -193t-111 -153q-45 -37 -86 -55.5t-106 -30.5l373 -467h-402l-319 444v-444h-336zM414 1624l358 295l127 -182l-373 -275zM453 684h125q109 0 169 51.5t60 143.5q0 88 -68 143 q-31 23 -65 32t-94 9h-127v-379z" />
<glyph unicode="&#x155;" horiz-adv-x="665" d="M102 0v1030h291v-108q26 45 50 69t61 43q67 31 139 31h8v-309q-133 -3 -188 -45.5t-55 -141.5v-569h-306zM193 1239l274 330l149 -154l-297 -297z" />
<glyph unicode="&#x156;" horiz-adv-x="1208" d="M117 0v1372h434q173 0 263 -20.5t159 -77.5q79 -64 124.5 -164.5t45.5 -210.5q0 -103 -39 -193t-111 -153q-45 -37 -86 -55.5t-106 -30.5l373 -467h-402l-319 444v-444h-336zM453 684h125q109 0 169 51.5t60 143.5q0 88 -68 143q-31 23 -65 32t-94 9h-127v-379zM467 -106 h274v-209q0 -59 -8.5 -90.5t-32.5 -61.5q-46 -59 -120 -59h-113v123h55q31 0 49.5 16.5t18.5 42.5v33h-123v205z" />
<glyph unicode="&#x157;" horiz-adv-x="665" d="M102 0v1030h291v-108q26 45 50 69t61 43q67 31 139 31h8v-309q-133 -3 -188 -45.5t-55 -141.5v-569h-306zM117 -106h274v-209q0 -59 -8.5 -90.5t-32.5 -61.5q-46 -59 -121 -59h-112v123h55q31 0 49.5 16.5t18.5 42.5v33h-123v205z" />
<glyph unicode="&#x158;" horiz-adv-x="1208" d="M117 0v1372h434q173 0 263 -20.5t159 -77.5q79 -64 124.5 -164.5t45.5 -210.5q0 -103 -39 -193t-111 -153q-45 -37 -86 -55.5t-106 -30.5l373 -467h-402l-319 444v-444h-336zM170 1819h326l92 -131l92 131h328l-271 -310h-305zM453 684h125q109 0 169 51.5t60 143.5 q0 88 -68 143q-31 23 -65 32t-94 9h-127v-379z" />
<glyph unicode="&#x159;" horiz-adv-x="665" d="M10 1489h291l86 -119l84 119h293l-272 -309h-216zM102 0v1030h291v-108q26 45 50.5 70t60.5 42q60 31 139 31h8v-309q-133 -3 -188 -45.5t-55 -141.5v-569h-306z" />
<glyph unicode="&#x15a;" horiz-adv-x="1062" d="M29 453h352q0 -86 38 -136.5t103 -50.5q57 0 96 38t39 93q0 57 -41 90q-31 26 -64 41.5t-200 83.5q-146 60 -223.5 158t-77.5 223q0 112 63.5 205.5t174 148t243.5 54.5q112 0 210.5 -42t160.5 -116q46 -56 66 -114.5t26 -155.5h-348q-9 69 -38.5 101t-86.5 32 q-51 0 -86 -31.5t-35 -77.5q0 -50 35 -77q25 -25 57.5 -42.5t192.5 -89.5q172 -78 247 -170t75 -225q0 -197 -128 -309.5t-352 -112.5q-182 0 -304 72.5t-169 210.5q-17 44 -21.5 82.5t-4.5 116.5zM391 1624l357 295l129 -182l-375 -275z" />
<glyph unicode="&#x15b;" horiz-adv-x="917" d="M31 305h307q12 -94 117 -94q44 0 75 23t31 57t-26 57q-29 23 -63.5 34.5t-211.5 57.5q-95 25 -157 105t-62 180q0 142 121 241t295 99q204 0 313 -137q32 -41 47 -82t21 -105h-301q-4 40 -25.5 58t-62.5 18q-44 0 -71.5 -18t-27.5 -47q0 -70 160 -113q117 -32 170 -54 t92 -55q98 -82 98 -217q0 -149 -122.5 -249.5t-305.5 -100.5t-305 113q-51 47 -75 98.5t-31 130.5zM336 1239l274 330l150 -154l-297 -297z" />
<glyph unicode="&#x15c;" horiz-adv-x="1062" d="M29 453h352q0 -86 38 -136.5t103 -50.5q57 0 96 38t39 93q0 57 -41 90q-31 26 -64 41.5t-200 83.5q-146 60 -223.5 158t-77.5 223q0 112 63.5 205.5t174 148t243.5 54.5q112 0 210.5 -42t160.5 -116q46 -56 66 -114.5t26 -155.5h-348q-9 69 -38.5 101t-86.5 32 q-51 0 -86 -31.5t-35 -77.5q0 -50 35 -77q25 -25 57.5 -42.5t192.5 -89.5q172 -78 247 -170t75 -225q0 -197 -128 -309.5t-352 -112.5q-182 0 -304 72.5t-169 210.5q-17 44 -21.5 82.5t-4.5 116.5zM125 1509l272 310h303l265 -310h-326l-94 131l-92 -131h-328z" />
<glyph unicode="&#x15d;" horiz-adv-x="917" d="M31 305h307q12 -94 117 -94q44 0 75 23t31 57t-26 57q-29 23 -63.5 34.5t-211.5 57.5q-95 25 -157 105t-62 180q0 142 121 241t295 99q204 0 313 -137q32 -41 47 -82t21 -105h-301q-4 40 -25.5 58t-62.5 18q-44 0 -71.5 -18t-27.5 -47q0 -70 160 -113q117 -32 170 -54 t92 -55q98 -82 98 -217q0 -149 -122.5 -249.5t-305.5 -100.5t-305 113q-51 47 -75 98.5t-31 130.5zM88 1180l272 309h215l267 -309h-291l-86 118l-84 -118h-293z" />
<glyph unicode="&#x15e;" horiz-adv-x="1062" d="M29 453h352q0 -85 38 -135t103 -50q57 0 96 38t39 93q0 57 -41 90q-32 26 -65 41.5t-199 83.5q-147 60 -224 157.5t-77 223.5q0 170 140 288t341 118q112 0 210.5 -42t160.5 -116q46 -56 66 -114.5t26 -155.5h-348q-9 69 -38.5 101t-86.5 32q-51 0 -86 -31.5t-35 -77.5 q0 -50 35 -77q25 -25 57.5 -42.5t192.5 -89.5q173 -78 247.5 -169.5t74.5 -225.5q0 -127 -59 -225t-165 -148q-42 -20 -87.5 -30t-133.5 -19l-35 -67q18 4 39 4q67 0 113.5 -46t46.5 -114q0 -94 -64.5 -156.5t-162.5 -62.5q-91 0 -144.5 48.5t-62.5 139.5h145q20 -53 68 -53 q31 0 51.5 20.5t20.5 49.5q0 30 -20 49.5t-50 19.5q-31 0 -57 -30l-107 63l76 144q-195 29 -296.5 152t-94.5 321z" />
<glyph unicode="&#x15f;" horiz-adv-x="917" d="M31 305h307q12 -94 117 -94q44 0 75 23t31 57t-26 57q-29 23 -63.5 34.5t-211.5 57.5q-95 25 -157 105t-62 180q0 142 121 241t295 99q204 0 313 -137q32 -41 47 -82t21 -105h-301q-4 40 -25.5 58t-62.5 18q-44 0 -71.5 -18t-27.5 -47q0 -70 160 -113q117 -32 170 -54 t92 -55q98 -82 98 -215q0 -145 -109.5 -241.5t-287.5 -108.5l-37 -71q30 6 51 6q61 0 105.5 -45.5t44.5 -108.5q0 -88 -57 -142.5t-148 -54.5q-83 0 -135 45t-61 125h129q12 -29 25 -40t38 -11q31 0 51.5 19.5t20.5 50.5q0 28 -18 45.5t-46 17.5q-17 0 -28.5 -5.5 t-28.5 -22.5l-90 65l63 133q-137 23 -226 115.5t-95 218.5z" />
<glyph unicode="&#x160;" horiz-adv-x="1062" d="M29 453h352q0 -86 38 -136.5t103 -50.5q57 0 96 38t39 93q0 57 -41 90q-31 26 -64 41.5t-200 83.5q-146 60 -223.5 158t-77.5 223q0 112 63.5 205.5t174 148t243.5 54.5q112 0 210.5 -42t160.5 -116q46 -56 66 -114.5t26 -155.5h-348q-9 69 -38.5 101t-86.5 32 q-51 0 -86 -31.5t-35 -77.5q0 -50 35 -77q25 -25 57.5 -42.5t192.5 -89.5q172 -78 247 -170t75 -225q0 -197 -128 -309.5t-352 -112.5q-182 0 -304 72.5t-169 210.5q-17 44 -21.5 82.5t-4.5 116.5zM145 1819h326l92 -131l92 131h328l-270 -310h-305z" />
<glyph unicode="&#x161;" horiz-adv-x="917" d="M31 305h307q12 -94 117 -94q44 0 75 23t31 57t-26 57q-29 23 -63.5 34.5t-211.5 57.5q-95 25 -157 105t-62 180q0 142 121 241t295 99q204 0 313 -137q32 -41 47 -82t21 -105h-301q-4 40 -25.5 58t-62.5 18q-44 0 -71.5 -18t-27.5 -47q0 -70 160 -113q117 -32 170 -54 t92 -55q98 -82 98 -217q0 -149 -122.5 -249.5t-305.5 -100.5t-305 113q-51 47 -75 98.5t-31 130.5zM94 1489h291l86 -119l84 119h293l-273 -309h-215z" />
<glyph unicode="&#x162;" horiz-adv-x="921" d="M14 1063v309h893v-309h-270v-1063h-350v1063h-273zM324 -106h274v-209q0 -59 -8.5 -90.5t-32.5 -61.5q-46 -59 -121 -59h-112v123h55q31 0 49 16.5t18 42.5v33h-122v205z" />
<glyph unicode="&#x163;" horiz-adv-x="604" d="M-20 797v233h151v342h309v-342h148v-233h-148v-797h-309v797h-151zM152 -106h274v-209q0 -59 -8.5 -90.5t-32.5 -61.5q-46 -59 -121 -59h-112v123h55q31 0 49 16.5t18 42.5v33h-122v205z" />
<glyph unicode="&#x164;" horiz-adv-x="921" d="M14 1063v309h893v-309h-270v-1063h-350v1063h-273zM55 1819h326l92 -131l92 131h328l-270 -310h-306z" />
<glyph unicode="&#x165;" horiz-adv-x="835" d="M-20 797v233h151v342h309v-342h148v-233h-148v-797h-309v797h-151zM549 1139v123h55q31 0 49.5 16.5t18.5 42.5v35h-123v205h274v-209q0 -61 -8 -92.5t-33 -61.5q-46 -59 -120 -59h-113z" />
<glyph unicode="&#x166;" horiz-adv-x="921" d="M14 1063v309h893v-309h-270v-225h188v-310h-188v-528h-350v528h-191v310h191v225h-273z" />
<glyph unicode="&#x167;" horiz-adv-x="604" d="M-20 797v233h151v342h309v-342h148v-233h-148v-183h107v-233h-107v-381h-309v381h-111v233h111v183h-151z" />
<glyph unicode="&#x168;" horiz-adv-x="1259" d="M102 543v829h351v-829q0 -135 43 -197.5t137 -62.5q85 0 131 55q25 29 34 72.5t9 132.5v829h350v-829q0 -152 -31.5 -247.5t-105.5 -172.5q-150 -150 -387 -150q-242 0 -393 148q-77 75 -107.5 168t-30.5 254zM248 1714q56 47 104 67.5t103 20.5q45 0 83 -8.5t148 -42.5 q24 -8 51 -8q34 0 69 12.5t95 46.5l96 -182q-113 -84 -221 -84q-64 0 -239 53q-24 8 -54 8q-59 0 -135 -65z" />
<glyph unicode="&#x169;" horiz-adv-x="1157" d="M96 414v616h310v-575q0 -113 43 -156q45 -45 122 -45q83 0 128.5 53t45.5 148v575h310v-1030h-291v111q-41 -76 -106.5 -111t-168.5 -35q-185 0 -299 129q-54 63 -74 131t-20 189zM233 1337q98 95 201 95q33 0 66.5 -8t140.5 -40q37 -12 68 -12q23 0 48 12.5t85 51.5 l80 -160q-51 -50 -102 -72t-115 -22q-28 0 -48 5t-77 27q-79 27 -125 27q-37 0 -64.5 -13.5t-62.5 -49.5z" />
<glyph unicode="&#x16a;" horiz-adv-x="1259" d="M102 543v829h351v-829q0 -135 43 -197.5t137 -62.5q85 0 131 55q25 29 34 72.5t9 132.5v829h350v-829q0 -152 -31.5 -247.5t-105.5 -172.5q-150 -150 -387 -150q-242 0 -393 148q-77 75 -107.5 168t-30.5 254zM289 1565v207h706v-207h-706z" />
<glyph unicode="&#x16b;" horiz-adv-x="1157" d="M96 414v616h310v-575q0 -113 43 -156q45 -45 122 -45q83 0 128.5 53t45.5 148v575h310v-1030h-291v111q-41 -76 -106.5 -111t-168.5 -35q-185 0 -299 129q-54 63 -74 131t-20 189zM262 1221v180h660v-180h-660z" />
<glyph unicode="&#x16c;" horiz-adv-x="1259" d="M102 543v829h351v-829q0 -135 43 -197.5t137 -62.5q85 0 131 55q25 29 34 72.5t9 132.5v829h350v-829q0 -152 -31.5 -247.5t-105.5 -172.5q-150 -150 -387 -150q-242 0 -393 148q-77 75 -107.5 168t-30.5 254zM256 1812h236q17 -102 145 -102q71 0 107.5 24t43.5 78h238 q-6 -79 -28.5 -129t-71.5 -92q-51 -43 -129 -69.5t-156 -26.5q-90 0 -173 31.5t-132 85.5q-40 41 -58 85.5t-22 114.5z" />
<glyph unicode="&#x16d;" horiz-adv-x="1157" d="M96 414v616h310v-575q0 -113 43 -156q45 -45 122 -45q83 0 128.5 53t45.5 148v575h310v-1030h-291v111q-41 -76 -106.5 -111t-168.5 -35q-185 0 -299 129q-54 63 -74 131t-20 189zM252 1452h197q22 -51 56 -70.5t99 -19.5q105 0 139 90h197q-9 -134 -98 -206t-246 -72 t-246 72t-98 206z" />
<glyph unicode="&#x16e;" horiz-adv-x="1259" d="M102 543v829h351v-829q0 -135 43 -197.5t137 -62.5q85 0 131 55q25 29 34 72.5t9 132.5v829h350v-829q0 -152 -31.5 -247.5t-105.5 -172.5q-150 -150 -387 -150q-242 0 -393 148q-77 75 -107.5 168t-30.5 254zM406 1698q0 97 70.5 165t170.5 68q95 0 164.5 -69.5 t69.5 -165.5q0 -97 -70 -166.5t-168 -69.5t-167.5 70t-69.5 168zM557 1698q0 -38 25 -64t61 -26q35 0 60.5 26.5t25.5 61.5q0 37 -25 63.5t-59 26.5q-37 0 -62.5 -25.5t-25.5 -62.5z" />
<glyph unicode="&#x16f;" horiz-adv-x="1157" d="M96 414v616h310v-575q0 -113 43 -156q45 -45 122 -45q83 0 128.5 53t45.5 148v575h310v-1030h-291v111q-41 -76 -106.5 -111t-168.5 -35q-185 0 -299 129q-54 63 -74 131t-20 189zM356 1364q0 95 69 162t167 67q94 0 161.5 -67.5t67.5 -161.5q0 -95 -68 -163t-163 -68 q-97 0 -165.5 68t-68.5 163zM500 1364q0 -38 26 -65t62 -27q37 0 63.5 27t26.5 65q0 37 -26.5 64.5t-61.5 27.5q-37 0 -63.5 -27t-26.5 -65z" />
<glyph unicode="&#x170;" horiz-adv-x="1259" d="M102 543v829h351v-829q0 -135 43 -197.5t137 -62.5q85 0 131 55q25 29 34 72.5t9 132.5v829h350v-829q0 -152 -31.5 -247.5t-105.5 -172.5q-150 -150 -387 -150q-242 0 -393 148q-77 75 -107.5 168t-30.5 254zM311 1624l359 295l127 -182l-375 -275zM723 1624l358 295 l127 -182l-374 -275z" />
<glyph unicode="&#x171;" horiz-adv-x="1157" d="M96 414v616h310v-575q0 -113 43 -156q45 -45 122 -45q83 0 128.5 53t45.5 148v575h310v-1030h-291v111q-41 -76 -106.5 -111t-168.5 -35q-185 0 -299 129q-54 63 -74 131t-20 189zM297 1239l274 330l152 -154l-299 -297zM643 1239l275 330l151 -154l-299 -297z" />
<glyph unicode="&#x172;" horiz-adv-x="1259" d="M102 543v829h351v-829q0 -136 43 -199t137 -63q85 0 131 55q25 29 34 73.5t9 133.5v829h350v-829q0 -153 -31 -247.5t-106 -174.5q-56 -59 -131 -94q-105 -69 -105 -152q0 -41 28 -68.5t69 -27.5q35 0 96 26v-167q-97 -37 -166 -37q-97 0 -165 55t-68 133q0 91 84 184 q-14 -2 -35 -2q-236 0 -387 148q-77 77 -107.5 169.5t-30.5 254.5z" />
<glyph unicode="&#x173;" horiz-adv-x="1157" d="M96 414v616h310v-575q0 -113 43 -156q45 -45 122 -45q83 0 128.5 53t45.5 148v575h310v-1030h-137q-63 -34 -89 -63.5t-26 -69.5q0 -37 28 -63.5t68 -26.5q35 0 90 22v-153q-93 -29 -162 -29q-98 0 -158.5 50t-60.5 130q0 55 33 98t121 105v111q-70 -146 -273 -146 q-185 0 -299 129q-54 63 -74 131t-20 189z" />
<glyph unicode="&#x178;" horiz-adv-x="1126" d="M-20 1372h380l205 -551l205 551h377l-408 -872v-500h-350v500zM193 1509v310h323v-310h-323zM637 1509v310h324v-310h-324z" />
<glyph unicode="&#x179;" horiz-adv-x="942" d="M35 0v231l473 832h-473v309h866v-285l-438 -778h438v-309h-866zM346 1624l359 295l126 -182l-372 -275z" />
<glyph unicode="&#x17a;" horiz-adv-x="835" d="M35 0v211l434 586h-434v233h766v-235l-404 -562h404v-233h-766zM305 1239l275 330l149 -154l-297 -297z" />
<glyph unicode="&#x17b;" horiz-adv-x="942" d="M35 0v231l473 832h-473v309h866v-285l-438 -778h438v-309h-866zM334 1509v310h323v-310h-323z" />
<glyph unicode="&#x17c;" horiz-adv-x="835" d="M35 0v211l434 586h-434v233h766v-235l-404 -562h404v-233h-766zM297 1182v280h295v-280h-295z" />
<glyph unicode="&#x17d;" horiz-adv-x="942" d="M35 0v231l473 832h-473v309h866v-285l-438 -778h438v-309h-866zM66 1819h325l92 -131l92 131h328l-270 -310h-305z" />
<glyph unicode="&#x17e;" horiz-adv-x="835" d="M35 0v211l434 586h-434v233h766v-235l-404 -562h404v-233h-766zM63 1489h291l86 -119l84 119h293l-272 -309h-215z" />
<glyph unicode="&#x192;" horiz-adv-x="1132" d="M78 -254l49 274q16 -2 33 -2q98 0 143.5 47.5t67.5 170.5l106 622h-135l39 232h137l10 59q15 86 50 147.5t98 112.5q123 102 289 102q50 0 77 -6l-41 -248q-144 6 -165 -141l-5 -26h136l-41 -232h-133l-103 -582q-29 -165 -57.5 -241t-83.5 -139q-66 -75 -163.5 -117.5 t-207.5 -42.5q-71 0 -100 10z" />
<glyph unicode="&#x218;" horiz-adv-x="1062" d="M29 453h352q0 -86 38 -136.5t103 -50.5q57 0 96 38t39 93q0 57 -41 90q-31 26 -64 41.5t-200 83.5q-146 60 -223.5 158t-77.5 223q0 112 63.5 205.5t174 148t243.5 54.5q112 0 210.5 -42t160.5 -116q46 -56 66 -114.5t26 -155.5h-348q-9 69 -38.5 101t-86.5 32 q-51 0 -86 -31.5t-35 -77.5q0 -50 35 -77q25 -25 57.5 -42.5t192.5 -89.5q172 -78 247 -170t75 -225q0 -197 -128 -309.5t-352 -112.5q-182 0 -304 72.5t-169 210.5q-17 44 -21.5 82.5t-4.5 116.5zM395 -106h275v-209q0 -59 -8.5 -90.5t-32.5 -61.5q-46 -59 -121 -59h-113 v123h56q31 0 49 16.5t18 42.5v33h-123v205z" />
<glyph unicode="&#x219;" horiz-adv-x="917" d="M31 305h307q12 -94 117 -94q44 0 75 23t31 57t-26 57q-29 23 -63.5 34.5t-211.5 57.5q-95 25 -157 105t-62 180q0 142 121 241t295 99q204 0 313 -137q32 -41 47 -82t21 -105h-301q-4 40 -25.5 58t-62.5 18q-44 0 -71.5 -18t-27.5 -47q0 -70 160 -113q117 -32 170 -54 t92 -55q98 -82 98 -217q0 -149 -122.5 -249.5t-305.5 -100.5t-305 113q-51 47 -75 98.5t-31 130.5zM307 -106h275v-209q0 -59 -8.5 -90.5t-32.5 -61.5q-46 -59 -121 -59h-113v123h55q31 0 49.5 16.5t18.5 42.5v33h-123v205z" />
<glyph unicode="&#x21a;" horiz-adv-x="921" d="M14 1063v309h893v-309h-270v-1063h-350v1063h-273zM324 -106h274v-209q0 -59 -8.5 -90.5t-32.5 -61.5q-46 -59 -121 -59h-112v123h55q31 0 49 16.5t18 42.5v33h-122v205z" />
<glyph unicode="&#x21b;" horiz-adv-x="604" d="M-20 797v233h151v342h309v-342h148v-233h-148v-797h-309v797h-151zM152 -106h274v-209q0 -59 -8.5 -90.5t-32.5 -61.5q-46 -59 -121 -59h-112v123h55q31 0 49 16.5t18 42.5v33h-122v205z" />
<glyph unicode="&#x2c6;" d="M137 1180l275 309h213l266 -309h-291l-86 118l-84 -118h-293z" />
<glyph unicode="&#x2c7;" d="M137 1489h291l86 -119l84 119h293l-273 -309h-215z" />
<glyph unicode="&#x2d8;" d="M172 1452h195q23 -51 56.5 -70.5t98.5 -19.5q105 0 142 90h194q-8 -134 -96.5 -206t-245.5 -72t-247 72.5t-97 205.5z" />
<glyph unicode="&#x2d9;" d="M367 1182v280h295v-280h-295z" />
<glyph unicode="&#x2da;" d="M283 1364q0 95 68.5 162t166.5 67q94 0 162 -67.5t68 -161.5q0 -95 -68.5 -163t-163.5 -68q-97 0 -165 68t-68 163zM426 1364q0 -38 26 -65t62 -27q37 0 63.5 27t26.5 65q0 37 -26.5 64.5t-61.5 27.5q-37 0 -63.5 -27t-26.5 -65z" />
<glyph unicode="&#x2db;" d="M391 -203q0 54 35 99t121 104h153q-60 -32 -86 -63.5t-26 -69.5q0 -37 28 -63.5t66 -26.5q35 0 90 22l-2 -153q-91 -29 -158 -29q-100 0 -160.5 49t-60.5 131z" />
<glyph unicode="&#x2dc;" d="M170 1337q98 95 201 95q33 0 66.5 -8t140.5 -40q38 -12 67 -12q23 0 48 12.5t85 51.5l80 -160q-51 -50 -102 -72t-115 -22q-28 0 -48 5t-77 27q-79 27 -125 27q-37 0 -64.5 -13.5t-62.5 -49.5z" />
<glyph unicode="&#x2dd;" d="M199 1239l274 330l152 -154l-299 -297zM545 1239l274 330l152 -154l-299 -297z" />
<glyph unicode="&#x3a9;" horiz-adv-x="1372" d="M49 762q0 176 85 324.5t231.5 234.5t320.5 86t320.5 -86t231.5 -235t85 -326q0 -162 -66.5 -277t-214.5 -207h273v-276h-557v254q117 60 179 175.5t62 272.5q0 181 -89.5 302.5t-223.5 121.5t-223.5 -120.5t-89.5 -300.5q0 -327 241 -451v-254h-557v276h273 q-148 92 -214.5 207.5t-66.5 278.5z" />
<glyph unicode="&#x3c0;" horiz-adv-x="1300" d="M41 752v235h1219v-235h-150v-752h-299v752h-322v-752h-299v752h-149z" />
<glyph unicode="&#x2000;" horiz-adv-x="965" />
<glyph unicode="&#x2001;" horiz-adv-x="1931" />
<glyph unicode="&#x2002;" horiz-adv-x="965" />
<glyph unicode="&#x2003;" horiz-adv-x="1931" />
<glyph unicode="&#x2004;" horiz-adv-x="643" />
<glyph unicode="&#x2005;" horiz-adv-x="482" />
<glyph unicode="&#x2006;" horiz-adv-x="321" />
<glyph unicode="&#x2007;" horiz-adv-x="321" />
<glyph unicode="&#x2008;" horiz-adv-x="241" />
<glyph unicode="&#x2009;" horiz-adv-x="386" />
<glyph unicode="&#x200a;" horiz-adv-x="107" />
<glyph unicode="&#x2010;" horiz-adv-x="522" d="M0 397v260h522v-260h-522z" />
<glyph unicode="&#x2011;" horiz-adv-x="522" d="M0 397v260h522v-260h-522z" />
<glyph unicode="&#x2012;" horiz-adv-x="522" d="M0 397v260h522v-260h-522z" />
<glyph unicode="&#x2013;" horiz-adv-x="1132" d="M90 397v260h954v-260h-954z" />
<glyph unicode="&#x2014;" horiz-adv-x="1579" d="M0 397v260h1579v-260h-1579z" />
<glyph unicode="&#x2018;" horiz-adv-x="538" d="M111 760v389q0 100 51.5 161.5t136.5 61.5h131v-166h-63q-35 0 -57.5 -19t-22.5 -50v-62h143v-315h-319z" />
<glyph unicode="&#x2019;" horiz-adv-x="538" d="M111 758v166h63q35 0 57.5 19t22.5 50v64h-143v315h319v-389q0 -101 -51.5 -163t-136.5 -62h-131z" />
<glyph unicode="&#x201a;" horiz-adv-x="538" d="M111 0v315h319v-389q0 -101 -51.5 -163t-136.5 -62h-131v166h63q35 0 57.5 19.5t22.5 50.5v63h-143z" />
<glyph unicode="&#x201c;" horiz-adv-x="997" d="M111 760v389q0 100 51.5 161.5t136.5 61.5h131v-166h-63q-35 0 -57.5 -19t-22.5 -50v-62h143v-315h-319zM569 760v389q0 100 52 161.5t137 61.5h131v-166h-64q-35 0 -57.5 -19t-22.5 -50v-62h144v-315h-320z" />
<glyph unicode="&#x201d;" horiz-adv-x="997" d="M111 758v166h63q35 0 57.5 19t22.5 50v64h-143v315h319v-389q0 -101 -51.5 -163t-136.5 -62h-131zM569 758v166h64q35 0 57.5 19t22.5 50v64h-144v315h320v-389q0 -101 -52 -163t-137 -62h-131z" />
<glyph unicode="&#x201e;" horiz-adv-x="997" d="M111 0v315h319v-389q0 -101 -51.5 -163t-136.5 -62h-131v166h63q35 0 57.5 19.5t22.5 50.5v63h-143zM569 0v315h320v-389q0 -101 -52 -163t-137 -62h-131v166h64q35 0 57.5 19.5t22.5 50.5v63h-144z" />
<glyph unicode="&#x2020;" horiz-adv-x="1132" d="M106 762v268h306v342h305v-342h307v-268h-307v-1106h-305v1106h-306z" />
<glyph unicode="&#x2021;" horiz-adv-x="1132" d="M106 0v268h306v494h-306v268h306v342h305v-342h307v-268h-307v-494h307v-268h-307v-344h-305v344h-306z" />
<glyph unicode="&#x2022;" horiz-adv-x="1372" d="M403 696q0 120 84.5 203.5t206.5 83.5q114 0 197.5 -85t83.5 -202t-84 -200.5t-201 -83.5q-118 0 -202.5 83.5t-84.5 200.5z" />
<glyph unicode="&#x2024;" horiz-adv-x="514" d="M113 0v285h288v-285h-288z" />
<glyph unicode="&#x2025;" d="M113 0v285h288v-285h-288zM627 0v285h288v-285h-288z" />
<glyph unicode="&#x2026;" horiz-adv-x="1617" d="M111 0v315h319v-315h-319zM649 0v315h320v-315h-320zM1190 0v315h319v-315h-319z" />
<glyph unicode="&#x202f;" horiz-adv-x="386" />
<glyph unicode="&#x2030;" horiz-adv-x="2402" d="M61 1069q0 140 97 235t239 95q146 0 242 -94.5t96 -237.5t-96.5 -237.5t-243.5 -94.5q-145 0 -239.5 94.5t-94.5 239.5zM276 1069q0 -55 35 -92t88 -37q51 0 86 36.5t35 90.5q0 53 -35 90t-86 37t-87 -36.5t-36 -88.5zM426 0l578 1372h217l-578 -1372h-217zM911 307 q0 140 97 235t239 95q146 0 242 -94.5t96 -237.5t-96.5 -237.5t-243.5 -94.5q-145 0 -239.5 94.5t-94.5 239.5zM1126 307q0 -55 35 -92t88 -37q51 0 86 36.5t35 90.5q0 53 -35 90t-86 37t-87 -36.5t-36 -88.5zM1667 307q0 140 97 235t239 95q146 0 242 -94.5t96 -237.5 t-96.5 -237.5t-243.5 -94.5q-145 0 -239.5 94.5t-94.5 239.5zM1882 307q0 -55 35 -92t88 -37q51 0 86 36.5t35 90.5q0 53 -35 90t-86 37t-87 -36.5t-36 -88.5z" />
<glyph unicode="&#x2032;" horiz-adv-x="299" d="M27 932l69 440h176l-106 -440h-139z" />
<glyph unicode="&#x2033;" horiz-adv-x="552" d="M27 932l69 440h176l-106 -440h-139zM281 932l69 440h176l-106 -440h-139z" />
<glyph unicode="&#x2039;" horiz-adv-x="389" d="M70 414v237l239 256v-289l-96 -81l96 -88v-273z" />
<glyph unicode="&#x203a;" horiz-adv-x="389" d="M82 176v277l96 82l-96 86v274l240 -246v-237z" />
<glyph unicode="&#x2044;" horiz-adv-x="313" d="M-227 0l577 1372h189l-578 -1372h-188z" />
<glyph unicode="&#x205f;" horiz-adv-x="482" />
<glyph unicode="&#x20ac;" horiz-adv-x="1490" d="M53 524l131 312h125q51 249 248 407t455 158q235 0 424 -133l-142 -324q-63 79 -129 113.5t-153 34.5q-120 0 -210.5 -67.5t-133.5 -188.5h579l-131 -312h-442q41 -110 133.5 -175.5t206.5 -65.5q171 0 284 151v-407q-130 -54 -280 -54q-168 0 -316.5 70t-250.5 196 t-138 285h-260z" />
<glyph unicode="&#x2122;" horiz-adv-x="1681" d="M20 1186v186h578v-186h-172v-596h-233v596h-173zM645 590v782h297l168 -491l166 491h297v-782h-217l6 538l-174 -538h-156l-176 540l6 -540h-217z" />
<glyph unicode="&#x2202;" d="M33 455q0 185 118 309.5t295 124.5q77 0 131 -19t113 -65q-53 92 -88 130.5t-106 82.5q-180 85 -381 102l37 246q203 -22 341.5 -73.5t247.5 -145.5q254 -224 254 -604q0 -312 -184 -459q-123 -102 -305 -102q-206 0 -339.5 134t-133.5 339zM315 442q0 -85 58 -147 t137 -62q83 0 140 61.5t57 149.5t-55.5 148.5t-135.5 60.5q-85 0 -143 -61t-58 -150z" />
<glyph unicode="&#x2206;" horiz-adv-x="1343" d="M18 0l488 1372h330l491 -1372h-1309zM424 276h489l-239 760z" />
<glyph unicode="&#x220f;" horiz-adv-x="1372" d="M37 -258h149v1546h-149v256h1300v-256h-147v-1546h147v-256h-563v256h129v1546h-434v-1546h129v-256h-561v256z" />
<glyph unicode="&#x2211;" horiz-adv-x="1372" d="M70 -176l477 721l-477 661v338h1218v-534h-289l-34 241h-537l496 -704l-494 -768h555l19 252h303v-545h-1237v338z" />
<glyph unicode="&#x221a;" horiz-adv-x="1372" d="M0 514v264h367l51 -209q22 -89 41 -295h18q44 328 123 641l201 787h571v-264h-338l-360 -1438h-373l-117 514h-184z" />
<glyph unicode="&#x221e;" horiz-adv-x="1372" d="M35 702q0 141 92.5 233.5t234.5 92.5q180 0 318 -182q138 182 330 182q143 0 234 -91.5t91 -236.5q0 -143 -91 -235t-232 -92q-188 0 -322 184q-144 -184 -328 -184q-145 0 -236 91.5t-91 237.5zM262 698q0 -54 38 -91.5t93 -37.5q50 0 92.5 30t89.5 99l-6 13 q-80 118 -176 118q-55 0 -93 -37.5t-38 -93.5zM795 700q84 -129 182 -129q55 0 93 37.5t38 91.5q0 55 -37.5 92t-93.5 37q-50 0 -92.5 -30t-89.5 -99z" />
<glyph unicode="&#x222b;" d="M78 -494l51 301q56 -20 90 -20q40 0 70.5 19t42.5 53q8 20 9 48.5t1 178.5v799q0 223 3.5 276t19.5 117q34 124 140.5 195t260.5 71q79 0 184 -20l-51 -303q-49 20 -92 20q-83 0 -111 -70q-10 -29 -10 -122v-895q0 -214 -1 -257t-9 -87q-28 -159 -135.5 -240.5 t-290.5 -81.5q-108 0 -172 18z" />
<glyph unicode="&#x2248;" d="M16 369q58 147 135 217.5t177 70.5q69 0 231 -67q78 -33 103 -41t49 -8q41 0 69.5 20t69.5 80l164 -113q-64 -158 -137.5 -223t-186.5 -65q-43 0 -84 12.5t-145 56.5q-100 43 -148 43q-37 0 -66 -21.5t-67 -76.5zM16 831q58 149 135 220t177 71q66 0 231 -67 q84 -35 106 -42t46 -7q43 0 70.5 20t68.5 80l164 -115q-64 -157 -137.5 -221.5t-186.5 -64.5q-44 0 -87 13t-142 56q-100 43 -148 43q-37 0 -66 -21.5t-67 -78.5z" />
<glyph unicode="&#x2260;" d="M68 285v280h262l82 152h-342v280h456l144 271l207 -115l-86 -156h170v-280h-283l-82 -152h362v-280h-466l-123 -230l-209 115l65 115h-157z" />
<glyph unicode="&#x2264;" d="M70 49v295h893v-295h-893zM70 731v283l893 332v-316l-527 -160l525 -157l2 -316z" />
<glyph unicode="&#x2265;" d="M70 49v295h893v-295h-893zM70 397l2 316l524 157l-526 160v316l893 -332v-283z" />
<glyph unicode="&#x25ca;" horiz-adv-x="1372" d="M152 686l534 741l535 -741l-535 -739zM281 686l405 -557l406 557l-406 559z" />
<glyph unicode="&#x25fc;" horiz-adv-x="1034" d="M0 0v1034h1034v-1034h-1034z" />
<glyph unicode="&#xf8ff;" horiz-adv-x="1638" d="M72 207v1300h1288q86 0 146.5 -60.5t60.5 -146.5v-1300h-1288q-86 0 -146.5 60.5t-60.5 146.5zM176 252q0 -80 38.5 -123t111.5 -43t111 47.5t38 134.5q0 51 -25 93.5t-110 101.5q-51 33 -51 82q0 78 39 78q37 0 37 -66v-51h110v59q0 80 -38 123t-111 43t-111.5 -47.5 t-38.5 -134.5q0 -35 6.5 -59.5t37.5 -62.5t91 -77q51 -33 51 -78q0 -41 -9 -59t-29 -18q-37 0 -37 65v21h-111v-29zM184 784h111v211h121v123h-121v172h137v123h-248v-629zM473 922q0 -70 36.5 -109t106.5 -39t107 39t37 109v354q0 71 -37 109t-107 38t-106.5 -38 t-36.5 -109v-354zM537 94h110v441h-110v-441zM537 598h110v125h-110v-125zM584 928v340q0 47 32 47q33 0 33 -47v-340q0 -45 -33 -45q-32 0 -32 45zM700 504h39v-271q0 -70 37 -108.5t107 -38.5t106.5 38.5t36.5 108.5v70h-111v-63q0 -45 -32 -45q-33 0 -33 45v264h160v106 h-162v113h-111v-113h-37v-106zM815 784h111v484q0 47 32 47q33 0 33 -47v-484h111v496q0 71 -29 105t-90 34q-45 0 -55 -20v14h-113v-629zM1069 233q0 -70 36.5 -108.5t106.5 -38.5t107 38.5t37 108.5v25h-111v-18q0 -45 -33 -45q-32 0 -32 45v82h176v262q0 71 -37 109 t-107 38t-106.5 -38t-36.5 -109v-351zM1145 1198h39v-276q0 -70 36.5 -109t106.5 -39t106.5 39t36.5 109v69h-110v-63q0 -47 -33 -47t-33 47v270h160v107h-162v108h-110v-108h-37v-107zM1180 416v159q0 48 32 48q33 0 33 -48v-159h-65zM1376 145h21v-51h12v51h21v13h-54v-13 zM1440 94h12v43l18 -43h9l18 43v-43h12v64h-16l-18 -43l-19 43h-16v-64z" />
</font>
</defs>
</svg>
