<?xml version="1.0" standalone="no"?>
<!DOCTYPE svg PUBLIC "-//W3C//DTD SVG 1.1//EN" "http://www.w3.org/Graphics/SVG/1.1/DTD/svg11.dtd" >
<svg xmlns="http://www.w3.org/2000/svg" xmlns:xlink="http://www.w3.org/1999/xlink" version="1.1">
<metadata></metadata>
<defs>
<font id="avalonregular" horiz-adv-x="1030" >
<font-face units-per-em="2048" ascent="1536" descent="-512" />
<missing-glyph horiz-adv-x="514" />
<glyph unicode="&#xfb01;" horiz-adv-x="976" d="M18 899v117h158q6 104 25 159t65 99q46 43 119.5 67.5t159.5 24.5h20v-125q-8 2 -20 2q-130 0 -193 -69q-25 -26 -35 -62t-10 -96h258v-117h-258v-899h-131v899h-158zM711 0v1016h131v-1016h-131zM711 1139v233h131v-233h-131z" />
<glyph unicode="&#xfb02;" horiz-adv-x="976" d="M18 899v117h158q6 104 25 159t65 99q46 43 119.5 67.5t159.5 24.5h20v-125q-8 2 -20 2q-130 0 -193 -69q-25 -26 -35 -62t-10 -96h258v-117h-258v-899h-131v899h-158zM711 0v1372h131v-1372h-131z" />
<glyph unicode="&#xfb03;" horiz-adv-x="1511" d="M18 899v117h158q6 104 25 159t65 99q46 43 119.5 67.5t159.5 24.5h20v-125q-8 2 -20 2q-130 0 -193 -69q-25 -26 -35 -62t-10 -96h404q6 104 25 159t65 99q46 43 119.5 67.5t160.5 24.5h21v-125q-8 2 -21 2q-128 0 -194 -69q-25 -26 -35 -62t-10 -96h260v-117h-260v-899 h-131v899h-404v-899h-131v899h-158zM1247 0v1016h131v-1016h-131zM1247 1139v233h131v-233h-131z" />
<glyph unicode="&#xfb04;" horiz-adv-x="1511" d="M18 899v117h158q6 104 25 159t65 99q46 43 119.5 67.5t159.5 24.5h20v-125q-8 2 -20 2q-130 0 -193 -69q-25 -26 -35 -62t-10 -96h404q6 104 25 159t65 99q46 43 119.5 67.5t160.5 24.5h21v-125q-8 2 -21 2q-128 0 -194 -69q-25 -26 -35 -62t-10 -96h260v-117h-260v-899 h-131v899h-404v-899h-131v899h-158zM1247 0v1372h131v-1372h-131z" />
<glyph horiz-adv-x="0" />
<glyph horiz-adv-x="682" />
<glyph unicode=" "  horiz-adv-x="514" />
<glyph unicode="&#x09;" horiz-adv-x="514" />
<glyph unicode="&#xa0;" horiz-adv-x="514" />
<glyph unicode="!" horiz-adv-x="460" d="M162 0v233h137v-233h-137zM162 358v1014h137v-1014h-137z" />
<glyph unicode="&#x22;" horiz-adv-x="489" d="M72 1372h127l-15 -399h-98zM291 1372h127l-15 -399h-98z" />
<glyph unicode="#" d="M68 477l12 94h207l32 228h-206l14 96h205l49 350h96l-49 -350h227l50 350h96l-49 -350h213l-15 -96h-213l-32 -228h213l-13 -94h-213l-49 -350h-96l49 350h-227l-50 -350h-96l51 350h-206zM383 571h225l33 228h-225z" />
<glyph unicode="$" d="M96 395q0 17 2 27h125q5 -56 15 -88.5t34 -63.5q75 -104 207 -104q106 0 178 72t72 176q0 109 -80 180q-34 29 -70 45.5t-110 34.5q-100 25 -157.5 54.5t-96.5 78.5q-74 90 -74 217q0 124 74 212.5t199 113.5v155h137v-151q134 -23 214.5 -115t88.5 -229h-129 q-3 100 -66.5 162.5t-160.5 62.5t-158 -62.5t-61 -162.5q0 -82 51 -133q29 -29 63.5 -45t120.5 -39q172 -44 248 -119q50 -46 77 -115.5t27 -144.5q0 -141 -90 -244t-225 -115v-184h-137v182q-137 26 -227.5 123t-90.5 219z" />
<glyph unicode="%" horiz-adv-x="1773" d="M78 1051q0 140 103.5 243t244.5 103t244.5 -104t103.5 -246t-103.5 -246.5t-244.5 -104.5q-145 0 -246.5 103.5t-101.5 251.5zM186 1049q0 -106 70 -179t170 -73q101 0 170.5 73.5t69.5 180.5q0 100 -71 172.5t-169 72.5q-97 0 -168.5 -73t-71.5 -174zM524 0l617 1372 h106l-616 -1372h-107zM997 330q0 139 104.5 242.5t244.5 103.5q141 0 244.5 -104t103.5 -246t-103.5 -246.5t-244.5 -104.5q-145 0 -247 103.5t-102 251.5zM1106 328q0 -106 70 -179t170 -73q101 0 170 73.5t69 180.5q0 100 -70.5 172.5t-168.5 72.5q-97 0 -168.5 -73.5 t-71.5 -173.5z" />
<glyph unicode="&#x26;" horiz-adv-x="1382" d="M78 397q0 265 317 406q-67 70 -82 90q-32 41 -50.5 95t-18.5 104q0 126 96 215.5t231 89.5t232.5 -95t97.5 -227q0 -103 -70.5 -185t-197.5 -128l260 -256l199 387h155l-254 -483l346 -340l-98 -95l-313 308q-82 -159 -183 -233.5t-235 -74.5q-178 0 -305 124t-127 298z M215 387q0 -115 84.5 -200t200.5 -85q140 0 241 138q41 56 84 141l-331 324q-19 -11 -19 -13q-17 -7 -48 -23t-36 -18q-80 -38 -128 -110t-48 -154zM381 1092q0 -51 26.5 -93.5t102.5 -115.5q3 -2 10 -9.5t12 -11.5l13 4q101 34 160 93.5t59 127.5q0 72 -58.5 127.5 t-134.5 55.5q-78 0 -134 -52.5t-56 -125.5z" />
<glyph unicode="'" horiz-adv-x="270" d="M72 1372h127l-15 -399h-98z" />
<glyph unicode="(" horiz-adv-x="710" d="M78 512q0 414 299 725q72 75 129.5 112.5t142.5 63.5v-131q-91 -54 -155 -115t-119 -147q-160 -246 -160 -508q0 -152 53 -303.5t150 -276.5q46 -60 99.5 -105.5t131.5 -92.5v-131q-204 70 -373 301q-198 269 -198 608z" />
<glyph unicode=")" horiz-adv-x="710" d="M61 -266q91 54 155.5 115t119.5 147q160 249 160 508q0 152 -53 303t-150 276q-88 112 -232 201v129q201 -66 373 -301q199 -270 199 -608q0 -202 -76 -386.5t-223 -338.5q-72 -75 -130 -112.5t-143 -63.5v131z" />
<glyph unicode="*" horiz-adv-x="806" d="M117 1126l33 103l202 -70l-2 213h109l-4 -215l200 70l35 -105l-205 -61l127 -170l-88 -66l-123 176l-122 -174l-89 64l129 172z" />
<glyph unicode="+" d="M90 625v123h365v354h123v-354h364v-123h-364v-355h-123v355h-365z" />
<glyph unicode="," horiz-adv-x="405" d="M29 -125l164 358h137l-164 -358h-137z" />
<glyph unicode="-" horiz-adv-x="479" d="M0 459v123h479v-123h-479z" />
<glyph unicode="." horiz-adv-x="405" d="M135 0v233h137v-233h-137z" />
<glyph unicode="/" horiz-adv-x="790" d="M-16 -356l577 1728h127l-582 -1728h-122z" />
<glyph unicode="0" d="M72 496v409q0 204 108 332q62 75 150 117.5t184 42.5q192 0 317 -139t125 -353v-409q0 -118 -21.5 -198t-70.5 -146q-64 -86 -154 -131.5t-196 -45.5q-115 0 -211.5 53.5t-159.5 151.5q-71 116 -71 316zM209 518q0 -208 63 -293q92 -127 242 -127q81 0 147 39t109 111 q49 82 49 270v356q0 186 -67 275q-41 56 -107.5 90.5t-130.5 34.5q-70 0 -141 -41.5t-111 -106.5q-23 -38 -38 -108.5t-15 -143.5v-356z" />
<glyph unicode="1" d="M268 1249v123h373v-1372h-137v1249h-236z" />
<glyph unicode="2" d="M61 0v123l482 465q125 120 164 168q96 119 96 227q0 119 -88 205t-209 86q-82 0 -153.5 -42.5t-108.5 -113.5q-34 -62 -37 -188h-135v18q0 198 123.5 323.5t318.5 125.5q177 0 301.5 -122.5t124.5 -295.5q0 -108 -55.5 -204.5t-194.5 -227.5l-444 -424h688v-123h-873z " />
<glyph unicode="3" d="M61 430h136q6 -75 17.5 -116t37.5 -81q44 -64 108.5 -99.5t135.5 -35.5q124 0 214.5 92t90.5 218q0 107 -66 191.5t-168 109.5q-42 10 -159 12v121q20 -2 47 -2q115 0 185.5 59t70.5 156q0 94 -61.5 156.5t-153.5 62.5t-149.5 -68t-57.5 -176h-135q5 163 101 265t247 102 q146 0 246 -102t100 -251q0 -80 -32.5 -139t-108.5 -119q111 -59 171 -154.5t60 -215.5q0 -181 -130 -311t-310 -130q-187 0 -310.5 129t-126.5 326z" />
<glyph unicode="4" d="M25 252v123l665 997h164v-997h125v-123h-125v-252h-137v252h-692zM182 375h535v807z" />
<glyph unicode="5" d="M41 430h135q17 -148 110 -240t224 -92q137 0 233.5 103.5t96.5 251.5t-97.5 253t-234.5 105q-156 0 -281 -156l-106 39l123 678h618v-123h-508l-69 -381q124 66 235 66q92 0 176.5 -38.5t146 -103t98 -153.5t36.5 -186q0 -130 -62 -240t-168.5 -174t-232.5 -64 q-138 0 -251 73t-173 200q-34 69 -49 182z" />
<glyph unicode="6" d="M45 459q0 98 33 178.5t133 228.5l340 506h158l-320 -471q78 33 154 33q117 0 219 -65.5t162.5 -175.5t60.5 -236q0 -198 -138 -340t-331 -142q-196 0 -333.5 141.5t-137.5 342.5zM182 463q0 -152 98 -258.5t236 -106.5q137 0 234.5 104.5t97.5 252.5q0 145 -98.5 249.5 t-233.5 104.5q-136 0 -235 -102.5t-99 -243.5z" />
<glyph unicode="7" d="M135 1249v123h793v-123l-561 -1249h-146l565 1249h-651z" />
<glyph unicode="8" d="M78 399q0 120 65 223t168 144q-62 39 -90 72q-71 86 -71 204q0 149 105 252t259 103t259.5 -104.5t105.5 -256.5q0 -188 -164 -270q110 -51 174.5 -148.5t64.5 -214.5q0 -116 -59.5 -214.5t-161.5 -156t-221 -57.5q-117 0 -217 57.5t-158.5 155t-58.5 211.5zM215 393 q0 -123 87 -209t210 -86q126 0 215.5 88.5t89.5 212.5q0 123 -88.5 210t-214.5 87q-123 0 -211 -88.5t-88 -214.5zM287 1053q0 -94 67 -161t162 -67q91 0 158 67t67 159t-65.5 157.5t-159.5 65.5t-161.5 -65t-67.5 -156z" />
<glyph unicode="9" d="M45 915q0 198 138 340t331 142q196 0 333.5 -141.5t137.5 -342.5q0 -99 -32 -177t-134 -230l-342 -506h-155l317 471q-78 -33 -152 -33q-117 0 -219 65.5t-162.5 175.5t-60.5 236zM182 918q0 -145 98.5 -250t233.5 -105q136 0 235 102.5t99 243.5q0 152 -98 258.5 t-236 106.5q-137 0 -234.5 -104.5t-97.5 -251.5z" />
<glyph unicode=":" horiz-adv-x="405" d="M135 0v233h137v-233h-137zM135 782v234h137v-234h-137z" />
<glyph unicode=";" horiz-adv-x="405" d="M29 -125l164 358h137l-164 -358h-137zM193 782v234h137v-234h-137z" />
<glyph unicode="&#x3c;" d="M70 635v115l893 411v-131l-752 -338l752 -340v-129z" />
<glyph unicode="=" d="M90 502l2 123h850v-123h-852zM90 750l2 122h850v-122h-852z" />
<glyph unicode="&#x3e;" d="M70 223v131l751 338l-751 338v131l891 -411v-115z" />
<glyph unicode="?" horiz-adv-x="960" d="M31 944v37q0 169 129 292.5t307 123.5t299 -118.5t121 -293.5q0 -86 -36 -153.5t-128 -153.5q-96 -89 -138 -161t-48 -159h-138v19v10q0 172 195 348q96 88 126 136.5t30 117.5q0 113 -85.5 195t-203.5 82q-75 0 -142.5 -37.5t-111.5 -104.5q-24 -36 -34 -75t-11 -105 h-131zM399 0v233h138v-233h-138z" />
<glyph unicode="@" horiz-adv-x="1560" d="M96 532q0 197 94.5 360t259.5 257t363 94q185 0 334.5 -79t234 -218.5t84.5 -312.5q0 -128 -46.5 -241.5t-125 -181t-166.5 -67.5q-63 0 -104 39t-45 103q-93 -150 -258 -150q-126 0 -207.5 94t-81.5 240q0 175 106 297.5t257 122.5q171 0 231 -166l27 141l96 -2 l-84 -440q-14 -72 -14 -96q0 -44 23 -71.5t61 -27.5q61 0 117 57t90 151t34 196q0 227 -158.5 374.5t-402.5 147.5q-172 0 -315 -82t-225 -225.5t-82 -315.5q0 -125 43.5 -237.5t125.5 -198.5q176 -182 474 -182q226 0 440 100l29 -88q-219 -102 -469 -102q-332 0 -535 203 q-97 97 -151 230.5t-54 276.5zM541 473q0 -107 55.5 -173.5t144.5 -66.5q104 0 175 98.5t71 243.5q0 100 -49.5 158t-134.5 58q-107 0 -184.5 -94t-77.5 -224z" />
<glyph unicode="A" horiz-adv-x="1349" d="M10 0l588 1372h154l589 -1372h-149l-199 463h-639l-200 -463h-144zM406 586h534l-264 631z" />
<glyph unicode="B" horiz-adv-x="1095" d="M147 0v1372h345q205 0 317 -90q63 -49 98 -121.5t35 -152.5q0 -87 -35 -151.5t-116 -125.5q107 -43 168 -132.5t61 -205.5q0 -96 -43 -179t-119 -134q-68 -46 -145 -63t-219 -17h-347zM285 123h192q177 0 258 37q64 29 106 95t42 138q0 75 -45 140.5t-117 93.5 q-49 18 -102.5 24t-165.5 6h-168v-534zM285 780h172q92 0 144 9t93 32q48 26 79.5 80t31.5 111q0 49 -25 99t-65 79q-75 59 -246 59h-184v-469z" />
<glyph unicode="C" horiz-adv-x="1478" d="M74 686q0 195 94.5 358.5t259 258t360.5 94.5q251 0 449 -156q134 -108 182 -219h-153q-78 117 -206.5 184.5t-271.5 67.5q-114 0 -220.5 -48t-184.5 -127.5t-125 -188.5t-47 -226q0 -114 47.5 -222t125.5 -188t184.5 -128t219.5 -48q88 0 180.5 31.5t164.5 85.5 q75 58 139 145h153q-97 -179 -266.5 -282t-365.5 -103q-147 0 -280 56t-229.5 151t-153 226.5t-56.5 277.5z" />
<glyph unicode="D" horiz-adv-x="1380" d="M147 0v1372h394q278 0 452 -112q144 -92 229 -248t85 -328q0 -174 -86.5 -330t-233.5 -248q-166 -106 -438 -106h-402zM285 123h198q183 0 289 28.5t195 102.5q202 168 202 434q0 145 -65.5 265t-188.5 198q-82 52 -182.5 75t-249.5 23h-198v-1126z" />
<glyph unicode="E" horiz-adv-x="997" d="M147 0v1372h752v-123h-614v-493h594v-123h-594v-510h614v-123h-752z" />
<glyph unicode="F" horiz-adv-x="901" d="M147 0v1372h695v-123h-557v-497h536v-123h-536v-629h-138z" />
<glyph unicode="G" horiz-adv-x="1603" d="M74 686q0 193 98 357t266.5 259t368.5 95q254 0 450 -152q152 -117 195 -237h-156q-67 120 -200.5 193t-284.5 73q-162 0 -300.5 -79.5t-219 -215t-80.5 -293.5q0 -159 81 -294.5t221 -214.5t304 -79q190 0 349.5 118.5t203.5 291.5h-766v123h932q-11 -137 -73 -258.5 t-158.5 -209t-225 -138t-268.5 -50.5q-197 0 -367 96.5t-270 260.5t-100 354z" />
<glyph unicode="H" horiz-adv-x="1284" d="M147 0v1372h138v-604h712v604h138v-1372h-138v645h-712v-645h-138z" />
<glyph unicode="I" horiz-adv-x="434" d="M147 0v1372h138v-1372h-138z" />
<glyph unicode="J" horiz-adv-x="868" d="M0 326h135q7 -100 75 -164t165 -64q72 0 128 39t79 105q16 52 16 164v966h137v-966q0 -99 -9.5 -154t-35.5 -100q-46 -82 -132 -129.5t-187 -47.5q-156 0 -259 97.5t-112 253.5z" />
<glyph unicode="K" horiz-adv-x="1114" d="M147 0v1372h138v-788l633 788h176l-543 -670l543 -702h-172l-459 594l-178 -217v-377h-138z" />
<glyph unicode="L" horiz-adv-x="890" d="M147 0v1372h138v-1249h569v-123h-707z" />
<glyph unicode="M" horiz-adv-x="1720" d="M147 0v1372h211l500 -1167l500 1167h213v-1372h-137v1221l-519 -1221h-116l-514 1221v-1221h-138z" />
<glyph unicode="N" horiz-adv-x="1388" d="M147 0v1372h187l770 -1139v1139h137v-1372h-137l-819 1208v-1208h-138z" />
<glyph unicode="O" horiz-adv-x="1599" d="M74 694q0 140 58.5 270t156.5 225t232.5 151.5t279.5 56.5q196 0 363.5 -95.5t265.5 -259.5t98 -356q0 -143 -58 -274.5t-155.5 -227t-231.5 -152.5t-280 -57q-200 0 -367.5 96t-264.5 261.5t-97 361.5zM211 690q0 -161 79 -297.5t215.5 -215.5t297.5 -79 q157 0 292.5 79.5t215.5 214.5t80 292q0 159 -79.5 295t-215.5 215.5t-295 79.5q-117 0 -226 -47t-189 -125.5t-127.5 -186.5t-47.5 -225z" />
<glyph unicode="P" horiz-adv-x="1107" d="M147 0v1372h383q127 0 209 -18.5t148 -61.5q80 -53 125 -140t45 -191q0 -95 -38.5 -176.5t-109.5 -135.5q-122 -94 -346 -94h-278v-555h-138zM285 678h258q94 0 152.5 12.5t103.5 42.5q56 35 88.5 97.5t32.5 132.5q0 83 -43 149t-119 100q-53 24 -101.5 30.5t-173.5 6.5 h-198v-571z" />
<glyph unicode="Q" horiz-adv-x="1624" d="M74 682q0 149 57 281.5t155.5 227.5t236 150.5t292.5 55.5t292 -55t234.5 -150.5t154 -229.5t56.5 -286q0 -291 -231 -506q98 -68 180 -68q17 0 29 2v-129q-99 0 -167 26.5t-140 92.5q-175 -119 -412 -119q-201 0 -370.5 94.5t-268 257.5t-98.5 355zM211 676 q0 -67 22 -158q145 45 291 45q296 0 525 -162q95 -69 176 -139q190 187 190 418q0 122 -47 232t-127 189t-191 126t-233 47q-166 0 -305.5 -79.5t-220 -217t-80.5 -301.5zM291 401q48 -97 158 -182q157 -121 368 -121q176 0 301 90q-20 17 -28 21q-34 29 -80 63 q-210 168 -506 168q-113 0 -213 -39z" />
<glyph unicode="R" horiz-adv-x="1163" d="M147 0v1372h349q206 0 309 -39q126 -50 200 -158.5t74 -244.5q0 -172 -114.5 -290t-292.5 -128l387 -512h-172l-465 623h55q133 0 192 9.5t115 39.5q72 38 115 109.5t43 154.5q0 79 -40.5 150.5t-108.5 111.5q-91 51 -269 51h-239v-1249h-138z" />
<glyph unicode="S" horiz-adv-x="950" d="M31 385h147q6 -63 21 -104.5t43 -79.5q37 -46 97 -74.5t122 -28.5q114 0 196 81t82 194q0 56 -25 107.5t-69 88.5q-36 32 -81.5 51.5t-131.5 41.5q-109 28 -163.5 53t-96.5 67q-96 96 -96 246q0 158 110.5 263.5t276.5 105.5q161 0 271 -107t110 -264h-144 q-9 111 -77.5 179.5t-171.5 68.5q-100 0 -169 -70.5t-69 -171.5q0 -45 18 -88t48 -70q52 -44 204 -86q125 -36 168 -54t88 -56q65 -54 101.5 -133t36.5 -166q0 -166 -123.5 -285t-296.5 -119q-183 0 -300.5 113.5t-125.5 296.5z" />
<glyph unicode="T" horiz-adv-x="817" d="M25 1249v123h768v-123h-316v-1249h-137v1249h-315z" />
<glyph unicode="U" horiz-adv-x="1204" d="M135 516v856h137v-856q0 -189 88 -298t242 -109t242 109t88 298v856h137v-856q0 -234 -100 -366q-63 -82 -160.5 -128.5t-206.5 -46.5t-205.5 46.5t-158.5 128.5q-103 132 -103 366z" />
<glyph unicode="V" horiz-adv-x="1261" d="M-4 1372h151l484 -1200l485 1200h150l-570 -1372h-135z" />
<glyph unicode="W" horiz-adv-x="1802" d="M31 1372h141l336 -1196l330 1196h129l327 -1194l338 1194h142l-394 -1372h-176l-303 1124l-301 -1124h-178z" />
<glyph unicode="X" horiz-adv-x="1120" d="M10 0l467 700l-440 672h160l366 -549l363 549h157l-440 -672l469 -700h-162l-387 586l-391 -586h-162z" />
<glyph unicode="Y" horiz-adv-x="1101" d="M2 1372h152l393 -770l401 770h150l-482 -913v-459h-137v459z" />
<glyph unicode="Z" horiz-adv-x="954" d="M51 0v123l674 1126h-653v123h809v-123l-674 -1126h694v-123h-850z" />
<glyph unicode="[" horiz-adv-x="710" d="M141 115v782q0 124 32.5 210.5t109.5 164.5q106 112 233 141v-133q-242 -95 -242 -381v-760q0 -160 53 -248t189 -155v-133q-149 42 -248 153q-68 75 -97.5 158.5t-29.5 200.5z" />
<glyph unicode="\" horiz-adv-x="790" d="M102 1372h127l578 -1728h-123z" />
<glyph unicode="]" horiz-adv-x="710" d="M197 -264q118 47 179.5 144t61.5 237v760q0 160 -52.5 248t-188.5 155v133q147 -42 247 -153q68 -75 97.5 -158.5t29.5 -200.5v-782q0 -125 -32.5 -211t-108.5 -164q-106 -112 -233 -141v133z" />
<glyph unicode="^" d="M59 762l371 614h170l371 -614h-144l-313 510l-311 -510h-144z" />
<glyph unicode="_" d="M0 -141h1030v-121h-1030v121z" />
<glyph unicode="`" d="M250 1409l74 86l319 -270l-72 -82z" />
<glyph unicode="a" horiz-adv-x="1280" d="M68 510q0 146 72 268t197.5 192t276.5 70q125 0 227.5 -52t172.5 -152v180h131v-1016h-131v178q-147 -203 -400 -203q-149 0 -274.5 71.5t-198.5 194.5t-73 269zM199 514q0 -173 121.5 -297.5t291.5 -124.5q164 0 283 122.5t119 291.5q0 173 -118 295.5t-284 122.5 t-289.5 -122.5t-123.5 -287.5z" />
<glyph unicode="b" horiz-adv-x="1280" d="M135 0v1372h137v-530q66 97 166.5 147.5t225.5 50.5q149 0 275 -71t198.5 -192.5t72.5 -264.5q0 -145 -72.5 -269t-196.5 -196t-269 -72q-128 0 -237 53.5t-169 145.5v-174h-131zM264 514q0 -95 28 -166.5t89 -132.5q120 -123 291 -123q170 0 288.5 122.5t118.5 297.5 q0 172 -118.5 292t-288.5 120q-173 0 -290.5 -118.5t-117.5 -291.5z" />
<glyph unicode="c" horiz-adv-x="1173" d="M70 506q0 145 72.5 268t198 194.5t273.5 71.5q172 0 308 -89.5t198 -241.5h-153q-59 101 -152.5 158t-202.5 57q-171 0 -291 -121t-120 -293q0 -177 119 -297.5t292 -120.5q109 0 193 48.5t162 156.5h153q-49 -94 -93.5 -145t-115.5 -95q-134 -82 -286 -82 q-153 0 -280.5 70t-201 192t-73.5 269z" />
<glyph unicode="d" horiz-adv-x="1275" d="M68 508q0 146 72.5 268.5t197.5 193t274 70.5q244 0 398 -186v518h131v-1372h-123v182q-79 -96 -152 -141q-113 -66 -256 -66q-110 0 -210.5 42t-173 113.5t-115.5 170t-43 207.5zM199 518q0 -177 120 -301.5t289 -124.5q166 0 287 124t121 294q0 172 -121 293t-291 121 q-164 0 -284.5 -121t-120.5 -285z" />
<glyph unicode="e" horiz-adv-x="1198" d="M70 508q0 144 70.5 266.5t192 194t265.5 71.5q141 0 264 -72t195 -198q36 -62 51 -129.5t20 -179.5h-921q5 -99 59.5 -184t142.5 -135t187 -50q114 0 216 68.5t142 171.5h144q-56 -157 -195 -257t-303 -100q-144 0 -266 71t-193 194t-71 268zM209 578h780 q-37 158 -143 252t-248 94q-143 0 -252 -97t-137 -249z" />
<glyph unicode="f" horiz-adv-x="577" d="M18 899v117h158q6 104 25 159t65 99q46 43 119.5 67.5t159.5 24.5h20v-125q-8 2 -20 2q-130 0 -193 -69q-25 -26 -35 -62t-10 -96h258v-117h-258v-899h-131v899h-158z" />
<glyph unicode="g" horiz-adv-x="1259" d="M68 504q0 144 70 267.5t190 196t260 72.5q127 0 231.5 -54t173.5 -155v185h131v-893q0 -126 -19.5 -192.5t-76.5 -137.5q-70 -89 -183.5 -140.5t-238.5 -51.5q-109 0 -212.5 45t-178.5 125q-70 76 -111 202h136q50 -92 104 -149q47 -49 120.5 -78t151.5 -29 q164 0 270.5 105t106.5 266v113q-46 -103 -153.5 -164.5t-241.5 -61.5q-143 0 -265 71t-193.5 193t-71.5 265zM199 518q0 -182 114.5 -304t284.5 -122q164 0 279.5 123t115.5 297q0 169 -119 290.5t-286 121.5q-160 0 -274.5 -119.5t-114.5 -286.5z" />
<glyph unicode="h" horiz-adv-x="1155" d="M135 0v1372h131v-487q50 71 133.5 113t175.5 42q107 0 202 -44t157 -122q94 -120 94 -317v-557h-131v557q0 158 -74 250q-44 55 -110 86t-138 31q-73 0 -141 -34.5t-112 -94.5q-31 -40 -43.5 -94t-12.5 -144v-557h-131z" />
<glyph unicode="i" horiz-adv-x="399" d="M135 0v1016h131v-1016h-131zM135 1139v233h131v-233h-131z" />
<glyph unicode="j" horiz-adv-x="399" d="M-72 -223q113 6 159 72t46 221v946h131v-946q0 -148 -26.5 -223t-98.5 -132q-82 -65 -211 -71v133zM133 1139v233h131v-233h-131z" />
<glyph unicode="k" horiz-adv-x="948" d="M135 0v1372h131v-977l477 621h166l-399 -512l420 -504h-168l-334 401l-162 -206v-195h-131z" />
<glyph unicode="l" horiz-adv-x="399" d="M135 0v1372h131v-1372h-131z" />
<glyph unicode="m" horiz-adv-x="1765" d="M135 0v1016h131v-119q38 69 109 106t164 37q133 0 243 -77q28 -20 50 -44t57 -73q43 89 136 141.5t206 52.5q88 0 174 -42.5t143 -114.5q90 -113 90 -281v-602h-131v590q0 146 -65 225q-89 109 -215 109q-66 0 -127 -32t-101 -87q-47 -67 -47 -215v-590h-131v604 q0 138 -79 229t-199 91q-69 0 -131 -33t-97 -90q-45 -71 -45 -197v-604h-135z" />
<glyph unicode="n" horiz-adv-x="1155" d="M135 0v1016h131v-131q74 82 148 118.5t166 36.5q106 0 200 -44t154 -122q94 -122 94 -317v-557h-131v557q0 158 -74 250q-46 56 -109.5 86.5t-133.5 30.5q-72 0 -139.5 -34.5t-110.5 -94.5q-31 -41 -43.5 -94.5t-12.5 -143.5v-557h-139z" />
<glyph unicode="o" horiz-adv-x="1200" d="M70 514q0 140 72 261.5t194.5 193t263.5 71.5q106 0 204 -43t169.5 -114.5t114 -170t42.5 -204.5q0 -142 -71.5 -265t-194 -195.5t-264.5 -72.5q-145 0 -267 72t-192.5 196t-70.5 271zM201 510q0 -175 116.5 -296.5t284.5 -121.5q167 0 282 122t115 300q0 168 -112 283 q-59 61 -134 94t-151 33q-164 0 -282.5 -122.5t-118.5 -291.5z" />
<glyph unicode="p" horiz-adv-x="1280" d="M135 -356v1372h131v-174q60 92 169 145t237 53q145 0 269 -72t196.5 -195.5t72.5 -268.5q0 -107 -43 -205t-116 -169t-174 -113t-213 -42q-125 0 -225.5 51t-166.5 148v-530h-137zM264 514q0 -193 127 -311q117 -111 281 -111q170 0 288.5 120t118.5 292 q0 175 -119 297.5t-290 122.5q-170 0 -288 -119t-118 -291z" />
<glyph unicode="q" horiz-adv-x="1271" d="M70 506q0 144 72 267t195.5 195t268.5 72q129 0 238.5 -53t167.5 -145v174h125v-1372h-131v530q-65 -96 -166.5 -147.5t-225.5 -51.5q-111 0 -211.5 42t-173.5 113t-116 169.5t-43 206.5zM201 504q0 -172 118.5 -292t288.5 -120q172 0 289 118.5t117 291.5 q0 184 -117 301q-124 121 -289 121q-170 0 -288.5 -122.5t-118.5 -297.5z" />
<glyph unicode="r" horiz-adv-x="587" d="M135 0v1016h131v-146q71 161 295 170v-137q-66 -6 -104 -20.5t-80 -48.5q-58 -49 -81.5 -103t-23.5 -139v-592h-137z" />
<glyph unicode="s" horiz-adv-x="772" d="M49 299h137q4 -94 56.5 -150.5t134.5 -56.5q72 0 126 54.5t54 127.5q0 69 -46 113.5t-155 81.5q-77 26 -118 46.5t-74 49.5q-78 72 -78 185q0 121 84.5 205.5t206.5 84.5q117 0 199 -79t86 -197h-140q-4 72 -46 116t-105 44q-60 0 -107 -46.5t-47 -105.5q0 -32 17 -64.5 t45 -52.5q32 -23 118 -53q158 -53 224.5 -121t66.5 -178q0 -145 -89 -236.5t-230 -91.5q-139 0 -228.5 90.5t-91.5 233.5z" />
<glyph unicode="t" horiz-adv-x="540" d="M-37 899v117h213v356h131v-356h242v-117h-242v-899h-131v899h-213z" />
<glyph unicode="u" horiz-adv-x="1150" d="M127 457v559h131v-559q0 -151 57 -234q90 -131 256 -131q76 0 143 34t109 95q62 86 62 236v559h131v-1016h-123v156q-56 -93 -138.5 -137t-203.5 -44q-106 0 -193.5 42t-146.5 120q-84 112 -84 320z" />
<glyph unicode="v" horiz-adv-x="999" d="M0 1016h139l357 -854l364 854h139l-428 -1016h-143z" />
<glyph unicode="w" horiz-adv-x="1538" d="M20 1016h136l321 -850l234 727h114l234 -727l325 850h134l-388 -1016h-147l-215 676l-215 -676h-147z" />
<glyph unicode="x" horiz-adv-x="888" d="M20 0l347 516l-347 500h156l266 -391l267 391h159l-348 -500l348 -516h-155l-271 406l-266 -406h-156z" />
<glyph unicode="y" horiz-adv-x="962" d="M0 1016h150l323 -809l344 809h146l-588 -1372h-146l166 389z" />
<glyph unicode="z" horiz-adv-x="825" d="M43 0v117l563 782h-545v117h699v-121l-557 -778h592v-117h-752z" />
<glyph unicode="{" horiz-adv-x="710" d="M61 459v102q65 19 92 62t27 127v350q0 146 67.5 212t215.5 66h43v-110q-115 -3 -155 -41t-40 -144v-342q0 -98 -27.5 -148t-99.5 -87q70 -35 98.5 -89t28.5 -151v-325q0 -114 39 -153t156 -40v-110q-104 0 -153.5 10t-84.5 39q-47 37 -67.5 97t-20.5 159v321 q0 89 -26.5 132.5t-92.5 62.5z" />
<glyph unicode="|" d="M451 -344v1716h131v-1716h-131z" />
<glyph unicode="}" horiz-adv-x="710" d="M205 -252q117 3 156.5 40t39.5 144v342q0 98 27.5 148.5t99.5 87.5q-71 37 -99 90t-28 150v325q0 114 -39.5 152.5t-156.5 40.5v110q105 0 154.5 -10t84.5 -39q47 -37 67.5 -97t20.5 -159v-321q0 -89 26 -132.5t91 -62.5v-102q-63 -19 -90 -62.5t-27 -126.5v-348 q0 -148 -66.5 -214t-217.5 -66h-43v110z" />
<glyph unicode="~" horiz-adv-x="1372" d="M193 1257q63 125 126 177.5t150 52.5q75 0 233 -74q91 -44 129 -57t76 -13q59 0 100.5 31.5t92.5 114.5l80 -47q-58 -115 -128 -169t-161 -54q-44 0 -96 18.5t-191 83.5q-83 41 -143 41q-56 0 -100 -36t-89 -120z" />
<glyph unicode="&#xa1;" horiz-adv-x="460" d="M162 -356v1018h137v-1018h-137zM162 782v234h137v-234h-137z" />
<glyph unicode="&#xa2;" d="M76 711q0 168 114 290.5t285 137.5v174h137v-172q121 -19 211.5 -93.5t128.5 -187.5h-145q-40 72 -115 113t-170 41q-132 0 -223.5 -88t-91.5 -215q0 -126 93.5 -215.5t225.5 -89.5q83 0 148 32t125 101h143q-32 -97 -126 -170t-204 -88v-166h-137v166q-103 9 -180 55 q-99 57 -159 160t-60 215z" />
<glyph unicode="&#xa3;" d="M8 645v123h115q-45 65 -45 176q0 183 127.5 318t300.5 135q160 0 283.5 -112t142.5 -275h-129q-23 112 -109.5 188t-189.5 76q-120 0 -204.5 -96t-84.5 -232q0 -56 11 -95t40 -83h457v-123h-326q133 -142 133 -309q0 -95 -55 -213h62q158 0 237 70q92 83 92 215 q0 43 -12 90h133q17 -61 17 -105q0 -187 -148 -307q-111 -86 -315 -86h-486v123h258q80 80 80 215q0 90 -45 164q-20 35 -38.5 55t-78.5 72l-18 16h-205z" />
<glyph unicode="&#xa4;" horiz-adv-x="1224" d="M96 244l154 153q-103 134 -103 293t103 285l-150 149l74 74l150 -149q128 102 286 102q160 0 291 -102l154 153l73 -74l-153 -153q98 -130 98 -285q0 -159 -98 -293l147 -147l-73 -74l-148 148q-128 -101 -293 -101q-156 0 -284 101l-154 -154zM272 690q0 -146 98.5 -248 t239.5 -102t240.5 101.5t99.5 246.5q0 141 -100.5 243.5t-239.5 102.5q-137 0 -237.5 -102.5t-100.5 -241.5z" />
<glyph unicode="&#xa5;" d="M27 1372h151l332 -702l342 702h149l-241 -483h192v-117h-250l-106 -213h315v-117h-331v-442h-138v442h-325v117h309l-104 213h-246v117h188z" />
<glyph unicode="&#xa6;" d="M451 315h131v-659h-131v659zM451 692v680h131v-680h-131z" />
<glyph unicode="&#xa7;" d="M102 629q0 84 39.5 151.5t126.5 130.5q-35 35 -55 85.5t-20 103.5q0 125 92 211t225 86q132 0 228 -79t102 -192h-131q-4 63 -61.5 105.5t-137.5 42.5q-83 0 -135.5 -50t-52.5 -130q0 -100 112 -156l275 -135q116 -57 166.5 -119t50.5 -147q0 -74 -42 -148t-108 -117 q96 -84 96 -206q0 -140 -100.5 -234t-249.5 -94q-163 0 -271 107t-114 274h131q7 -117 77 -187.5t177 -70.5q94 0 156.5 58t62.5 144q0 57 -38 98.5t-136 92.5l-340 176q-57 29 -91 83.5t-34 115.5zM233 651q0 -89 103 -141l350 -174q48 31 78.5 82t30.5 102t-29 89.5 t-92 70.5l-326 164q-52 -32 -83.5 -85.5t-31.5 -107.5z" />
<glyph unicode="&#xa8;" d="M315 1174v233h131v-233h-131zM582 1174v233h131v-233h-131z" />
<glyph unicode="&#xa9;" horiz-adv-x="1613" d="M96 694q0 140 57.5 270t153.5 225t227 151.5t273 56.5q144 0 275.5 -56.5t227 -152t152 -227t56.5 -275.5q0 -191 -95.5 -355t-259 -260t-354.5 -96q-146 0 -278 56.5t-227 153t-151.5 229.5t-56.5 280zM162 692q0 -180 86.5 -331.5t235.5 -239.5t325 -88q129 0 248 52.5 t205.5 140t138 208t51.5 250.5q0 132 -51.5 253t-138.5 209t-206 140.5t-249 52.5q-129 0 -248 -52.5t-206 -139.5t-139 -206.5t-52 -248.5zM354 700q0 178 133.5 302t325.5 124q131 0 247 -67t159 -168h-109q-50 69 -129.5 109t-169.5 40q-143 0 -249.5 -102t-106.5 -240 q0 -134 108 -236t250 -102q178 0 299 154h113q-64 -113 -173 -176.5t-237 -63.5q-192 0 -326.5 124t-134.5 302z" />
<glyph unicode="&#xaa;" horiz-adv-x="841" d="M55 856q0 134 102.5 227t250.5 93q72 0 137 -28.5t106 -78.5v92h97v-612h-97v92q-89 -106 -245 -106q-145 0 -248 94t-103 227zM152 858q0 -100 75 -171t179 -71q100 0 172.5 70.5t72.5 167.5q0 98 -72 169t-173 71q-102 0 -178 -70.5t-76 -165.5z" />
<glyph unicode="&#xab;" horiz-adv-x="833" d="M90 522l211 369l109 -57l-174 -312l174 -313l-109 -59zM414 522l209 369l108 -57l-174 -312l174 -313l-108 -59z" />
<glyph unicode="&#xac;" d="M70 428v121h893v-549h-132v428h-761z" />
<glyph unicode="&#xad;" horiz-adv-x="479" d="M0 459v123h479v-123h-479z" />
<glyph unicode="&#xae;" horiz-adv-x="1613" d="M96 694q0 140 57.5 270t153.5 225t227 151.5t273 56.5q144 0 275.5 -56.5t227 -152t152 -227t56.5 -275.5q0 -191 -95.5 -355t-259 -260t-354.5 -96q-146 0 -278 56.5t-227 153t-151.5 229.5t-56.5 280zM162 692q0 -180 86.5 -331.5t235.5 -239.5t325 -88q129 0 248 52.5 t205.5 140t138 208t51.5 250.5q0 132 -51.5 253t-138.5 209t-206 140.5t-249 52.5q-129 0 -248 -52.5t-206 -139.5t-139 -206.5t-52 -248.5zM549 289v823h227q129 0 197 -22q82 -29 130 -96t48 -150q0 -100 -71.5 -171.5t-180.5 -80.5l246 -303h-127l-303 381h51q75 0 114 6 t74 22q44 22 70.5 62.5t26.5 87.5q0 44 -25 84.5t-65 62.5q-55 31 -168 31h-144v-737h-100z" />
<glyph unicode="&#xaf;" d="M215 1217v114h598v-114h-598z" />
<glyph unicode="&#xb0;" horiz-adv-x="778" d="M115 1108q0 107 81 185.5t191 78.5q114 0 194.5 -78t80.5 -188t-80.5 -189t-192.5 -79q-116 0 -195 78t-79 192zM203 1108q0 -78 54 -132t132 -54q75 0 129.5 54t54.5 130q0 75 -54.5 128.5t-129.5 53.5q-76 0 -131 -53t-55 -127z" />
<glyph unicode="&#xb1;" d="M90 55l2 123h850v-123h-852zM90 625v123h365v354h123v-354h364v-123h-364v-355h-123v355h-365z" />
<glyph unicode="&#xb2;" horiz-adv-x="684" d="M49 549v82l305 276q100 91 131 135t31 95q0 66 -53.5 114.5t-126.5 48.5q-49 0 -92 -24t-68 -64q-22 -37 -22 -106q0 -4 2 -8h-101v14q0 122 80 198t207 76q114 0 194 -73.5t80 -179.5q0 -65 -35.5 -123.5t-123.5 -137.5l-267 -237h422v-86h-563z" />
<glyph unicode="&#xb3;" horiz-adv-x="684" d="M49 817h101q3 -49 10 -72t24 -47q58 -77 146 -77q75 0 130.5 52.5t55.5 123.5q0 60 -40 109.5t-101 62.5q-35 6 -107 6v86q16 -2 35 -2q71 0 113.5 33t42.5 88q0 52 -36.5 86t-92.5 34t-89.5 -38t-33.5 -101v-4h-98q2 103 63.5 166t161.5 63q95 0 160 -62t65 -153 q0 -88 -84 -149q65 -32 103 -92t38 -129q0 -109 -83.5 -187.5t-200.5 -78.5q-74 0 -139.5 35.5t-102.5 95.5q-38 61 -41 151z" />
<glyph unicode="&#xb4;" d="M387 1225l320 270l73 -86l-321 -266z" />
<glyph unicode="&#xb5;" d="M104 -344v1333h132v-567q0 -112 17.5 -170.5t63.5 -101.5q35 -35 85.5 -54.5t103.5 -19.5q134 0 213 102q41 54 58.5 114t17.5 150v547h131v-989h-131v186q-50 -110 -120 -161.5t-173 -51.5q-88 0 -151.5 37t-114.5 119v-473h-132z" />
<glyph unicode="&#xb6;" d="M55 1004q0 100 42 183.5t114 127.5q88 57 252 57h477v-104h-119v-1473h-114v1473h-168v-1473h-115v850q-65 0 -92.5 4t-67.5 19q-98 37 -153.5 126.5t-55.5 209.5z" />
<glyph unicode="&#xb7;" horiz-adv-x="405" d="M135 403v234h137v-234h-137z" />
<glyph unicode="&#xb8;" d="M395 -285l82 11q6 -28 30 -46t54 -18q34 0 57 24.5t23 61.5q0 38 -25.5 64t-62.5 26q-41 0 -76 -41l-55 31l76 172h67l-45 -113q34 15 60 15q64 0 104.5 -41.5t40.5 -106.5q0 -72 -48 -121t-120 -49q-63 0 -105 34t-57 97z" />
<glyph unicode="&#xb9;" horiz-adv-x="684" d="M180 1286v86h250v-823h-100v737h-150z" />
<glyph unicode="&#xba;" horiz-adv-x="790" d="M55 860q0 129 101.5 223.5t238.5 94.5q139 0 240.5 -95.5t101.5 -226.5q0 -130 -101 -225.5t-239 -95.5q-142 0 -242 95t-100 230zM152 858q0 -101 71 -171.5t174 -70.5t173.5 70.5t70.5 173.5q0 97 -72 166.5t-172 69.5t-172.5 -70.5t-72.5 -167.5z" />
<glyph unicode="&#xbb;" horiz-adv-x="833" d="M102 209l174 313l-174 312l109 57l211 -369l-211 -372zM426 209l174 313l-174 312l109 57l208 -369l-208 -372z" />
<glyph unicode="&#xbc;" horiz-adv-x="1705" d="M180 1286v86h250v-823h-100v737h-150zM492 0l618 1372h107l-619 -1372h-106zM1051 147v82l424 594h112v-590h78v-86h-78v-147h-100v147h-436zM1169 233h318v449z" />
<glyph unicode="&#xbd;" horiz-adv-x="1705" d="M180 1286v86h250v-823h-100v737h-150zM492 0l618 1372h107l-619 -1372h-106zM1073 0v82l305 276q99 90 130.5 134.5t31.5 95.5q0 67 -54 116.5t-126 49.5q-49 0 -93 -24t-67 -64q-22 -42 -22 -109q0 -4 2 -8h-101v16q0 122 80 198.5t207 76.5q114 0 194 -74.5t80 -179.5 q0 -67 -35.5 -126t-123.5 -136l-267 -238h422v-86h-563z" />
<glyph unicode="&#xbe;" horiz-adv-x="1705" d="M49 817h101q3 -49 10 -72t24 -47q58 -77 146 -77q75 0 130.5 52.5t55.5 123.5q0 60 -40 109.5t-101 62.5q-35 6 -107 6v86q16 -2 35 -2q71 0 113.5 33t42.5 88q0 52 -36.5 86t-92.5 34t-89.5 -38t-33.5 -101v-4h-98q2 103 63.5 166t161.5 63q95 0 160 -62t65 -153 q0 -88 -84 -149q65 -32 103 -92t38 -129q0 -109 -83.5 -187.5t-200.5 -78.5q-74 0 -139.5 35.5t-102.5 95.5q-38 61 -41 151zM492 0l616 1372h106l-618 -1372h-104zM1049 147v82l424 594h112v-590h80v-86h-80v-147h-100v147h-436zM1167 233h318v449z" />
<glyph unicode="&#xbf;" horiz-adv-x="960" d="M74 31q0 86 36 153.5t128 153.5q95 88 137.5 160.5t48.5 158.5h137q6 -197 -194 -376q-96 -88 -126 -136.5t-30 -117.5q0 -113 85.5 -195t203.5 -82q75 0 141.5 37t110.5 104q24 35 34 73.5t13 107.5h129q2 -16 2 -37q0 -169 -129 -292.5t-307 -123.5t-299 118.5 t-121 293.5zM424 782v234h137v-234h-137z" />
<glyph unicode="&#xc0;" horiz-adv-x="1349" d="M10 0l588 1372h154l589 -1372h-149l-199 463h-639l-200 -463h-144zM397 1702l60 102l358 -217l-59 -98zM406 586h534l-264 631z" />
<glyph unicode="&#xc1;" horiz-adv-x="1349" d="M10 0l588 1372h154l589 -1372h-149l-199 463h-639l-200 -463h-144zM406 586h534l-264 631zM535 1587l358 217l59 -102l-358 -213z" />
<glyph unicode="&#xc2;" horiz-adv-x="1349" d="M10 0l588 1372h154l589 -1372h-149l-199 463h-639l-200 -463h-144zM346 1509l268 234h125l265 -234h-166l-160 138l-162 -138h-170zM406 586h534l-264 631z" />
<glyph unicode="&#xc3;" horiz-adv-x="1349" d="M10 0l588 1372h154l589 -1372h-149l-199 463h-639l-200 -463h-144zM377 1618q72 106 178 106q36 0 61 -8t113 -47q43 -20 53.5 -23.5t30.5 -3.5q32 0 57.5 17t51.5 57l67 -82q-38 -57 -79.5 -80.5t-102.5 -23.5q-37 0 -64 9t-116 50q-43 19 -74 19q-57 0 -111 -72z M406 586h534l-264 631z" />
<glyph unicode="&#xc4;" horiz-adv-x="1349" d="M10 0l588 1372h154l589 -1372h-149l-199 463h-639l-200 -463h-144zM406 586h534l-264 631zM469 1509v234h137v-234h-137zM743 1509v234h138v-234h-138z" />
<glyph unicode="&#xc5;" horiz-adv-x="1349" d="M10 0l588 1372h154l589 -1372h-149l-199 463h-639l-200 -463h-144zM406 586h534l-264 631zM483 1677q0 78 57.5 134.5t135.5 56.5q79 0 135.5 -56.5t56.5 -136.5q0 -78 -56.5 -135t-135.5 -57q-80 0 -136.5 56.5t-56.5 137.5zM580 1677q0 -43 28 -72.5t68 -29.5t68 29.5 t28 70.5t-28 71t-68 30q-38 0 -67 -29.5t-29 -69.5z" />
<glyph unicode="&#xc6;" horiz-adv-x="1779" d="M-35 0l955 1372h763v-123h-587v-493h567v-123h-567v-510h587v-123h-725v465h-505l-324 -465h-164zM541 588h417v610z" />
<glyph unicode="&#xc7;" horiz-adv-x="1478" d="M74 684q0 195 94.5 358.5t259 258t360.5 94.5q251 0 449 -156q133 -105 182 -217h-153q-78 115 -206.5 182.5t-271.5 67.5q-114 0 -220.5 -48t-184.5 -127.5t-125 -188t-47 -224.5q0 -114 47.5 -221.5t125.5 -187t184.5 -127.5t219.5 -48q88 0 180.5 31.5t164.5 85.5 q70 51 139 143h153q-88 -171 -262 -278t-364 -107l-43 -102q47 14 63 14q63 0 103.5 -44t40.5 -113q0 -75 -50.5 -125.5t-124.5 -50.5q-65 0 -109 36t-61 103l87 12q12 -35 29.5 -49t49.5 -14q37 0 61.5 24.5t24.5 61.5t-26 64.5t-62 27.5q-38 0 -75 -43l-56 30l74 173 q-140 15 -261 75.5t-207 153t-134.5 216t-48.5 259.5z" />
<glyph unicode="&#xc8;" horiz-adv-x="997" d="M147 0v1372h752v-123h-614v-493h594v-123h-594v-510h614v-123h-752zM266 1702l60 102l358 -217l-59 -98z" />
<glyph unicode="&#xc9;" horiz-adv-x="997" d="M147 0v1372h752v-123h-614v-493h594v-123h-594v-510h614v-123h-752zM397 1587l359 217l59 -102l-358 -213z" />
<glyph unicode="&#xca;" horiz-adv-x="997" d="M147 0v1372h752v-123h-614v-493h594v-123h-594v-510h614v-123h-752zM201 1509l268 234h125l264 -234h-166l-160 138l-161 -138h-170z" />
<glyph unicode="&#xcb;" horiz-adv-x="997" d="M147 0v1372h752v-123h-614v-493h594v-123h-594v-510h614v-123h-752zM332 1509v234h137v-234h-137zM606 1509v234h137v-234h-137z" />
<glyph unicode="&#xcc;" horiz-adv-x="434" d="M-61 1702l59 102l358 -217l-59 -98zM147 0v1372h138v-1372h-138z" />
<glyph unicode="&#xcd;" horiz-adv-x="434" d="M76 1587l358 217l60 -102l-359 -213zM147 0v1372h138v-1372h-138z" />
<glyph unicode="&#xce;" horiz-adv-x="434" d="M-76 1509l232 234h123l229 -234h-164l-127 138l-127 -138h-166zM147 0v1372h138v-1372h-138z" />
<glyph unicode="&#xcf;" horiz-adv-x="434" d="M39 1509v234h131v-234h-131zM150 0v1372h137v-1372h-137zM264 1509v234h131v-234h-131z" />
<glyph unicode="&#xd0;" horiz-adv-x="1380" d="M0 649v123h147v600h394q280 0 454 -112q144 -92 229 -248t85 -328q0 -174 -86.5 -330t-233.5 -248q-166 -106 -440 -106h-402v649h-147zM285 123h198q184 0 290.5 28.5t195.5 102.5q98 82 150 194t52 242q0 143 -66 262.5t-190 198.5q-80 51 -181.5 74.5t-250.5 23.5 h-198v-477h415v-123h-415v-526z" />
<glyph unicode="&#xd1;" horiz-adv-x="1388" d="M147 0v1372h187l770 -1139v1139h137v-1372h-137l-819 1208v-1208h-138zM387 1618q72 106 178 106q36 0 61 -8t113 -47q43 -20 53.5 -23.5t30.5 -3.5q32 0 57.5 17t51.5 57l67 -82q-38 -57 -79.5 -80.5t-102.5 -23.5q-37 0 -64 9t-116 50q-43 19 -74 19q-56 0 -110 -72z " />
<glyph unicode="&#xd2;" horiz-adv-x="1599" d="M74 694q0 140 58.5 270t156.5 225t232.5 151.5t279.5 56.5q196 0 363.5 -95.5t265.5 -259.5t98 -356q0 -143 -58 -274.5t-155.5 -227t-231.5 -152.5t-280 -57q-200 0 -367.5 96t-264.5 261.5t-97 361.5zM211 690q0 -161 79 -297.5t215.5 -215.5t297.5 -79 q157 0 292.5 79.5t215.5 214.5t80 292q0 159 -79.5 295t-215.5 215.5t-295 79.5q-117 0 -226 -47t-189 -125.5t-127.5 -186.5t-47.5 -225zM530 1702l60 102l358 -217l-59 -98z" />
<glyph unicode="&#xd3;" horiz-adv-x="1599" d="M74 694q0 140 58.5 270t156.5 225t232.5 151.5t279.5 56.5q196 0 363.5 -95.5t265.5 -259.5t98 -356q0 -143 -58 -274.5t-155.5 -227t-231.5 -152.5t-280 -57q-200 0 -367.5 96t-264.5 261.5t-97 361.5zM211 690q0 -161 79 -297.5t215.5 -215.5t297.5 -79 q157 0 292.5 79.5t215.5 214.5t80 292q0 159 -79.5 295t-215.5 215.5t-295 79.5q-117 0 -226 -47t-189 -125.5t-127.5 -186.5t-47.5 -225zM659 1587l359 217l59 -102l-358 -213z" />
<glyph unicode="&#xd4;" horiz-adv-x="1599" d="M74 694q0 140 58.5 270t156.5 225t232.5 151.5t279.5 56.5q196 0 363.5 -95.5t265.5 -259.5t98 -356q0 -143 -58 -274.5t-155.5 -227t-231.5 -152.5t-280 -57q-200 0 -367.5 96t-264.5 261.5t-97 361.5zM211 690q0 -161 79 -297.5t215.5 -215.5t297.5 -79 q157 0 292.5 79.5t215.5 214.5t80 292q0 159 -79.5 295t-215.5 215.5t-295 79.5q-117 0 -226 -47t-189 -125.5t-127.5 -186.5t-47.5 -225zM471 1509l268 234h125l264 -234h-165l-160 138l-162 -138h-170z" />
<glyph unicode="&#xd5;" horiz-adv-x="1599" d="M74 694q0 140 58.5 270t156.5 225t232.5 151.5t279.5 56.5q196 0 363.5 -95.5t265.5 -259.5t98 -356q0 -143 -58 -274.5t-155.5 -227t-231.5 -152.5t-280 -57q-200 0 -367.5 96t-264.5 261.5t-97 361.5zM211 690q0 -161 79 -297.5t215.5 -215.5t297.5 -79 q157 0 292.5 79.5t215.5 214.5t80 292q0 159 -79.5 295t-215.5 215.5t-295 79.5q-117 0 -226 -47t-189 -125.5t-127.5 -186.5t-47.5 -225zM508 1618q72 106 178 106q36 0 61 -8t113 -47q43 -20 53.5 -23.5t30.5 -3.5q32 0 57.5 17t51.5 57l67 -82q-38 -57 -79 -80.5 t-103 -23.5q-37 0 -64 9t-116 50q-43 19 -74 19q-57 0 -111 -72z" />
<glyph unicode="&#xd6;" horiz-adv-x="1599" d="M74 694q0 140 58.5 270t156.5 225t232.5 151.5t279.5 56.5q196 0 363.5 -95.5t265.5 -259.5t98 -356q0 -143 -58 -274.5t-155.5 -227t-231.5 -152.5t-280 -57q-200 0 -367.5 96t-264.5 261.5t-97 361.5zM211 690q0 -161 79 -297.5t215.5 -215.5t297.5 -79 q157 0 292.5 79.5t215.5 214.5t80 292q0 159 -79.5 295t-215.5 215.5t-295 79.5q-117 0 -226 -47t-189 -125.5t-127.5 -186.5t-47.5 -225zM594 1509v234h137v-234h-137zM868 1509v234h138v-234h-138z" />
<glyph unicode="&#xd7;" d="M150 406l280 280l-280 283l83 82l281 -281l281 281l84 -84l-281 -281l281 -280l-84 -84l-281 280l-281 -280z" />
<glyph unicode="&#xd8;" horiz-adv-x="1599" d="M74 686q0 192 98 356t265.5 259.5t363.5 95.5q103 0 191.5 -24.5t185.5 -80.5l153 201l99 -72l-148 -202q120 -106 183 -242t63 -291q0 -192 -98 -356t-265.5 -259.5t-363.5 -95.5q-194 0 -375 103l-150 -199l-104 74l152 201q-250 218 -250 532zM211 684q0 -122 49 -233 t141 -195l701 934q-148 84 -301 84q-159 0 -295 -79.5t-215.5 -215.5t-79.5 -295zM504 180q142 -82 297 -82q118 0 227.5 47t188.5 126t126.5 187.5t47.5 225.5q0 247 -189 430z" />
<glyph unicode="&#xd9;" horiz-adv-x="1204" d="M135 516v856h137v-856q0 -189 88 -298t242 -109t242 109t88 298v856h137v-856q0 -234 -100 -366q-63 -82 -160.5 -128.5t-206.5 -46.5t-205.5 46.5t-158.5 128.5q-103 132 -103 366zM326 1702l59 102l358 -217l-59 -98z" />
<glyph unicode="&#xda;" horiz-adv-x="1204" d="M135 516v856h137v-856q0 -189 88 -298t242 -109t242 109t88 298v856h137v-856q0 -234 -100 -366q-63 -82 -160.5 -128.5t-206.5 -46.5t-205.5 46.5t-158.5 128.5q-103 132 -103 366zM475 1587l359 217l59 -102l-358 -213z" />
<glyph unicode="&#xdb;" horiz-adv-x="1204" d="M135 516v856h137v-856q0 -189 88 -298t242 -109t242 109t88 298v856h137v-856q0 -234 -100 -366q-63 -82 -160.5 -128.5t-206.5 -46.5t-205.5 46.5t-158.5 128.5q-103 132 -103 366zM274 1509l269 234h125l264 -234h-166l-160 138l-162 -138h-170z" />
<glyph unicode="&#xdc;" horiz-adv-x="1204" d="M135 516v856h137v-856q0 -189 88 -298t242 -109t242 109t88 298v856h137v-856q0 -234 -100 -366q-63 -82 -160.5 -128.5t-206.5 -46.5t-205.5 46.5t-158.5 128.5q-103 132 -103 366zM397 1509v234h138v-234h-138zM672 1509v234h137v-234h-137z" />
<glyph unicode="&#xdd;" horiz-adv-x="1101" d="M2 1372h152l393 -770l401 770h150l-482 -913v-459h-137v459zM436 1587l359 217l59 -102l-358 -213z" />
<glyph unicode="&#xde;" horiz-adv-x="1107" d="M147 0v1372h138v-213h245q127 0 209 -18.5t148 -61.5q80 -53 125 -140t45 -189q0 -95 -38.5 -176.5t-109.5 -135.5q-121 -96 -346 -96h-278v-342h-138zM285 465h258q94 0 152 12t104 41q57 37 89 98.5t32 133.5q0 84 -43 150.5t-119 100.5q-52 23 -99.5 29t-175.5 6h-198 v-571z" />
<glyph unicode="&#xdf;" horiz-adv-x="1062" d="M127 0v893q0 124 15.5 199.5t52.5 134.5q49 76 137 123t182 47q157 0 269 -114.5t112 -274.5q0 -192 -156 -285q123 -43 187.5 -133t64.5 -219q0 -172 -112 -281q-118 -115 -275 -115q-128 0 -239 84q-38 30 -61 61t-46 83v-203h-131zM264 377h90q3 -120 75 -202.5 t173 -82.5q106 0 182 78.5t76 187.5q0 78 -38.5 142.5t-104.5 95.5q-79 39 -217 39q-35 0 -68 -2v125q129 0 199 37q62 34 97.5 94.5t35.5 132.5q0 106 -73.5 182t-176.5 76q-64 0 -120 -33.5t-85 -89.5q-26 -49 -35.5 -104.5t-9.5 -159.5v-516z" />
<glyph unicode="&#xe0;" horiz-adv-x="1280" d="M68 510q0 146 72 268t197.5 192t276.5 70q125 0 227.5 -52t172.5 -152v180h131v-1016h-131v178q-147 -203 -400 -203q-149 0 -274.5 71.5t-198.5 194.5t-73 269zM199 514q0 -173 121.5 -297.5t291.5 -124.5q164 0 283 122.5t119 291.5q0 173 -118 295.5t-284 122.5 t-289.5 -122.5t-123.5 -287.5zM369 1409l73 86l320 -270l-72 -82z" />
<glyph unicode="&#xe1;" horiz-adv-x="1280" d="M68 510q0 146 72 268t197.5 192t276.5 70q125 0 227.5 -52t172.5 -152v180h131v-1016h-131v178q-147 -203 -400 -203q-149 0 -274.5 71.5t-198.5 194.5t-73 269zM199 514q0 -173 121.5 -297.5t291.5 -124.5q164 0 283 122.5t119 291.5q0 173 -118 295.5t-284 122.5 t-289.5 -122.5t-123.5 -287.5zM485 1225l320 270l74 -86l-322 -266z" />
<glyph unicode="&#xe2;" horiz-adv-x="1280" d="M68 510q0 146 72 268t197.5 192t276.5 70q125 0 227.5 -52t172.5 -152v180h131v-1016h-131v178q-147 -203 -400 -203q-149 0 -274.5 71.5t-198.5 194.5t-73 269zM199 514q0 -173 121.5 -297.5t291.5 -124.5q164 0 283 122.5t119 291.5q0 173 -118 295.5t-284 122.5 t-289.5 -122.5t-123.5 -287.5zM324 1167l243 252h123l240 -252h-156l-145 156l-146 -156h-159z" />
<glyph unicode="&#xe3;" horiz-adv-x="1280" d="M68 510q0 146 72 268t197.5 192t276.5 70q125 0 227.5 -52t172.5 -152v180h131v-1016h-131v178q-147 -203 -400 -203q-149 0 -274.5 71.5t-198.5 194.5t-73 269zM199 514q0 -173 121.5 -297.5t291.5 -124.5q164 0 283 122.5t119 291.5q0 173 -118 295.5t-284 122.5 t-289.5 -122.5t-123.5 -287.5zM328 1274q73 98 180 98q40 0 72 -9.5t94 -41.5q52 -25 82 -25q52 0 104 72l66 -80q-38 -55 -79 -77.5t-104 -22.5q-33 0 -60 9t-112 48q-39 19 -65 19q-58 0 -113 -70z" />
<glyph unicode="&#xe4;" horiz-adv-x="1280" d="M68 510q0 146 72 268t197.5 192t276.5 70q125 0 227.5 -52t172.5 -152v180h131v-1016h-131v178q-147 -203 -400 -203q-149 0 -274.5 71.5t-198.5 194.5t-73 269zM199 514q0 -173 121.5 -297.5t291.5 -124.5q164 0 283 122.5t119 291.5q0 173 -118 295.5t-284 122.5 t-289.5 -122.5t-123.5 -287.5zM422 1174v233h131v-233h-131zM688 1174v233h131v-233h-131z" />
<glyph unicode="&#xe5;" horiz-adv-x="1280" d="M68 510q0 146 72 268t197.5 192t276.5 70q125 0 227.5 -52t172.5 -152v180h131v-1016h-131v178q-147 -203 -400 -203q-149 0 -274.5 71.5t-198.5 194.5t-73 269zM199 514q0 -173 121.5 -297.5t291.5 -124.5q164 0 283 122.5t119 291.5q0 173 -118 295.5t-284 122.5 t-289.5 -122.5t-123.5 -287.5zM436 1343q0 78 57.5 134.5t135.5 56.5q79 0 135.5 -56.5t56.5 -136.5q0 -78 -56.5 -135t-135.5 -57q-80 0 -136.5 56.5t-56.5 137.5zM528 1343q0 -44 30 -75t71 -31t70.5 30.5t29.5 73.5t-29.5 74t-70.5 31t-71 -31t-30 -72z" />
<glyph unicode="&#xe6;" horiz-adv-x="2142" d="M70 506q0 98 39 193.5t110 172.5q157 168 402 168q123 0 226 -51t171 -145v172h131v-172q58 88 167 142t226 54q157 0 293.5 -91.5t196.5 -237.5q24 -59 31.5 -106.5t9.5 -145.5h-918q9 -101 64 -185.5t142 -133t185 -48.5q110 0 211 69.5t139 170.5h144 q-50 -154 -190 -255.5t-304 -101.5q-230 0 -397 189v-164h-131v164q-157 -189 -400 -189q-261 0 -421 189q-60 72 -93.5 162.5t-33.5 179.5zM201 502q0 -169 120 -289.5t289 -120.5t289.5 119.5t120.5 286.5q0 181 -117.5 303.5t-290.5 122.5q-170 0 -290.5 -123.5 t-120.5 -298.5zM1161 575h768q-22 152 -130.5 250.5t-254.5 98.5q-145 0 -253 -99t-130 -250z" />
<glyph unicode="&#xe7;" horiz-adv-x="1173" d="M70 506q0 145 72.5 268t198 194.5t273.5 71.5q172 0 308 -89.5t198 -241.5h-153q-59 101 -152.5 158t-202.5 57q-171 0 -291 -121t-120 -293q0 -177 119 -297.5t292 -120.5q109 0 193 48.5t162 156.5h153q-72 -154 -204.5 -239t-299.5 -85l-32 -82q34 15 59 15 q64 0 104.5 -41.5t40.5 -106.5q0 -74 -47.5 -124t-119.5 -50q-63 0 -106 35.5t-56 99.5l82 11q6 -29 30.5 -48.5t53.5 -19.5q34 0 57 26t23 64t-26 64t-63 26q-40 0 -75 -41l-56 31l66 145q-217 34 -349 179.5t-132 349.5z" />
<glyph unicode="&#xe8;" horiz-adv-x="1198" d="M70 508q0 144 70.5 266.5t192 194t265.5 71.5q141 0 264 -72t195 -198q36 -62 51 -129.5t20 -179.5h-921q5 -99 59.5 -184t142.5 -135t187 -50q114 0 216 68.5t142 171.5h144q-56 -157 -195 -257t-303 -100q-144 0 -266 71t-193 194t-71 268zM209 578h780 q-37 158 -143 252t-248 94q-143 0 -252 -97t-137 -249zM340 1409l74 86l319 -270l-71 -82z" />
<glyph unicode="&#xe9;" horiz-adv-x="1198" d="M70 508q0 144 70.5 266.5t192 194t265.5 71.5q141 0 264 -72t195 -198q36 -62 51 -129.5t20 -179.5h-921q5 -99 59.5 -184t142.5 -135t187 -50q114 0 216 68.5t142 171.5h144q-56 -157 -195 -257t-303 -100q-144 0 -266 71t-193 194t-71 268zM209 578h780 q-37 158 -143 252t-248 94q-143 0 -252 -97t-137 -249zM471 1225l320 270l73 -86l-321 -266z" />
<glyph unicode="&#xea;" horiz-adv-x="1198" d="M70 508q0 144 70.5 266.5t192 194t265.5 71.5q141 0 264 -72t195 -198q36 -62 51 -129.5t20 -179.5h-921q5 -99 59.5 -184t142.5 -135t187 -50q114 0 216 68.5t142 171.5h144q-56 -157 -195 -257t-303 -100q-144 0 -266 71t-193 194t-71 268zM209 578h780 q-37 158 -143 252t-248 94q-143 0 -252 -97t-137 -249zM297 1167l244 252h123l239 -252h-155l-146 156l-145 -156h-160z" />
<glyph unicode="&#xeb;" horiz-adv-x="1198" d="M70 508q0 144 70.5 266.5t192 194t265.5 71.5q141 0 264 -72t195 -198q36 -62 51 -129.5t20 -179.5h-921q5 -99 59.5 -184t142.5 -135t187 -50q114 0 216 68.5t142 171.5h144q-56 -157 -195 -257t-303 -100q-144 0 -266 71t-193 194t-71 268zM209 578h780 q-37 158 -143 252t-248 94q-143 0 -252 -97t-137 -249zM406 1174v233h131v-233h-131zM672 1174v233h131v-233h-131z" />
<glyph unicode="&#xec;" horiz-adv-x="399" d="M-51 1409l74 86l305 -270l-72 -82zM135 0v1016h131v-1016h-131z" />
<glyph unicode="&#xed;" horiz-adv-x="399" d="M72 1225l305 270l74 -86l-308 -266zM135 0v1016h131v-1016h-131z" />
<glyph unicode="&#xee;" horiz-adv-x="399" d="M-82 1167l223 252h123l217 -252h-155l-123 156l-125 -156h-160zM135 0v1016h131v-1016h-131z" />
<glyph unicode="&#xef;" horiz-adv-x="399" d="M20 1174v233h123v-233h-123zM133 0v1016h131v-1016h-131zM254 1174v233h123v-233h-123z" />
<glyph unicode="&#xf0;" horiz-adv-x="1200" d="M70 506q0 107 42 206t112.5 170.5t167.5 114.5t202 43q61 0 137 -20l-127 154l-137 -82l-55 82l127 79l-109 117l88 72l121 -129l143 84l56 -86l-125 -76l145 -184q35 -44 69.5 -86.5t45 -55.5t22.5 -30.5t27 -40.5q108 -172 108 -330q0 -142 -72 -265t-194 -195.5 t-262 -72.5q-145 0 -267.5 71t-193.5 193.5t-71 266.5zM201 510q0 -175 116.5 -296.5t284.5 -121.5q167 0 282 122t115 300q0 168 -112 283q-59 61 -134 94t-151 33q-164 0 -282.5 -122.5t-118.5 -291.5z" />
<glyph unicode="&#xf1;" horiz-adv-x="1155" d="M135 0v1016h131v-131q74 82 148 118.5t166 36.5q106 0 200 -44t154 -122q94 -122 94 -317v-557h-131v557q0 158 -74 250q-46 56 -109.5 86.5t-133.5 30.5q-72 0 -139.5 -34.5t-110.5 -94.5q-31 -41 -43.5 -94.5t-12.5 -143.5v-557h-139zM293 1274q73 98 180 98 q40 0 72 -9.5t94 -41.5q52 -25 82 -25q52 0 104 72l66 -80q-38 -56 -78.5 -78t-103.5 -22q-33 0 -60 9t-112 48q-39 19 -66 19q-58 0 -113 -70z" />
<glyph unicode="&#xf2;" horiz-adv-x="1200" d="M70 514q0 140 72 261.5t194.5 193t263.5 71.5q106 0 204 -43t169.5 -114.5t114 -170t42.5 -204.5q0 -142 -71.5 -265t-194 -195.5t-264.5 -72.5q-145 0 -267 72t-192.5 196t-70.5 271zM201 510q0 -175 116.5 -296.5t284.5 -121.5q167 0 282 122t115 300q0 168 -112 283 q-59 61 -134 94t-151 33q-164 0 -282.5 -122.5t-118.5 -291.5zM342 1409l74 86l319 -270l-71 -82z" />
<glyph unicode="&#xf3;" horiz-adv-x="1200" d="M70 514q0 140 72 261.5t194.5 193t263.5 71.5q106 0 204 -43t169.5 -114.5t114 -170t42.5 -204.5q0 -142 -71.5 -265t-194 -195.5t-264.5 -72.5q-145 0 -267 72t-192.5 196t-70.5 271zM201 510q0 -175 116.5 -296.5t284.5 -121.5q167 0 282 122t115 300q0 168 -112 283 q-59 61 -134 94t-151 33q-164 0 -282.5 -122.5t-118.5 -291.5zM473 1225l320 270l73 -86l-321 -266z" />
<glyph unicode="&#xf4;" horiz-adv-x="1200" d="M70 514q0 140 72 261.5t194.5 193t263.5 71.5q106 0 204 -43t169.5 -114.5t114 -170t42.5 -204.5q0 -142 -71.5 -265t-194 -195.5t-264.5 -72.5q-145 0 -267 72t-192.5 196t-70.5 271zM201 510q0 -175 116.5 -296.5t284.5 -121.5q167 0 282 122t115 300q0 168 -112 283 q-59 61 -134 94t-151 33q-164 0 -282.5 -122.5t-118.5 -291.5zM297 1167l244 252h123l239 -252h-155l-146 156l-145 -156h-160z" />
<glyph unicode="&#xf5;" horiz-adv-x="1200" d="M70 514q0 140 72 261.5t194.5 193t263.5 71.5q106 0 204 -43t169.5 -114.5t114 -170t42.5 -204.5q0 -142 -71.5 -265t-194 -195.5t-264.5 -72.5q-145 0 -267 72t-192.5 196t-70.5 271zM201 510q0 -175 116.5 -296.5t284.5 -121.5q167 0 282 122t115 300q0 168 -112 283 q-59 61 -134 94t-151 33q-164 0 -282.5 -122.5t-118.5 -291.5zM315 1274q73 98 181 98q40 0 72 -9.5t94 -41.5q52 -25 81 -25q53 0 105 72l65 -80q-38 -56 -78.5 -78t-103.5 -22q-33 0 -60 9t-112 48q-39 19 -65 19q-58 0 -113 -70z" />
<glyph unicode="&#xf6;" horiz-adv-x="1200" d="M70 514q0 140 72 261.5t194.5 193t263.5 71.5q106 0 204 -43t169.5 -114.5t114 -170t42.5 -204.5q0 -142 -71.5 -265t-194 -195.5t-264.5 -72.5q-145 0 -267 72t-192.5 196t-70.5 271zM201 510q0 -175 116.5 -296.5t284.5 -121.5q167 0 282 122t115 300q0 168 -112 283 q-59 61 -134 94t-151 33q-164 0 -282.5 -122.5t-118.5 -291.5zM401 1174v233h131v-233h-131zM668 1174v233h131v-233h-131z" />
<glyph unicode="&#xf7;" d="M90 625l2 123h850v-123h-852zM453 276l2 193h123v-193h-125zM455 905v193h123v-193h-123z" />
<glyph unicode="&#xf8;" horiz-adv-x="1200" d="M70 508q0 107 42.5 205.5t114 170t169.5 114t204 42.5q143 0 279 -79l122 165l86 -67l-122 -166q165 -182 165 -383q0 -143 -71.5 -266.5t-193.5 -196t-263 -72.5q-76 0 -151.5 22.5t-128.5 59.5l-115 -153l-84 69l113 148q-166 172 -166 387zM201 504q0 -163 110 -285 l492 643q-81 62 -203 62q-164 0 -281.5 -124t-117.5 -296zM395 152q91 -60 207 -60q167 0 282 121.5t115 298.5q0 173 -110 283z" />
<glyph unicode="&#xf9;" horiz-adv-x="1150" d="M127 457v559h131v-559q0 -151 57 -234q90 -131 256 -131q76 0 143 34t109 95q62 86 62 236v559h131v-1016h-123v156q-56 -93 -138.5 -137t-203.5 -44q-106 0 -193.5 42t-146.5 120q-84 112 -84 320zM324 1409l73 86l320 -270l-72 -82z" />
<glyph unicode="&#xfa;" horiz-adv-x="1150" d="M127 457v559h131v-559q0 -151 57 -234q90 -131 256 -131q76 0 143 34t109 95q62 86 62 236v559h131v-1016h-123v156q-56 -93 -138.5 -137t-203.5 -44q-106 0 -193.5 42t-146.5 120q-84 112 -84 320zM446 1225l320 270l74 -86l-322 -266z" />
<glyph unicode="&#xfb;" horiz-adv-x="1150" d="M127 457v559h131v-559q0 -151 57 -234q90 -131 256 -131q76 0 143 34t109 95q62 86 62 236v559h131v-1016h-123v156q-56 -93 -138.5 -137t-203.5 -44q-106 0 -193.5 42t-146.5 120q-84 112 -84 320zM272 1167l244 252h123l240 -252h-156l-145 156l-146 -156h-160z" />
<glyph unicode="&#xfc;" horiz-adv-x="1150" d="M127 457v559h131v-559q0 -151 57 -234q90 -131 256 -131q76 0 143 34t109 95q62 86 62 236v559h131v-1016h-123v156q-56 -93 -138.5 -137t-203.5 -44q-106 0 -193.5 42t-146.5 120q-84 112 -84 320zM373 1174v233h131v-233h-131zM639 1174v233h131v-233h-131z" />
<glyph unicode="&#xfd;" horiz-adv-x="962" d="M0 1016h150l323 -809l344 809h146l-588 -1372h-146l166 389zM375 1225l319 270l74 -86l-322 -266z" />
<glyph unicode="&#xfe;" horiz-adv-x="1280" d="M135 -356v1728h131v-530q60 92 169 145t237 53q145 0 269 -72t196.5 -195.5t72.5 -268.5q0 -107 -43 -205t-116 -169t-174 -113t-213 -42q-125 0 -225.5 51t-166.5 148v-530h-137zM264 514q0 -193 127 -311q117 -111 281 -111q170 0 288.5 120t118.5 292 q0 175 -119 297.5t-290 122.5q-170 0 -288 -119t-118 -291z" />
<glyph unicode="&#xff;" horiz-adv-x="962" d="M0 1016h150l323 -809l344 809h146l-588 -1372h-146l166 389zM283 1174v233h131v-233h-131zM549 1174v233h131v-233h-131z" />
<glyph unicode="&#x100;" horiz-adv-x="1349" d="M10 0l588 1372h154l589 -1372h-149l-199 463h-639l-200 -463h-144zM340 1569v123h672v-123h-672zM406 586h534l-264 631z" />
<glyph unicode="&#x101;" horiz-adv-x="1280" d="M68 510q0 146 72 268t197.5 192t276.5 70q125 0 227.5 -52t172.5 -152v180h131v-1016h-131v178q-147 -203 -400 -203q-149 0 -274.5 71.5t-198.5 194.5t-73 269zM199 514q0 -173 121.5 -297.5t291.5 -124.5q164 0 283 122.5t119 291.5q0 173 -118 295.5t-284 122.5 t-289.5 -122.5t-123.5 -287.5zM328 1217v114h598v-114h-598z" />
<glyph unicode="&#x102;" horiz-adv-x="1349" d="M10 0l588 1372h154l589 -1372h-149l-199 463h-639l-200 -463h-144zM387 1749h117q23 -77 61 -107t111 -30q70 0 108.5 31t63.5 106h117q-23 -122 -93.5 -181t-191.5 -59q-247 0 -293 240zM406 586h534l-264 631z" />
<glyph unicode="&#x103;" horiz-adv-x="1280" d="M68 510q0 146 72 268t197.5 192t276.5 70q125 0 227.5 -52t172.5 -152v180h131v-1016h-131v178q-147 -203 -400 -203q-149 0 -274.5 71.5t-198.5 194.5t-73 269zM199 514q0 -173 121.5 -297.5t291.5 -124.5q164 0 283 122.5t119 291.5q0 173 -118 295.5t-284 122.5 t-289.5 -122.5t-123.5 -287.5zM338 1413h117q23 -77 61 -107t111 -30q70 0 108.5 31t63.5 106h116q-23 -122 -93 -180.5t-191 -58.5q-250 0 -293 239z" />
<glyph unicode="&#x104;" horiz-adv-x="1349" d="M10 0l588 1372h154l589 -1372h-24q-154 -103 -154 -190q0 -40 33.5 -66.5t83.5 -26.5q39 0 86 17l-2 -82q-55 -19 -96 -19q-85 0 -142 49.5t-57 122.5q0 121 148 195h-25l-199 463h-639l-200 -463h-144zM406 586h534l-264 631z" />
<glyph unicode="&#x105;" horiz-adv-x="1280" d="M68 510q0 146 72.5 268t198 192t275.5 70q125 0 227.5 -52t172.5 -152v180h131v-1016h-35l-12 -10l-11 -8q-116 -90 -116 -164q0 -38 31 -65t75 -27q45 0 90 20v-82q-48 -18 -96 -18q-84 0 -138 47t-54 119q0 57 32 101t103 87v178q-147 -203 -400 -203 q-149 0 -274.5 71.5t-198.5 194.5t-73 269zM199 514q0 -173 121.5 -297.5t291.5 -124.5q164 0 283 122.5t119 291.5q0 173 -118 295.5t-284 122.5t-289.5 -122.5t-123.5 -287.5z" />
<glyph unicode="&#x106;" horiz-adv-x="1478" d="M74 686q0 195 94.5 358.5t259 258t360.5 94.5q251 0 449 -156q134 -108 182 -219h-153q-78 117 -206.5 184.5t-271.5 67.5q-114 0 -220.5 -48t-184.5 -127.5t-125 -188.5t-47 -226q0 -114 47.5 -222t125.5 -188t184.5 -128t219.5 -48q88 0 180.5 31.5t164.5 85.5 q75 58 139 145h153q-97 -179 -266.5 -282t-365.5 -103q-147 0 -280 56t-229.5 151t-153 226.5t-56.5 277.5zM707 1575l268 227l69 -88l-268 -225z" />
<glyph unicode="&#x107;" horiz-adv-x="1173" d="M70 506q0 145 72.5 268t198 194.5t273.5 71.5q172 0 308 -89.5t198 -241.5h-153q-59 101 -152.5 158t-202.5 57q-171 0 -291 -121t-120 -293q0 -177 119 -297.5t292 -120.5q109 0 193 48.5t162 156.5h153q-49 -94 -93.5 -145t-115.5 -95q-134 -82 -286 -82 q-153 0 -280.5 70t-201 192t-73.5 269zM539 1219l266 286l86 -78l-273 -284z" />
<glyph unicode="&#x108;" horiz-adv-x="1478" d="M74 686q0 195 94.5 358.5t259 258t360.5 94.5q251 0 449 -156q134 -108 182 -219h-153q-78 117 -206.5 184.5t-271.5 67.5q-114 0 -220.5 -48t-184.5 -127.5t-125 -188.5t-47 -226q0 -114 47.5 -222t125.5 -188t184.5 -128t219.5 -48q88 0 180.5 31.5t164.5 85.5 q75 58 139 145h153q-97 -179 -266.5 -282t-365.5 -103q-147 0 -280 56t-229.5 151t-153 226.5t-56.5 277.5zM446 1509l269 234h123l266 -234h-166l-160 138l-164 -138h-168z" />
<glyph unicode="&#x109;" horiz-adv-x="1173" d="M70 506q0 145 72.5 268t198 194.5t273.5 71.5q172 0 308 -89.5t198 -241.5h-153q-59 101 -152.5 158t-202.5 57q-171 0 -291 -121t-120 -293q0 -177 119 -297.5t292 -120.5q109 0 193 48.5t162 156.5h153q-49 -94 -93.5 -145t-115.5 -95q-134 -82 -286 -82 q-153 0 -280.5 70t-201 192t-73.5 269zM317 1167l242 252h125l238 -252h-156l-143 156l-146 -156h-160z" />
<glyph unicode="&#x10a;" horiz-adv-x="1478" d="M74 686q0 195 94.5 358.5t259 258t360.5 94.5q251 0 449 -156q134 -108 182 -219h-153q-78 117 -206.5 184.5t-271.5 67.5q-114 0 -220.5 -48t-184.5 -127.5t-125 -188.5t-47 -226q0 -114 47.5 -222t125.5 -188t184.5 -128t219.5 -48q88 0 180.5 31.5t164.5 85.5 q75 58 139 145h153q-97 -179 -266.5 -282t-365.5 -103q-147 0 -280 56t-229.5 151t-153 226.5t-56.5 277.5zM719 1509v234h137v-234h-137z" />
<glyph unicode="&#x10b;" horiz-adv-x="1173" d="M70 506q0 145 72.5 268t198 194.5t273.5 71.5q172 0 308 -89.5t198 -241.5h-153q-59 101 -152.5 158t-202.5 57q-171 0 -291 -121t-120 -293q0 -177 119 -297.5t292 -120.5q109 0 193 48.5t162 156.5h153q-49 -94 -93.5 -145t-115.5 -95q-134 -82 -286 -82 q-153 0 -280.5 70t-201 192t-73.5 269zM549 1174v233h131v-233h-131z" />
<glyph unicode="&#x10c;" horiz-adv-x="1478" d="M74 686q0 195 94.5 358.5t259 258t360.5 94.5q251 0 449 -156q134 -108 182 -219h-153q-78 117 -206.5 184.5t-271.5 67.5q-114 0 -220.5 -48t-184.5 -127.5t-125 -188.5t-47 -226q0 -114 47.5 -222t125.5 -188t184.5 -128t219.5 -48q88 0 180.5 31.5t164.5 85.5 q75 58 139 145h153q-97 -179 -266.5 -282t-365.5 -103q-147 0 -280 56t-229.5 151t-153 226.5t-56.5 277.5zM459 1743h170l159 -137l164 137h164l-264 -234h-125z" />
<glyph unicode="&#x10d;" horiz-adv-x="1173" d="M70 506q0 145 72.5 268t198 194.5t273.5 71.5q172 0 308 -89.5t198 -241.5h-153q-59 101 -152.5 158t-202.5 57q-171 0 -291 -121t-120 -293q0 -177 119 -297.5t292 -120.5q109 0 193 48.5t162 156.5h153q-49 -94 -93.5 -145t-115.5 -95q-134 -82 -286 -82 q-153 0 -280.5 70t-201 192t-73.5 269zM311 1419h156l143 -155l148 155h160l-244 -252h-123z" />
<glyph unicode="&#x10e;" horiz-adv-x="1380" d="M147 0v1372h394q278 0 452 -112q144 -92 229 -248t85 -328q0 -174 -86.5 -330t-233.5 -248q-166 -106 -438 -106h-402zM279 1743h170l159 -137l164 137h164l-264 -234h-125zM285 123h198q183 0 289 28.5t195 102.5q202 168 202 434q0 145 -65.5 265t-188.5 198 q-82 52 -182.5 75t-249.5 23h-198v-1126z" />
<glyph unicode="&#x10f;" horiz-adv-x="1486" d="M68 508q0 146 72.5 268.5t197.5 193t274 70.5q244 0 398 -186v518h131v-1372h-123v182q-79 -96 -152 -141q-113 -66 -256 -66q-110 0 -210.5 42t-173 113.5t-115.5 170t-43 207.5zM199 518q0 -177 120 -301.5t289 -124.5q166 0 287 124t121 294q0 172 -121 293t-291 121 q-164 0 -284.5 -121t-120.5 -285zM1225 1096l125 276h137l-125 -276h-137z" />
<glyph unicode="&#x110;" horiz-adv-x="1380" d="M0 649v123h147v600h394q280 0 454 -112q144 -92 229 -248t85 -328q0 -174 -86.5 -330t-233.5 -248q-166 -106 -440 -106h-402v649h-147zM285 123h198q184 0 290.5 28.5t195.5 102.5q98 82 150 194t52 242q0 143 -66 262.5t-190 198.5q-80 51 -181.5 74.5t-250.5 23.5 h-198v-477h415v-123h-415v-526z" />
<glyph unicode="&#x111;" horiz-adv-x="1275" d="M70 508q0 146 72 268.5t197 193t275 70.5q242 0 396 -186v289h-322v110h322v119h131v-119h137v-110h-137v-1143h-123v182q-79 -96 -152 -141q-109 -66 -256 -66q-109 0 -209 42t-172.5 113.5t-115.5 170t-43 207.5zM201 518q0 -177 120 -301.5t289 -124.5 q108 0 201.5 56.5t149 153.5t55.5 208q0 171 -120.5 292.5t-289.5 121.5q-164 0 -284.5 -121t-120.5 -285z" />
<glyph unicode="&#x112;" horiz-adv-x="997" d="M147 0v1372h752v-123h-614v-493h594v-123h-594v-510h614v-123h-752zM184 1569v123h674v-123h-674z" />
<glyph unicode="&#x113;" horiz-adv-x="1198" d="M70 508q0 144 70.5 266.5t192 194t265.5 71.5q141 0 264 -72t195 -198q36 -62 51 -129.5t20 -179.5h-921q5 -99 59.5 -184t142.5 -135t187 -50q114 0 216 68.5t142 171.5h144q-56 -157 -195 -257t-303 -100q-144 0 -266 71t-193 194t-71 268zM209 578h780 q-37 158 -143 252t-248 94q-143 0 -252 -97t-137 -249zM299 1217v114h598v-114h-598z" />
<glyph unicode="&#x116;" horiz-adv-x="997" d="M147 0v1372h752v-123h-614v-493h594v-123h-594v-510h614v-123h-752zM469 1509v234h137v-234h-137z" />
<glyph unicode="&#x117;" horiz-adv-x="1198" d="M70 508q0 144 70.5 266.5t192 194t265.5 71.5q141 0 264 -72t195 -198q36 -62 51 -129.5t20 -179.5h-921q5 -99 59.5 -184t142.5 -135t187 -50q114 0 216 68.5t142 171.5h144q-56 -157 -195 -257t-303 -100q-144 0 -266 71t-193 194t-71 268zM209 578h780 q-37 158 -143 252t-248 94q-143 0 -252 -97t-137 -249zM532 1174v233h132v-233h-132z" />
<glyph unicode="&#x118;" horiz-adv-x="997" d="M147 0v1372h752v-123h-614v-493h594v-123h-594v-510h614v-123h-51q-154 -104 -154 -190q0 -39 34 -66t83 -27q39 0 86 17v-82q-55 -19 -98 -19q-85 0 -141 49t-56 123q0 117 146 195h-601z" />
<glyph unicode="&#x119;" horiz-adv-x="1198" d="M70 508q0 144 70.5 266.5t192 194t265.5 71.5q141 0 264 -72t195 -198q37 -63 52.5 -131t18.5 -178h-921q5 -99 59.5 -184t142.5 -135t187 -50q115 0 216.5 68.5t141.5 171.5h144q-28 -89 -99 -170.5t-163 -128.5q-85 -63 -122.5 -113.5t-37.5 -101.5q0 -38 31 -65 t75 -27q43 0 88 20v-82q-48 -18 -94 -18q-86 0 -139 47.5t-53 122.5q0 90 80 164q-7 -1 -30.5 -3t-33.5 -2q-144 0 -266 71t-193 194t-71 268zM209 578h782q-37 158 -143.5 252t-249.5 94t-252 -97t-137 -249z" />
<glyph unicode="&#x11a;" horiz-adv-x="997" d="M147 0v1372h752v-123h-614v-493h594v-123h-594v-510h614v-123h-752zM203 1743h170l159 -137l164 137h164l-264 -234h-125z" />
<glyph unicode="&#x11b;" horiz-adv-x="1198" d="M70 508q0 144 70.5 266.5t192 194t265.5 71.5q141 0 264 -72t195 -198q36 -62 51 -129.5t20 -179.5h-921q5 -99 59.5 -184t142.5 -135t187 -50q114 0 216 68.5t142 171.5h144q-56 -157 -195 -257t-303 -100q-144 0 -266 71t-193 194t-71 268zM209 578h780 q-37 158 -143 252t-248 94q-143 0 -252 -97t-137 -249zM297 1419h156l143 -155l147 155h160l-244 -252h-122z" />
<glyph unicode="&#x11c;" horiz-adv-x="1603" d="M74 686q0 193 98 357t266.5 259t368.5 95q254 0 450 -152q152 -117 195 -237h-156q-67 120 -200.5 193t-284.5 73q-162 0 -300.5 -79.5t-219 -215t-80.5 -293.5q0 -159 81 -294.5t221 -214.5t304 -79q190 0 349.5 118.5t203.5 291.5h-766v123h932q-11 -137 -73 -258.5 t-158.5 -209t-225 -138t-268.5 -50.5q-197 0 -367 96.5t-270 260.5t-100 354zM481 1509l269 234h124l265 -234h-166l-160 138l-162 -138h-170z" />
<glyph unicode="&#x11d;" horiz-adv-x="1259" d="M68 504q0 144 70 267.5t190 196t260 72.5q127 0 231.5 -54t173.5 -155v185h131v-893q0 -126 -19.5 -192.5t-76.5 -137.5q-70 -89 -183.5 -140.5t-238.5 -51.5q-109 0 -212.5 45t-178.5 125q-70 76 -111 202h136q50 -92 104 -149q47 -49 120.5 -78t151.5 -29 q164 0 270.5 105t106.5 266v113q-46 -103 -153.5 -164.5t-241.5 -61.5q-143 0 -265 71t-193.5 193t-71.5 265zM199 518q0 -182 114.5 -304t284.5 -122q164 0 279.5 123t115.5 297q0 169 -119 290.5t-286 121.5q-160 0 -274.5 -119.5t-114.5 -286.5zM299 1167l244 252h123 l239 -252h-155l-144 156l-147 -156h-160z" />
<glyph unicode="&#x11e;" horiz-adv-x="1603" d="M74 686q0 193 98 357t266.5 259t368.5 95q254 0 450 -152q152 -117 195 -237h-156q-67 120 -200.5 193t-284.5 73q-162 0 -300.5 -79.5t-219 -215t-80.5 -293.5q0 -159 81 -294.5t221 -214.5t304 -79q190 0 349.5 118.5t203.5 291.5h-766v123h932q-11 -137 -73 -258.5 t-158.5 -209t-225 -138t-268.5 -50.5q-197 0 -367 96.5t-270 260.5t-100 354zM514 1749h117q23 -77 61 -107t111 -30q70 0 108.5 31t63.5 106h117q-23 -122 -93.5 -181t-191.5 -59q-247 0 -293 240z" />
<glyph unicode="&#x11f;" horiz-adv-x="1259" d="M68 504q0 144 70 267.5t190 196t260 72.5q127 0 231.5 -54t173.5 -155v185h131v-893q0 -126 -19.5 -192.5t-76.5 -137.5q-70 -89 -183.5 -140.5t-238.5 -51.5q-109 0 -212.5 45t-178.5 125q-70 76 -111 202h136q50 -92 104 -149q47 -49 120.5 -78t151.5 -29 q164 0 270.5 105t106.5 266v113q-46 -103 -153.5 -164.5t-241.5 -61.5q-143 0 -265 71t-193.5 193t-71.5 265zM199 518q0 -182 114.5 -304t284.5 -122q164 0 279.5 123t115.5 297q0 169 -119 290.5t-286 121.5q-160 0 -274.5 -119.5t-114.5 -286.5zM313 1413h117 q23 -77 61 -107t113 -30q69 0 107 31t63 106h117q-23 -121 -93 -180t-192 -59q-250 0 -293 239z" />
<glyph unicode="&#x120;" horiz-adv-x="1603" d="M74 686q0 193 98 357t266.5 259t368.5 95q254 0 450 -152q152 -117 195 -237h-156q-67 120 -200.5 193t-284.5 73q-162 0 -300.5 -79.5t-219 -215t-80.5 -293.5q0 -159 81 -294.5t221 -214.5t304 -79q190 0 349.5 118.5t203.5 291.5h-766v123h932q-11 -137 -73 -258.5 t-158.5 -209t-225 -138t-268.5 -50.5q-197 0 -367 96.5t-270 260.5t-100 354zM741 1509v234h138v-234h-138z" />
<glyph unicode="&#x121;" horiz-adv-x="1259" d="M68 504q0 144 70 267.5t190 196t260 72.5q127 0 231.5 -54t173.5 -155v185h131v-893q0 -126 -19.5 -192.5t-76.5 -137.5q-70 -89 -183.5 -140.5t-238.5 -51.5q-109 0 -212.5 45t-178.5 125q-70 76 -111 202h136q50 -92 104 -149q47 -49 120.5 -78t151.5 -29 q164 0 270.5 105t106.5 266v113q-46 -103 -153.5 -164.5t-241.5 -61.5q-143 0 -265 71t-193.5 193t-71.5 265zM199 518q0 -182 114.5 -304t284.5 -122q164 0 279.5 123t115.5 297q0 169 -119 290.5t-286 121.5q-160 0 -274.5 -119.5t-114.5 -286.5zM524 1174v233h131v-233 h-131z" />
<glyph unicode="&#x122;" horiz-adv-x="1603" d="M74 686q0 193 98 357t266.5 259t368.5 95q254 0 450 -152q152 -117 195 -237h-156q-67 120 -200.5 193t-284.5 73q-162 0 -300.5 -79.5t-219 -215t-80.5 -293.5q0 -159 81 -294.5t221 -214.5t304 -79q190 0 349.5 118.5t203.5 291.5h-766v123h932q-11 -137 -73 -258.5 t-158.5 -209t-225 -138t-268.5 -50.5q-197 0 -367 96.5t-270 260.5t-100 354zM616 -385l127 279h138l-127 -279h-138z" />
<glyph unicode="&#x123;" horiz-adv-x="1259" d="M68 504q0 144 70 267.5t190 196t260 72.5q127 0 231.5 -54t173.5 -155v185h131v-893q0 -126 -19.5 -192.5t-76.5 -137.5q-70 -89 -183.5 -140.5t-238.5 -51.5q-109 0 -212.5 45t-178.5 125q-70 76 -111 202h136q50 -92 104 -149q47 -49 120.5 -78t151.5 -29 q164 0 270.5 105t106.5 266v113q-46 -103 -153.5 -164.5t-241.5 -61.5q-143 0 -265 71t-193.5 193t-71.5 265zM199 518q0 -182 114.5 -304t284.5 -122q164 0 279.5 123t115.5 297q0 169 -119 290.5t-286 121.5q-160 0 -274.5 -119.5t-114.5 -286.5zM526 1153l127 277h138 l-127 -277h-138z" />
<glyph unicode="&#x124;" horiz-adv-x="1284" d="M147 0v1372h138v-604h712v604h138v-1372h-138v645h-712v-645h-138zM311 1509l271 234h123l264 -234h-164l-160 138l-164 -138h-170z" />
<glyph unicode="&#x125;" horiz-adv-x="1155" d="M-125 1509l268 234h125l264 -234h-165l-160 138l-162 -138h-170zM135 0v1372h131v-487q47 71 131 113t178 42q106 0 201 -44t156 -122q94 -120 94 -317v-557h-131v557q0 158 -74 250q-44 55 -109.5 86t-136.5 31q-73 0 -141 -34.5t-112 -94.5q-31 -40 -43.5 -94 t-12.5 -144v-557h-131z" />
<glyph unicode="&#x126;" horiz-adv-x="1284" d="M10 979v123h137v270h138v-270h712v270h138v-270h137v-123h-137v-979h-138v645h-712v-645h-138v979h-137zM285 768h712v211h-712v-211z" />
<glyph unicode="&#x127;" horiz-adv-x="1155" d="M-2 1143v110h137v119h131v-119h322v-110h-322v-258q47 71 131 113t178 42q107 0 202 -44t157 -122q94 -120 94 -317v-557h-131v557q0 158 -74 250q-44 55 -110.5 86t-137.5 31q-73 0 -141 -34.5t-112 -94.5q-31 -40 -43.5 -94t-12.5 -144v-557h-131v1143h-137z" />
<glyph unicode="&#x128;" horiz-adv-x="434" d="M-88 1618q72 106 178 106q36 0 61 -8t113 -47q43 -20 53.5 -23.5t30.5 -3.5q32 0 57.5 17t51.5 57l67 -82q-38 -57 -79 -80.5t-103 -23.5q-37 0 -64 9t-116 50q-43 19 -74 19q-57 0 -111 -72zM147 0v1372h138v-1372h-138z" />
<glyph unicode="&#x129;" horiz-adv-x="399" d="M-98 1274q73 98 180 98q40 0 72 -9.5t94 -41.5q52 -25 82 -25q52 0 104 72l66 -80q-38 -55 -79 -77.5t-104 -22.5q-33 0 -60 9t-112 48q-39 19 -65 19q-58 0 -113 -70zM135 0v1016h131v-1016h-131z" />
<glyph unicode="&#x12a;" horiz-adv-x="434" d="M-37 1569v123h508v-123h-508zM147 0v1372h138v-1372h-138z" />
<glyph unicode="&#x12b;" horiz-adv-x="399" d="M-37 1217v114h475v-114h-475zM135 0v1016h131v-1016h-131z" />
<glyph unicode="&#x12e;" horiz-adv-x="434" d="M23 -195q0 119 147 195h-20v1372h137v-1372h-17q-153 -102 -153 -190q0 -40 33 -66.5t83 -26.5q39 0 86 17l-2 -82q-55 -19 -96 -19q-85 0 -141.5 49t-56.5 123z" />
<glyph unicode="&#x12f;" horiz-adv-x="399" d="M16 -188q0 57 32.5 102t103.5 86h-19v1016h131v-1016h-16q-78 -58 -108.5 -98.5t-30.5 -83.5q0 -38 31 -65t77 -27q43 0 88 20v-82q-48 -18 -94 -18q-86 0 -140.5 47t-54.5 119zM133 1139v233h131v-233h-131z" />
<glyph unicode="&#x130;" horiz-adv-x="434" d="M147 0v1372h138v-1372h-138zM147 1509v234h138v-234h-138z" />
<glyph unicode="&#x131;" horiz-adv-x="399" d="M135 0v1016h131v-1016h-131z" />
<glyph unicode="&#x134;" horiz-adv-x="868" d="M0 326h135q7 -100 75 -164t165 -64q72 0 128 39t79 105q16 52 16 164v966h137v-966q0 -99 -9.5 -154t-35.5 -100q-46 -82 -132 -129.5t-187 -47.5q-156 0 -259 97.5t-112 253.5zM330 1509l268 234h123l266 -234h-166l-159 138l-164 -138h-168z" />
<glyph unicode="&#x135;" horiz-adv-x="399" d="M-106 1167l243 252h123l240 -252h-156l-145 156l-146 -156h-159zM-72 -223q114 6 160.5 72.5t46.5 220.5v946h131v-946q0 -148 -26.5 -223t-98.5 -132q-85 -65 -213 -71v133z" />
<glyph unicode="&#x136;" horiz-adv-x="1114" d="M147 0v1372h138v-788l633 788h176l-543 -670l543 -702h-172l-459 594l-178 -217v-377h-138zM397 -385l127 279h138l-127 -279h-138z" />
<glyph unicode="&#x137;" horiz-adv-x="948" d="M135 0v1372h131v-977l477 621h166l-399 -512l420 -504h-168l-334 401l-162 -206v-195h-131zM330 -385l127 279h137l-127 -279h-137z" />
<glyph unicode="&#x138;" horiz-adv-x="948" d="M135 0v1016h131v-621l477 621h166l-399 -512l420 -504h-168l-334 401l-162 -206v-195h-131z" />
<glyph unicode="&#x139;" horiz-adv-x="890" d="M147 0v1372h138v-1249h569v-123h-707zM166 1575l266 227l72 -88l-268 -225z" />
<glyph unicode="&#x13a;" horiz-adv-x="399" d="M135 0v1372h131v-1372h-131zM150 1575l268 227l71 -88l-270 -225z" />
<glyph unicode="&#x13b;" horiz-adv-x="890" d="M147 0v1372h138v-1249h569v-123h-707zM328 -385l127 279h137l-127 -279h-137z" />
<glyph unicode="&#x13c;" horiz-adv-x="399" d="M12 -385l127 279h137l-126 -279h-138zM133 0v1372h131v-1372h-131z" />
<glyph unicode="&#x13d;" horiz-adv-x="890" d="M147 0v1372h138v-1249h569v-123h-707zM459 1096l125 276h137l-125 -276h-137z" />
<glyph unicode="&#x13e;" horiz-adv-x="610" d="M135 0v1372h131v-1372h-131zM348 1096l125 276h139l-127 -276h-137z" />
<glyph unicode="&#x141;" horiz-adv-x="890" d="M10 412v147l137 107v706h138v-631l286 217v-147l-286 -217v-471h569v-123h-707v518z" />
<glyph unicode="&#x142;" horiz-adv-x="432" d="M27 532v138l123 94v608h131v-526l122 92v-137l-122 -92v-709h-131v627z" />
<glyph unicode="&#x143;" horiz-adv-x="1388" d="M147 0v1372h187l770 -1139v1139h137v-1372h-137l-819 1208v-1208h-138zM637 1575l268 227l70 -88l-268 -225z" />
<glyph unicode="&#x144;" horiz-adv-x="1155" d="M135 0v1016h131v-131q74 82 148 118.5t166 36.5q106 0 200 -44t154 -122q94 -122 94 -317v-557h-131v557q0 158 -74 250q-46 56 -109.5 86.5t-133.5 30.5q-72 0 -139.5 -34.5t-110.5 -94.5q-31 -41 -43.5 -94.5t-12.5 -143.5v-557h-139zM496 1219l268 286l84 -78 l-273 -284z" />
<glyph unicode="&#x145;" horiz-adv-x="1388" d="M147 0v1372h187l770 -1139v1139h137v-1372h-137l-819 1208v-1208h-138zM520 -385l127 279h137l-127 -279h-137z" />
<glyph unicode="&#x146;" horiz-adv-x="1155" d="M135 0v1016h131v-131q74 82 148 118.5t166 36.5q106 0 200 -44t154 -122q94 -122 94 -317v-557h-131v557q0 158 -74 250q-46 56 -109.5 86.5t-133.5 30.5q-72 0 -139.5 -34.5t-110.5 -94.5q-31 -41 -43.5 -94.5t-12.5 -143.5v-557h-139zM397 -385l127 279h138l-127 -279 h-138z" />
<glyph unicode="&#x147;" horiz-adv-x="1388" d="M147 0v1372h187l770 -1139v1139h137v-1372h-137l-819 1208v-1208h-138zM379 1743h170l160 -137l163 137h164l-264 -234h-125z" />
<glyph unicode="&#x148;" horiz-adv-x="1155" d="M135 0v1016h131v-131q74 82 148 118.5t166 36.5q106 0 200 -44t154 -122q94 -122 94 -317v-557h-131v557q0 158 -74 250q-46 56 -109.5 86.5t-133.5 30.5q-72 0 -139.5 -34.5t-110.5 -94.5q-31 -41 -43.5 -94.5t-12.5 -143.5v-557h-139zM274 1419h156l143 -155l148 155 h160l-244 -252h-123z" />
<glyph unicode="&#x14a;" horiz-adv-x="1218" d="M147 0v1372h138v-129q139 154 336 154q106 0 201.5 -46t158.5 -128q100 -132 100 -367v-856q0 -163 -91 -258t-251 -98v133q111 6 158 72.5t47 216.5v790q0 190 -88 299t-242 109t-241.5 -108.5t-87.5 -299.5v-856h-138z" />
<glyph unicode="&#x14b;" horiz-adv-x="1155" d="M135 0v1016h131v-131q73 83 147 119t167 36q106 0 200 -44t154 -122q94 -122 94 -317v-487q0 -148 -26.5 -223t-98.5 -132q-85 -65 -213 -71v133q114 6 160.5 72t46.5 221v487q0 158 -74 250q-46 55 -110 86t-133 31q-73 0 -140.5 -34.5t-111.5 -94.5q-30 -42 -42 -95 t-12 -143v-557h-139z" />
<glyph unicode="&#x14c;" horiz-adv-x="1599" d="M74 694q0 140 58.5 270t156.5 225t232.5 151.5t279.5 56.5q196 0 363.5 -95.5t265.5 -259.5t98 -356q0 -143 -58 -274.5t-155.5 -227t-231.5 -152.5t-280 -57q-200 0 -367.5 96t-264.5 261.5t-97 361.5zM211 690q0 -161 79 -297.5t215.5 -215.5t297.5 -79 q157 0 292.5 79.5t215.5 214.5t80 292q0 159 -79.5 295t-215.5 215.5t-295 79.5q-117 0 -226 -47t-189 -125.5t-127.5 -186.5t-47.5 -225zM465 1569v123h672v-123h-672z" />
<glyph unicode="&#x14d;" horiz-adv-x="1200" d="M70 514q0 140 72 261.5t194.5 193t263.5 71.5q106 0 204 -43t169.5 -114.5t114 -170t42.5 -204.5q0 -142 -71.5 -265t-194 -195.5t-264.5 -72.5q-145 0 -267 72t-192.5 196t-70.5 271zM201 510q0 -175 116.5 -296.5t284.5 -121.5q167 0 282 122t115 300q0 168 -112 283 q-59 61 -134 94t-151 33q-164 0 -282.5 -122.5t-118.5 -291.5zM301 1217v114h598v-114h-598z" />
<glyph unicode="&#x150;" horiz-adv-x="1599" d="M74 694q0 140 58.5 270t156.5 225t232.5 151.5t279.5 56.5q196 0 363.5 -95.5t265.5 -259.5t98 -356q0 -143 -58 -274.5t-155.5 -227t-231.5 -152.5t-280 -57q-200 0 -367.5 96t-264.5 261.5t-97 361.5zM211 690q0 -161 79 -297.5t215.5 -215.5t297.5 -79 q157 0 292.5 79.5t215.5 214.5t80 292q0 159 -79.5 295t-215.5 215.5t-295 79.5q-117 0 -226 -47t-189 -125.5t-127.5 -186.5t-47.5 -225zM584 1575l268 227l70 -88l-269 -225zM872 1575l267 227l71 -88l-268 -225z" />
<glyph unicode="&#x151;" horiz-adv-x="1200" d="M70 514q0 140 72 261.5t194.5 193t263.5 71.5q106 0 204 -43t169.5 -114.5t114 -170t42.5 -204.5q0 -142 -71.5 -265t-194 -195.5t-264.5 -72.5q-145 0 -267 72t-192.5 196t-70.5 271zM201 510q0 -175 116.5 -296.5t284.5 -121.5q167 0 282 122t115 300q0 168 -112 283 q-59 61 -134 94t-151 33q-164 0 -282.5 -122.5t-118.5 -291.5zM379 1219l266 286l86 -78l-272 -284zM659 1219l269 286l84 -78l-271 -284z" />
<glyph unicode="&#x152;" horiz-adv-x="2203" d="M72 688q0 146 56.5 277t152.5 226t229 150.5t281 55.5q188 0 353.5 -83.5t237.5 -213.5v272h727v-123h-589v-495h569v-123h-569v-508h589v-123h-727v279q-32 -57 -59.5 -87.5t-81.5 -68.5q-201 -148 -434 -148q-154 0 -290.5 55t-234 150t-154 227t-56.5 281zM209 696 q0 -166 76.5 -303t210.5 -216t295 -79q162 0 298.5 79t215.5 215.5t79 297.5q0 159 -78 293.5t-213.5 212.5t-295.5 78q-161 0 -296 -77t-213.5 -210t-78.5 -291z" />
<glyph unicode="&#x153;" horiz-adv-x="2105" d="M70 506q0 106 42.5 205t113.5 171t168 115t202 43q282 0 467 -286q60 131 181.5 208.5t266.5 77.5t265.5 -72t190 -198t69.5 -278v-37h-908q9 -153 122.5 -258t267.5 -105q113 0 207.5 64t144.5 172h139q-44 -150 -185 -251.5t-306 -101.5q-145 0 -279 81.5t-178 195.5 q-72 -129 -197 -203t-268 -74q-140 0 -261.5 72.5t-193 195t-71.5 263.5zM201 508q0 -170 118 -293t281 -123t280 119t117 285q0 114 -54 213t-146 157t-199 58q-105 0 -197 -57t-146 -153t-54 -206zM1130 571h768q-19 146 -130.5 249.5t-251.5 103.5q-83 0 -160.5 -40 t-136.5 -112q-34 -42 -54 -86.5t-35 -114.5z" />
<glyph unicode="&#x154;" horiz-adv-x="1163" d="M147 0v1372h349q206 0 309 -39q126 -50 200 -158.5t74 -244.5q0 -172 -114.5 -290t-292.5 -128l387 -512h-172l-465 623h55q133 0 192 9.5t115 39.5q72 38 115 109.5t43 154.5q0 79 -40.5 150.5t-108.5 111.5q-91 51 -269 51h-239v-1249h-138zM406 1575l268 227l71 -88 l-268 -225z" />
<glyph unicode="&#x155;" horiz-adv-x="587" d="M135 0v1016h131v-146q71 161 295 170v-137q-66 -6 -104 -20.5t-80 -48.5q-58 -49 -81.5 -103t-23.5 -139v-592h-137zM229 1219l267 286l84 -78l-271 -284z" />
<glyph unicode="&#x156;" horiz-adv-x="1163" d="M147 0v1372h349q206 0 309 -39q126 -50 200 -158.5t74 -244.5q0 -172 -114.5 -290t-292.5 -128l387 -512h-172l-465 623h55q133 0 192 9.5t115 39.5q72 38 115 109.5t43 154.5q0 79 -40.5 150.5t-108.5 111.5q-91 51 -269 51h-239v-1249h-138zM408 -385l127 279h137 l-127 -279h-137z" />
<glyph unicode="&#x157;" horiz-adv-x="587" d="M16 -385l127 279h138l-127 -279h-138zM133 0v1016h131v-146q74 161 297 170v-137q-66 -6 -105.5 -20.5t-80.5 -48.5q-58 -49 -81.5 -103t-23.5 -139v-592h-137z" />
<glyph unicode="&#x158;" horiz-adv-x="1163" d="M147 0v1372h349q206 0 309 -39q126 -50 200 -158.5t74 -244.5q0 -172 -114.5 -290t-292.5 -128l387 -512h-172l-465 623h55q133 0 192 9.5t115 39.5q72 38 115 109.5t43 154.5q0 79 -40.5 150.5t-108.5 111.5q-91 51 -269 51h-239v-1249h-138zM217 1743h170l160 -137 l164 137h163l-264 -234h-125z" />
<glyph unicode="&#x159;" horiz-adv-x="587" d="M18 1419h156l143 -155l148 155h160l-244 -252h-123zM135 0v1016h131v-146q74 161 295 170v-137q-66 -6 -104 -20.5t-80 -48.5q-58 -49 -81.5 -103t-23.5 -139v-592h-137z" />
<glyph unicode="&#x15a;" horiz-adv-x="950" d="M31 385h147q6 -63 21 -104.5t43 -79.5q37 -46 97 -74.5t122 -28.5q114 0 196 81t82 194q0 56 -25 107.5t-69 88.5q-36 32 -81.5 51.5t-131.5 41.5q-109 28 -163.5 53t-96.5 67q-96 96 -96 246q0 158 110.5 263.5t276.5 105.5q161 0 271 -107t110 -264h-144 q-9 111 -77.5 179.5t-171.5 68.5q-100 0 -169 -70.5t-69 -171.5q0 -45 18 -88t48 -70q52 -44 204 -86q125 -36 168 -54t88 -56q65 -54 101.5 -133t36.5 -166q0 -166 -123.5 -285t-296.5 -119q-183 0 -300.5 113.5t-125.5 296.5zM406 1575l266 227l71 -88l-268 -225z" />
<glyph unicode="&#x15b;" horiz-adv-x="772" d="M49 299h137q4 -94 56.5 -150.5t134.5 -56.5q72 0 126 54.5t54 127.5q0 69 -46 113.5t-155 81.5q-77 26 -118 46.5t-74 49.5q-78 72 -78 185q0 121 84.5 205.5t206.5 84.5q117 0 199 -79t86 -197h-140q-4 72 -46 116t-105 44q-60 0 -107 -46.5t-47 -105.5q0 -32 17 -64.5 t45 -52.5q32 -23 118 -53q158 -53 224.5 -121t66.5 -178q0 -145 -89 -236.5t-230 -91.5q-139 0 -228.5 90.5t-91.5 233.5zM309 1219l269 286l84 -78l-271 -284z" />
<glyph unicode="&#x15c;" horiz-adv-x="950" d="M31 385h147q6 -63 21 -104.5t43 -79.5q37 -46 97 -74.5t122 -28.5q114 0 196 81t82 194q0 56 -25 107.5t-69 88.5q-36 32 -81.5 51.5t-131.5 41.5q-109 28 -163.5 53t-96.5 67q-96 96 -96 246q0 158 110.5 263.5t276.5 105.5q161 0 271 -107t110 -264h-144 q-9 111 -77.5 179.5t-171.5 68.5q-100 0 -169 -70.5t-69 -171.5q0 -45 18 -88t48 -70q52 -44 204 -86q125 -36 168 -54t88 -56q65 -54 101.5 -133t36.5 -166q0 -166 -123.5 -285t-296.5 -119q-183 0 -300.5 113.5t-125.5 296.5zM133 1509l270 234h123l265 -234h-166 l-160 138l-162 -138h-170z" />
<glyph unicode="&#x15d;" horiz-adv-x="772" d="M49 299h137q4 -94 56.5 -150.5t134.5 -56.5q72 0 126 54.5t54 127.5q0 69 -46 113.5t-155 81.5q-77 26 -118 46.5t-74 49.5q-78 72 -78 185q0 121 84.5 205.5t206.5 84.5q117 0 199 -79t86 -197h-140q-4 72 -46 116t-105 44q-60 0 -107 -46.5t-47 -105.5q0 -32 17 -64.5 t45 -52.5q32 -23 118 -53q158 -53 224.5 -121t66.5 -178q0 -145 -89 -236.5t-230 -91.5q-139 0 -228.5 90.5t-91.5 233.5zM84 1167l242 252h125l237 -252h-156l-143 156l-145 -156h-160z" />
<glyph unicode="&#x15e;" horiz-adv-x="950" d="M31 385h147q6 -63 21 -104.5t43 -79.5q37 -46 97 -74.5t122 -28.5q114 0 196 81t82 194q0 56 -25 107.5t-69 88.5q-37 31 -83 51t-130 42q-109 28 -163.5 53t-96.5 67q-96 96 -96 246q0 158 110.5 263.5t276.5 105.5q161 0 271 -107t110 -264h-144q-9 111 -77.5 179.5 t-171.5 68.5q-100 0 -169 -70.5t-69 -171.5q0 -45 18 -88t48 -70q52 -44 204 -86q125 -36 168 -54t88 -56q65 -54 101.5 -133.5t36.5 -165.5q0 -109 -54.5 -200.5t-149.5 -146t-210 -57.5l-43 -102q45 14 63 14q63 0 103.5 -44t40.5 -113q0 -75 -50.5 -125.5t-125.5 -50.5 q-63 0 -107 36.5t-61 102.5l86 12q12 -35 30 -49t50 -14q37 0 61.5 24.5t24.5 61.5t-27 64.5t-62 27.5q-40 0 -75 -43l-58 30l74 173q-161 29 -257 138t-99 267z" />
<glyph unicode="&#x15f;" horiz-adv-x="772" d="M49 299h137q4 -94 56.5 -150.5t134.5 -56.5q72 0 126 54.5t54 127.5q0 69 -46 113.5t-155 81.5q-77 26 -118 46.5t-74 49.5q-78 72 -78 185q0 121 84.5 205.5t206.5 84.5q117 0 199 -79t86 -197h-140q-4 72 -46 116t-105 44q-60 0 -107 -46.5t-47 -105.5q0 -32 17 -64.5 t45 -52.5q36 -26 118 -53q159 -54 225 -121.5t66 -177.5q0 -143 -84 -232.5t-225 -93.5l-37 -88q35 13 61 13q64 0 105 -41.5t41 -106.5q0 -72 -48.5 -121t-121.5 -49q-63 0 -105 34t-57 97l82 11q6 -28 30.5 -46t55.5 -18q34 0 57 24.5t23 61.5q0 38 -25.5 64t-62.5 26 q-43 0 -76 -41l-55 31l63 152q-122 25 -192.5 111.5t-67.5 207.5z" />
<glyph unicode="&#x160;" horiz-adv-x="950" d="M31 385h147q6 -63 21 -104.5t43 -79.5q37 -46 97 -74.5t122 -28.5q114 0 196 81t82 194q0 56 -25 107.5t-69 88.5q-36 32 -81.5 51.5t-131.5 41.5q-109 28 -163.5 53t-96.5 67q-96 96 -96 246q0 158 110.5 263.5t276.5 105.5q161 0 271 -107t110 -264h-144 q-9 111 -77.5 179.5t-171.5 68.5q-100 0 -169 -70.5t-69 -171.5q0 -45 18 -88t48 -70q52 -44 204 -86q125 -36 168 -54t88 -56q65 -54 101.5 -133t36.5 -166q0 -166 -123.5 -285t-296.5 -119q-183 0 -300.5 113.5t-125.5 296.5zM133 1743h170l160 -137l164 137h164 l-265 -234h-125z" />
<glyph unicode="&#x161;" horiz-adv-x="772" d="M49 299h137q4 -94 56.5 -150.5t134.5 -56.5q72 0 126 54.5t54 127.5q0 69 -46 113.5t-155 81.5q-77 26 -118 46.5t-74 49.5q-78 72 -78 185q0 121 84.5 205.5t206.5 84.5q117 0 199 -79t86 -197h-140q-4 72 -46 116t-105 44q-60 0 -107 -46.5t-47 -105.5q0 -32 17 -64.5 t45 -52.5q32 -23 118 -53q158 -53 224.5 -121t66.5 -178q0 -145 -89 -236.5t-230 -91.5q-139 0 -228.5 90.5t-91.5 233.5zM76 1419h155l144 -155l147 155h160l-244 -252h-123z" />
<glyph unicode="&#x162;" horiz-adv-x="817" d="M25 1249v123h768v-123h-316v-1249h-137v1249h-315zM221 -385l127 279h137l-127 -279h-137z" />
<glyph unicode="&#x163;" horiz-adv-x="540" d="M-37 899v117h213v356h131v-356h242v-117h-242v-899h-131v899h-213zM57 -385l127 279h138l-127 -279h-138z" />
<glyph unicode="&#x164;" horiz-adv-x="817" d="M25 1249v123h768v-123h-316v-1249h-137v1249h-315zM80 1743h170l160 -137l163 137h164l-264 -234h-125z" />
<glyph unicode="&#x165;" horiz-adv-x="681" d="M-37 899v117h213v356h131v-356h242v-117h-242v-899h-131v899h-213zM420 1153l127 277h137l-127 -277h-137z" />
<glyph unicode="&#x166;" horiz-adv-x="817" d="M25 1249v123h768v-123h-316v-477h234v-123h-234v-649h-137v649h-234v123h234v477h-315z" />
<glyph unicode="&#x167;" horiz-adv-x="540" d="M-37 899v117h213v356h131v-356h242v-117h-242v-285h180v-116h-180v-498h-131v498h-151v116h151v285h-213z" />
<glyph unicode="&#x168;" horiz-adv-x="1204" d="M135 516v856h137v-856q0 -189 88 -298t242 -109t242 109t88 298v856h137v-856q0 -234 -100 -366q-63 -82 -160.5 -128.5t-206.5 -46.5t-205.5 46.5t-158.5 128.5q-103 132 -103 366zM295 1618q72 106 178 106q36 0 61 -8t113 -47q43 -20 53.5 -23.5t30.5 -3.5 q32 0 57.5 17t51.5 57l67 -82q-38 -57 -79.5 -80.5t-102.5 -23.5q-37 0 -64 9t-116 50q-43 19 -74 19q-57 0 -111 -72z" />
<glyph unicode="&#x169;" horiz-adv-x="1150" d="M127 457v559h131v-559q0 -151 57 -234q90 -131 256 -131q76 0 143 34t109 95q62 86 62 236v559h131v-1016h-123v156q-56 -93 -138.5 -137t-203.5 -44q-106 0 -193.5 42t-146.5 120q-84 112 -84 320zM276 1274q74 98 181 98q40 0 72 -9.5t94 -41.5q52 -25 82 -25 q52 0 104 72l65 -80q-38 -56 -78.5 -78t-103.5 -22q-33 0 -60 9t-112 48q-39 19 -65 19q-58 0 -113 -70z" />
<glyph unicode="&#x16a;" horiz-adv-x="1204" d="M135 516v856h137v-856q0 -189 88 -298t242 -109t242 109t88 298v856h137v-856q0 -234 -100 -366q-63 -82 -160.5 -128.5t-206.5 -46.5t-205.5 46.5t-158.5 128.5q-103 132 -103 366zM266 1569v123h672v-123h-672z" />
<glyph unicode="&#x16b;" horiz-adv-x="1150" d="M127 457v559h131v-559q0 -151 57 -234q90 -131 256 -131q76 0 143 34t109 95q62 86 62 236v559h131v-1016h-123v156q-56 -93 -138.5 -137t-203.5 -44q-106 0 -193.5 42t-146.5 120q-84 112 -84 320zM276 1217v114h598v-114h-598z" />
<glyph unicode="&#x16c;" horiz-adv-x="1204" d="M135 516v856h137v-856q0 -189 88 -298t242 -109t242 109t88 298v856h137v-856q0 -234 -100 -366q-63 -82 -160.5 -128.5t-206.5 -46.5t-205.5 46.5t-158.5 128.5q-103 132 -103 366zM326 1749h116q23 -77 61 -107t111 -30q70 0 108.5 31t61.5 106h119q-46 -240 -287 -240 q-246 0 -290 240z" />
<glyph unicode="&#x16d;" horiz-adv-x="1150" d="M127 457v559h131v-559q0 -151 57 -234q90 -131 256 -131q76 0 143 34t109 95q62 86 62 236v559h131v-1016h-123v156q-56 -93 -138.5 -137t-203.5 -44q-106 0 -193.5 42t-146.5 120q-84 112 -84 320zM287 1413h116q23 -77 61 -107t111 -30q70 0 109 31t64 106h116 q-23 -122 -93 -180.5t-191 -58.5q-250 0 -293 239z" />
<glyph unicode="&#x16e;" horiz-adv-x="1204" d="M135 516v856h137v-856q0 -189 88 -298t242 -109t242 109t88 298v856h137v-856q0 -234 -100 -366q-63 -82 -160.5 -128.5t-206.5 -46.5t-205.5 46.5t-158.5 128.5q-103 132 -103 366zM410 1677q0 78 57 134.5t135 56.5q80 0 136.5 -57t56.5 -136q0 -78 -57 -135t-136 -57 q-80 0 -136 56.5t-56 137.5zM506 1677q0 -43 28 -72.5t68 -29.5t68 29.5t28 70.5t-28 71t-68 30q-38 0 -67 -29.5t-29 -69.5z" />
<glyph unicode="&#x16f;" horiz-adv-x="1150" d="M127 457v559h131v-559q0 -151 57 -234q90 -131 256 -131q76 0 143 34t109 95q62 86 62 236v559h131v-1016h-123v156q-56 -93 -138.5 -137t-203.5 -44q-106 0 -193.5 42t-146.5 120q-84 112 -84 320zM383 1343q0 78 57 134.5t135 56.5q79 0 136 -57t57 -136 q0 -78 -57 -135t-136 -57q-80 0 -136 56.5t-56 137.5zM475 1343q0 -44 29.5 -75t70.5 -31t71 30.5t30 73.5t-30 74t-71 31t-70.5 -30.5t-29.5 -72.5z" />
<glyph unicode="&#x170;" horiz-adv-x="1204" d="M135 516v856h137v-856q0 -189 88 -298t242 -109t242 109t88 298v856h137v-856q0 -234 -100 -366q-63 -82 -160.5 -128.5t-206.5 -46.5t-205.5 46.5t-158.5 128.5q-103 132 -103 366zM385 1575l268 227l70 -88l-268 -225zM674 1575l266 227l72 -88l-269 -225z" />
<glyph unicode="&#x171;" horiz-adv-x="1150" d="M127 457v559h131v-559q0 -151 57 -234q90 -131 256 -131q76 0 143 34t109 95q62 86 62 236v559h131v-1016h-123v156q-56 -93 -138.5 -137t-203.5 -44q-106 0 -193.5 42t-146.5 120q-84 112 -84 320zM354 1219l267 286l86 -78l-273 -284zM635 1219l268 286l84 -78 l-270 -284z" />
<glyph unicode="&#x172;" horiz-adv-x="1204" d="M135 516v856h137v-856q0 -189 88 -298t242 -109t242 109t88 298v856h137v-856q0 -174 -57.5 -291t-173.5 -190q-172 -108 -172 -225q0 -40 33 -66.5t83 -26.5q39 0 86 17v-82q-55 -19 -96 -19q-86 0 -142.5 49.5t-56.5 124.5q0 89 78 170q-27 -2 -51 -2q-108 0 -204 46.5 t-158 128.5q-103 132 -103 366z" />
<glyph unicode="&#x173;" horiz-adv-x="1150" d="M127 457v559h131v-559q0 -151 57 -234q90 -131 256 -131q76 0 143 34t109 95q62 86 62 236v559h131v-1016h-27l-12 -10l-12 -8q-117 -78 -117 -164q0 -38 32 -65t76 -27q43 0 91 20v-82q-50 -18 -97 -18q-84 0 -138 47t-54 119q0 113 135 188v156q-54 -92 -137.5 -136.5 t-204.5 -44.5q-106 0 -193.5 42t-146.5 120q-84 112 -84 320z" />
<glyph unicode="&#x178;" horiz-adv-x="1101" d="M2 1372h152l393 -770l401 770h150l-482 -913v-459h-137v459zM344 1509v234h137v-234h-137zM618 1509v234h138v-234h-138z" />
<glyph unicode="&#x179;" horiz-adv-x="954" d="M51 0v123l674 1126h-653v123h809v-123l-674 -1126h694v-123h-850zM412 1575l266 227l72 -88l-269 -225z" />
<glyph unicode="&#x17a;" horiz-adv-x="825" d="M43 0v117l563 782h-545v117h699v-121l-557 -778h592v-117h-752zM342 1219l266 286l84 -78l-270 -284z" />
<glyph unicode="&#x17b;" horiz-adv-x="954" d="M51 0v123l674 1126h-653v123h809v-123l-674 -1126h694v-123h-850zM408 1509v234h137v-234h-137z" />
<glyph unicode="&#x17c;" horiz-adv-x="825" d="M43 0v117l563 782h-545v117h699v-121l-557 -778h592v-117h-752zM346 1174v233h131v-233h-131z" />
<glyph unicode="&#x17d;" horiz-adv-x="954" d="M51 0v123l674 1126h-653v123h809v-123l-674 -1126h694v-123h-850zM145 1743h170l160 -137l164 137h164l-264 -234h-125z" />
<glyph unicode="&#x17e;" horiz-adv-x="825" d="M43 0v117l563 782h-545v117h699v-121l-557 -778h592v-117h-752zM123 1419h156l143 -155l147 155h160l-244 -252h-123z" />
<glyph unicode="&#x192;" d="M-14 -252l22 119q49 -12 92 -12q125 0 185 69q32 35 51.5 93t40.5 173l135 762h-211l23 123h206l9 41q23 112 53.5 182.5t81.5 116.5q100 94 229 94q12 0 39 -4l-18 -125q-14 2 -29 2q-74 0 -129 -49q-39 -34 -58 -78.5t-38 -138.5l-8 -41h208l-22 -123h-207l-135 -774 q-22 -124 -32.5 -167t-29.5 -79q-106 -198 -354 -198q-61 0 -104 14z" />
<glyph unicode="&#x218;" horiz-adv-x="950" d="M31 385h147q6 -63 21 -104.5t43 -79.5q37 -46 97 -74.5t122 -28.5q114 0 196 81t82 194q0 56 -25 107.5t-69 88.5q-36 32 -81.5 51.5t-131.5 41.5q-109 28 -163.5 53t-96.5 67q-96 96 -96 246q0 158 110.5 263.5t276.5 105.5q161 0 271 -107t110 -264h-144 q-9 111 -77.5 179.5t-171.5 68.5q-100 0 -169 -70.5t-69 -171.5q0 -45 18 -88t48 -70q52 -44 204 -86q125 -36 168 -54t88 -56q65 -54 101.5 -133t36.5 -166q0 -166 -123.5 -285t-296.5 -119q-183 0 -300.5 113.5t-125.5 296.5zM262 -385l127 279h137l-127 -279h-137z" />
<glyph unicode="&#x219;" horiz-adv-x="772" d="M49 299h137q4 -94 56.5 -150.5t134.5 -56.5q72 0 126 54.5t54 127.5q0 69 -46 113.5t-155 81.5q-77 26 -118 46.5t-74 49.5q-78 72 -78 185q0 121 84.5 205.5t206.5 84.5q117 0 199 -79t86 -197h-140q-4 72 -46 116t-105 44q-60 0 -107 -46.5t-47 -105.5q0 -32 17 -64.5 t45 -52.5q32 -23 118 -53q158 -53 224.5 -121t66.5 -178q0 -145 -89 -236.5t-230 -91.5q-139 0 -228.5 90.5t-91.5 233.5zM186 -385l127 279h138l-127 -279h-138z" />
<glyph unicode="&#x21a;" horiz-adv-x="817" d="M25 1249v123h768v-123h-316v-1249h-137v1249h-315zM221 -385l127 279h137l-127 -279h-137z" />
<glyph unicode="&#x21b;" horiz-adv-x="540" d="M-37 899v117h213v356h131v-356h242v-117h-242v-899h-131v899h-213zM57 -385l127 279h138l-127 -279h-138z" />
<glyph unicode="&#x2c6;" d="M213 1167l244 252h123l239 -252h-155l-146 156l-145 -156h-160z" />
<glyph unicode="&#x2c7;" d="M213 1419h156l143 -155l147 155h160l-244 -252h-122z" />
<glyph unicode="&#x2d8;" d="M225 1413h117q23 -77 61 -107t111 -30q70 0 108.5 31t63.5 106h117q-23 -121 -93 -180t-192 -59q-250 0 -293 239z" />
<glyph unicode="&#x2d9;" d="M451 1174v233h131v-233h-131z" />
<glyph unicode="&#x2da;" d="M324 1343q0 78 57 134.5t135 56.5q80 0 136.5 -57t56.5 -136q0 -78 -57 -135t-136 -57q-80 0 -136 56.5t-56 137.5zM416 1343q0 -44 29.5 -75t70.5 -31t70.5 30.5t29.5 73.5t-29.5 74t-70.5 31t-70.5 -30.5t-29.5 -72.5z" />
<glyph unicode="&#x2db;" d="M440 -188q0 56 31.5 100.5t101.5 87.5h97q-76 -57 -107 -98.5t-31 -85.5q0 -37 31.5 -63.5t75.5 -26.5q43 0 88 20v-82q-48 -18 -94 -18q-85 0 -139 47t-54 119z" />
<glyph unicode="&#x2dc;" d="M215 1274q73 98 180 98q40 0 72 -9.5t94 -41.5q52 -25 82 -25q53 0 105 72l65 -80q-38 -56 -78.5 -78t-103.5 -22q-33 0 -60 9t-112 48q-39 19 -66 19q-57 0 -112 -70z" />
<glyph unicode="&#x2dd;" d="M281 1219l266 286l86 -78l-273 -284zM561 1219l268 286l84 -78l-270 -284z" />
<glyph unicode="&#x3a9;" horiz-adv-x="1372" d="M59 0v119h383q-383 224 -383 629q0 137 49 259t132.5 209t199.5 138t246 51q174 0 318.5 -86.5t227.5 -238t83 -335.5q0 -402 -383 -626h383v-119h-535v109q86 48 136 86t94 88q172 187 172 448q0 257 -176 424q-137 131 -316 131q-212 0 -354.5 -159.5t-142.5 -395.5 q0 -201 99 -354.5t302 -267.5v-109h-535z" />
<glyph unicode="&#x3c0;" horiz-adv-x="1165" d="M53 866v119h1057v-119h-149v-866h-132v866h-493v-866h-131v866h-152z" />
<glyph unicode="&#x2000;" horiz-adv-x="934" />
<glyph unicode="&#x2001;" horiz-adv-x="1868" />
<glyph unicode="&#x2002;" horiz-adv-x="934" />
<glyph unicode="&#x2003;" horiz-adv-x="1868" />
<glyph unicode="&#x2004;" horiz-adv-x="622" />
<glyph unicode="&#x2005;" horiz-adv-x="467" />
<glyph unicode="&#x2006;" horiz-adv-x="311" />
<glyph unicode="&#x2007;" horiz-adv-x="311" />
<glyph unicode="&#x2008;" horiz-adv-x="233" />
<glyph unicode="&#x2009;" horiz-adv-x="373" />
<glyph unicode="&#x200a;" horiz-adv-x="103" />
<glyph unicode="&#x2010;" horiz-adv-x="479" d="M0 459v123h479v-123h-479z" />
<glyph unicode="&#x2011;" horiz-adv-x="479" d="M0 459v123h479v-123h-479z" />
<glyph unicode="&#x2012;" horiz-adv-x="479" d="M0 459v123h479v-123h-479z" />
<glyph unicode="&#x2013;" d="M96 459v123h838v-123h-838z" />
<glyph unicode="&#x2014;" horiz-adv-x="1503" d="M0 459v123h1503v-123h-1503z" />
<glyph unicode="&#x2018;" horiz-adv-x="464" d="M82 1372h137l164 -356h-137z" />
<glyph unicode="&#x2019;" horiz-adv-x="464" d="M82 1016l164 356h137l-164 -356h-137z" />
<glyph unicode="&#x201a;" horiz-adv-x="659" d="M166 -125l164 358h137l-164 -358h-137z" />
<glyph unicode="&#x201c;" horiz-adv-x="739" d="M82 1016l164 356h137l-164 -356h-137zM356 1016l164 356h137l-163 -356h-138z" />
<glyph unicode="&#x201d;" horiz-adv-x="739" d="M82 1016l164 356h137l-164 -356h-137zM356 1016l164 356h137l-163 -356h-138z" />
<glyph unicode="&#x201e;" horiz-adv-x="739" d="M82 -125l164 358h137l-164 -358h-137zM356 -125l164 358h137l-163 -358h-138z" />
<glyph unicode="&#x2020;" d="M82 823v123h364v426h138v-426h362v-123h-362v-1179h-138v1179h-364z" />
<glyph unicode="&#x2021;" d="M82 70v123h364v630h-364v123h364v426h138v-426h362v-123h-362v-630h362v-123h-362v-426h-138v426h-364z" />
<glyph unicode="&#x2022;" horiz-adv-x="1372" d="M403 696q0 120 84.5 203.5t206.5 83.5q114 0 197.5 -85t83.5 -202t-84 -200.5t-201 -83.5q-118 0 -202.5 83.5t-84.5 200.5z" />
<glyph unicode="&#x2024;" horiz-adv-x="514" d="M197 0v211h122v-211h-122z" />
<glyph unicode="&#x2025;" d="M197 0v211h122v-211h-122zM713 0v211h123v-211h-123z" />
<glyph unicode="&#x2026;" horiz-adv-x="1218" d="M135 0v233h137v-233h-137zM541 0v233h137v-233h-137zM948 0v233h137v-233h-137z" />
<glyph unicode="&#x202f;" horiz-adv-x="373" />
<glyph unicode="&#x2030;" horiz-adv-x="2596" d="M78 1051q0 140 103.5 243t244.5 103t244.5 -104t103.5 -246t-103.5 -246.5t-244.5 -104.5q-145 0 -246.5 103.5t-101.5 251.5zM186 1049q0 -106 70 -179t170 -73q101 0 170.5 73.5t69.5 180.5q0 100 -71 172.5t-169 72.5q-97 0 -168.5 -73t-71.5 -174zM524 0l617 1372 h106l-616 -1372h-107zM997 330q0 139 104.5 242.5t244.5 103.5q141 0 244.5 -104t103.5 -246t-103.5 -246.5t-244.5 -104.5q-145 0 -247 103.5t-102 251.5zM1106 328q0 -106 70 -179t170 -73q101 0 170 73.5t69 180.5q0 100 -70.5 172.5t-168.5 72.5q-97 0 -168.5 -73.5 t-71.5 -173.5zM1821 330q0 139 104 242.5t244 103.5q143 0 246.5 -104t103.5 -246t-103.5 -246.5t-244.5 -104.5q-146 0 -248 103.5t-102 251.5zM1929 328q0 -106 70.5 -179t171.5 -73t170 73.5t69 180.5q0 100 -70.5 172.5t-168.5 72.5t-170 -73t-72 -174z" />
<glyph unicode="&#x2032;" horiz-adv-x="282" d="M45 973l66 399h127l-95 -399h-98z" />
<glyph unicode="&#x2033;" horiz-adv-x="501" d="M45 973l66 399h127l-95 -399h-98zM264 973l66 399h127l-95 -399h-98z" />
<glyph unicode="&#x2039;" horiz-adv-x="512" d="M90 522l211 369l109 -57l-174 -312l174 -313l-109 -59z" />
<glyph unicode="&#x203a;" horiz-adv-x="512" d="M102 209l174 313l-174 312l109 57l211 -369l-211 -372z" />
<glyph unicode="&#x2044;" horiz-adv-x="339" d="M-193 0l617 1372h106l-616 -1372h-107z" />
<glyph unicode="&#x205f;" horiz-adv-x="467" />
<glyph unicode="&#x20ac;" horiz-adv-x="1486" d="M72 506l57 135h98q-2 25 -2 43q0 20 2 47h-155l57 135h119q65 239 255 385t437 146q265 0 475 -178l-53 -127q-84 87 -194.5 134.5t-227.5 47.5q-183 0 -334.5 -112.5t-212.5 -295.5h873l-58 -135h-843q-3 -37 -3 -45q0 -1 0.5 -5t1 -15.5t1.5 -24.5h804l-57 -135h-719 q60 -179 213.5 -293.5t333.5 -114.5q118 0 230.5 51.5t197.5 143.5v-174q-204 -144 -424 -144q-247 0 -439 146.5t-257 384.5h-176z" />
<glyph unicode="&#x2122;" horiz-adv-x="1607" d="M41 1290v82h481v-82h-190v-700h-99v700h-192zM594 590v782h141l299 -645l301 645h142v-782h-99v659l-303 -659h-82l-301 659v-659h-98z" />
<glyph unicode="&#x2202;" d="M68 442q0 189 125 322t305 133q102 0 173.5 -37.5t137.5 -124.5l-12 31q-54 137 -114.5 220.5t-160.5 150.5q-93 60 -166 87.5t-174 39.5l19 116q170 -23 284 -73t211 -142q126 -120 196.5 -295.5t70.5 -371.5q0 -194 -82 -322q-61 -94 -157.5 -146.5t-205.5 -52.5 q-186 0 -318 136.5t-132 328.5zM201 434q0 -146 93 -250t222 -104q133 0 223 106t90 263q0 151 -85.5 249.5t-215.5 98.5q-138 0 -232.5 -104.5t-94.5 -258.5z" />
<glyph unicode="&#x2206;" horiz-adv-x="1372" d="M59 0l555 1372h140l557 -1372h-1252zM246 121h876l-438 1091z" />
<glyph unicode="&#x220f;" horiz-adv-x="1427" d="M74 -393h162v1816h-162v121h1278v-121h-162v-1816h162v-121h-463v121h170v1816h-692v-1816h168v-121h-461v121z" />
<glyph unicode="&#x2211;" horiz-adv-x="1372" d="M59 -377l512 934l-512 854v133h1164v-463h-119l-12 340h-887l520 -864l-520 -950h907l6 338h125v-459h-1184v137z" />
<glyph unicode="&#x221a;" horiz-adv-x="1372" d="M0 627v121h274l82 -279l9 -37q19 -87 31 -140.5t16.5 -73l7.5 -32.5h8q10 38 10 43l35 138l53 217l95 325l231 797h520v-121h-409l-461 -1585h-158l-176 627h-168z" />
<glyph unicode="&#x221e;" horiz-adv-x="1372" d="M39 705q0 135 87.5 222t223.5 87q188 0 334 -223q80 117 161.5 170t182.5 53q135 0 221 -88.5t86 -227.5q0 -136 -85.5 -223.5t-219.5 -87.5q-100 0 -182 54t-158 171q-79 -115 -162.5 -169t-181.5 -54q-135 0 -221 88.5t-86 227.5zM168 702q0 -88 54.5 -144t137.5 -56 q72 0 129.5 44t131.5 154q-66 106 -128.5 153.5t-134.5 47.5q-83 0 -136.5 -56.5t-53.5 -142.5zM754 700q66 -106 128 -153t134 -47q83 0 136.5 56t53.5 144t-54.5 144.5t-137.5 56.5q-72 0 -131 -45.5t-129 -155.5z" />
<glyph unicode="&#x222b;" d="M213 -492l31 115q49 -20 88 -20q92 0 110 90q7 47 7 155v1313q0 189 18 244q20 65 78 102t141 37q59 0 131 -22l-31 -115q-53 18 -90 18q-95 0 -110 -88q-6 -41 -6 -209v-1257q0 -142 -7 -196t-30 -91q-29 -46 -87 -71t-134 -25q-58 0 -109 20z" />
<glyph unicode="&#x2248;" d="M20 436q57 119 123 173.5t154 54.5q78 0 233 -74q91 -44 129 -57t76 -13q59 0 101.5 32.5t91.5 115.5l80 -47q-58 -117 -128 -171.5t-161 -54.5q-44 0 -95.5 18.5t-191.5 84.5q-83 41 -143 41q-56 0 -100.5 -36t-88.5 -118zM20 768q57 119 123.5 173t155.5 54 q75 0 231 -73q91 -43 129 -56.5t74 -13.5q60 0 103 32t92 115l80 -47q-58 -117 -128 -171t-161 -54q-44 0 -96 18.5t-191 83.5q-83 41 -143 41q-56 0 -100.5 -36t-88.5 -117z" />
<glyph unicode="&#x2260;" d="M68 475v117h346l94 199h-440v116h495l113 234l92 -35l-96 -199h289v-116h-343l-94 -199h437v-117h-490l-117 -242l-92 35l98 207h-292z" />
<glyph unicode="&#x2264;" d="M70 139v121h893v-121h-893zM70 719v115l893 401v-125l-752 -332l752 -329v-125z" />
<glyph unicode="&#x2265;" d="M70 139v121h893v-121h-893zM70 324v125l751 329l-751 332v125l893 -401v-115z" />
<glyph unicode="&#x25ca;" horiz-adv-x="1372" d="M152 686l534 741l535 -741l-535 -739zM281 686l405 -557l406 557l-406 559z" />
<glyph unicode="&#x25fc;" horiz-adv-x="1013" d="M0 0v1014h1014v-1014h-1014z" />
<glyph unicode="&#xf8ff;" horiz-adv-x="1638" d="M72 207v1300h1288q86 0 146.5 -60.5t60.5 -146.5v-1300h-1288q-86 0 -146.5 60.5t-60.5 146.5zM176 252q0 -80 38.5 -123t111.5 -43t111 47.5t38 134.5q0 51 -25 93.5t-110 101.5q-51 33 -51 82q0 78 39 78q37 0 37 -66v-51h110v59q0 80 -38 123t-111 43t-111.5 -47.5 t-38.5 -134.5q0 -35 6.5 -59.5t37.5 -62.5t91 -77q51 -33 51 -78q0 -41 -9 -59t-29 -18q-37 0 -37 65v21h-111v-29zM184 784h111v211h121v123h-121v172h137v123h-248v-629zM473 922q0 -70 36.5 -109t106.5 -39t107 39t37 109v354q0 71 -37 109t-107 38t-106.5 -38 t-36.5 -109v-354zM537 94h110v441h-110v-441zM537 598h110v125h-110v-125zM584 928v340q0 47 32 47q33 0 33 -47v-340q0 -45 -33 -45q-32 0 -32 45zM700 504h39v-271q0 -70 37 -108.5t107 -38.5t106.5 38.5t36.5 108.5v70h-111v-63q0 -45 -32 -45q-33 0 -33 45v264h160v106 h-162v113h-111v-113h-37v-106zM815 784h111v484q0 47 32 47q33 0 33 -47v-484h111v496q0 71 -29 105t-90 34q-45 0 -55 -20v14h-113v-629zM1069 233q0 -70 36.5 -108.5t106.5 -38.5t107 38.5t37 108.5v25h-111v-18q0 -45 -33 -45q-32 0 -32 45v82h176v262q0 71 -37 109 t-107 38t-106.5 -38t-36.5 -109v-351zM1145 1198h39v-276q0 -70 36.5 -109t106.5 -39t106.5 39t36.5 109v69h-110v-63q0 -47 -33 -47t-33 47v270h160v107h-162v108h-110v-108h-37v-107zM1180 416v159q0 48 32 48q33 0 33 -48v-159h-65zM1376 145h21v-51h12v51h21v13h-54v-13 zM1440 94h12v43l18 -43h9l18 43v-43h12v64h-16l-18 -43l-19 43h-16v-64z" />
</font>
</defs>
</svg>
